jj-	zzáL‘Îe{˘ż¦%”ďĎĽb„K#ó_Z<svg version="1.1" id="Layer_1" xmlns="http://www.w3.org/2000/svg" xmlns:xlink="http://www.w3.org/1999/xlink" x="0px" y="0px"
	 width="100%" viewBox="0 0 2048 2048" enable-background="new 0 0 2048 2048" xml:space="preserve">
<path fill="#FFFFFF" opacity="1.000000" stroke="none" 
	d="
M1133.000000,2049.000000 
	C755.333313,2049.000000 378.166656,2049.000000 1.000000,2049.000000 
	C1.000000,1366.333374 1.000000,683.666687 1.000000,1.000000 
	C683.666687,1.000000 1366.333374,1.000000 2049.000000,1.000000 
	C2049.000000,683.666687 2049.000000,1366.333374 2049.000000,2049.000000 
	C1743.833374,2049.000000 1438.666626,2049.000000 1133.000000,2049.000000 
M778.882812,836.049622 
	C778.882812,836.049622 778.915527,835.843140 778.915527,835.843140 
	C778.915527,835.843140 779.018677,835.993469 779.136658,835.972351 
	C779.136658,835.972351 779.004944,835.993286 778.882812,836.049622 
M646.614380,856.859314 
	C651.337341,839.283386 662.321045,826.733948 678.877380,819.951050 
	C702.432922,810.300964 726.152100,813.332642 749.330383,821.966003 
	C758.563782,825.405273 767.367432,829.998169 777.573303,834.611267 
	C763.570190,821.360291 748.488281,812.218201 731.670227,806.014282 
	C714.594360,799.715149 696.942688,796.658569 678.826782,799.956360 
	C670.905090,801.398438 663.287354,804.474182 655.485046,806.640198 
	C653.957336,807.064270 652.215088,806.715576 650.571777,806.723267 
	C651.461731,805.291992 652.346802,803.857666 653.250061,802.434875 
	C653.329651,802.309570 653.535706,802.270020 653.670898,802.173645 
	C686.700928,778.651184 722.448425,775.409668 760.191589,788.188477 
	C768.034363,790.843872 775.561401,794.431702 784.547058,798.130310 
	C775.742798,789.268188 766.206909,783.849243 756.351135,779.363159 
	C734.938110,769.616333 712.579773,764.572083 688.724121,766.629761 
	C671.088928,768.150818 654.664856,772.918152 639.106506,781.134583 
	C635.818665,782.870911 632.398376,784.356445 629.039124,785.957520 
	C628.621277,785.569702 628.203491,785.181946 627.785645,784.794189 
	C651.761597,739.018677 644.267395,695.518982 619.288635,653.296692 
	C627.233093,673.294434 632.268066,693.749878 631.137573,715.714722 
	C630.094604,735.978394 624.945007,754.690552 613.596802,771.421692 
	C606.928650,781.252808 598.063904,789.528503 585.956604,791.148376 
	C576.785950,792.375427 567.184326,791.156860 557.851624,790.240356 
	C536.295410,788.123596 516.817261,792.665649 500.481720,807.397705 
	C485.660919,820.763611 478.865692,838.029846 479.087921,857.635498 
	C479.201324,867.638306 480.986572,877.775146 483.300568,887.547241 
	C484.889313,894.256470 488.688477,900.442322 492.037384,908.090332 
	C495.710266,902.732178 498.713196,898.953430 500.975708,894.773865 
	C501.971832,892.933716 502.313446,889.903992 501.499512,888.053284 
	C495.735718,874.948303 492.039917,861.552429 493.049255,847.028076 
	C493.808685,836.100098 501.944580,830.634155 511.701538,835.576294 
	C517.569092,838.548279 523.248596,842.281128 528.199097,846.603760 
	C545.588318,861.788086 560.656494,879.138062 572.478516,898.967957 
	C577.942810,908.133545 582.010193,918.211182 585.946045,928.177307 
	C588.131897,933.712341 588.008362,939.732483 582.678894,944.169189 
	C576.936035,948.949951 570.309326,947.403992 564.167725,945.915100 
	C552.017090,942.969360 541.716980,936.220520 531.803467,928.789551 
	C529.737366,927.240784 526.277100,925.628479 524.257202,926.333008 
	C519.731567,927.911621 515.707825,930.928955 511.479675,933.360413 
	C511.322021,933.996643 511.164337,934.632812 511.006653,935.269043 
	C512.517029,936.283386 514.095703,937.210083 515.527161,938.325684 
	C529.908630,949.534424 546.268433,955.918396 564.266113,958.188660 
	C587.026550,961.059692 607.167419,955.533142 623.418701,938.759521 
	C636.436890,925.322937 641.191467,908.347778 643.100952,890.322083 
	C644.253601,879.441101 645.274841,868.546143 646.614380,856.859314 
M239.511963,1248.657593 
	C236.987289,1229.537476 236.776047,1210.454102 241.011337,1191.536499 
	C246.564438,1166.732788 255.958954,1143.867676 275.173370,1126.188599 
	C289.673279,1112.847290 306.519714,1106.057495 326.372437,1109.060669 
	C334.238983,1110.250610 341.936554,1112.610352 349.676270,1114.574707 
	C364.964905,1118.454590 380.163666,1119.312500 395.488708,1114.491577 
	C420.874481,1106.505981 437.416840,1085.054443 439.977600,1056.836548 
	C441.255157,1042.758545 440.014587,1029.080933 435.412567,1015.091492 
	C432.318268,1019.556885 429.450623,1023.373413 426.972504,1027.428101 
	C425.964813,1029.076904 425.259766,1031.269897 425.352264,1033.169678 
	C425.747620,1041.289917 426.930115,1049.390259 426.979889,1057.503052 
	C427.025269,1064.900879 426.158356,1072.777954 418.572174,1076.582397 
	C410.848083,1080.456055 404.442841,1075.770142 398.451019,1071.412476 
	C383.735962,1060.710693 373.454041,1046.137939 364.000275,1030.970459 
	C361.858643,1027.534424 359.618683,1026.230957 355.693146,1026.109741 
	C331.716888,1025.368774 307.747986,1024.391113 283.775909,1023.512146 
	C281.688873,1023.435669 279.596619,1023.502075 277.474091,1023.502075 
	C277.261444,1025.061523 277.136169,1026.046143 276.992004,1027.027710 
	C274.480438,1044.132324 268.358002,1059.159912 253.031052,1068.956177 
	C234.450851,1080.831787 214.293167,1082.452393 193.424866,1077.526245 
	C168.189423,1071.569092 148.020676,1057.376709 131.368073,1037.823120 
	C130.373642,1036.655518 129.003769,1035.807617 127.261978,1034.355225 
	C127.261978,1035.882080 127.139023,1036.273315 127.279358,1036.504761 
	C142.294357,1061.263306 162.240128,1080.661987 189.436813,1091.411743 
	C220.512833,1103.694824 250.629944,1102.485107 278.799561,1082.794067 
	C279.373688,1082.392822 280.149689,1082.280518 280.831482,1082.033447 
	C280.459167,1084.223267 279.320984,1085.479980 278.249573,1086.791382 
	C269.622162,1097.351562 259.997009,1107.265137 252.604813,1118.630249 
	C238.440781,1140.406616 231.225266,1164.762695 230.528854,1190.829590 
	C230.004776,1210.446411 232.265945,1229.706909 239.511963,1248.657593 
M355.510223,1162.976929 
	C354.354584,1162.839233 353.200745,1162.600586 352.043060,1162.580078 
	C344.442139,1162.446655 338.778992,1167.470093 337.779572,1175.177734 
	C336.880463,1182.112183 341.430542,1189.108521 348.058472,1190.983032 
	C355.372589,1193.051392 362.978790,1189.887817 365.278259,1182.940918 
	C366.763458,1178.453979 368.400940,1175.603516 373.653564,1175.982788 
	C374.795044,1176.065308 376.192780,1174.558105 377.245422,1173.546753 
	C380.488831,1170.430664 383.549164,1167.122192 386.830414,1164.048218 
	C388.413208,1162.565552 390.331451,1161.440918 392.097839,1160.154297 
	C392.625549,1160.385620 393.153290,1160.616943 393.681030,1160.848389 
	C393.681030,1163.570190 393.312164,1166.352051 393.744110,1169.003540 
	C395.744659,1181.283081 392.437256,1191.215088 381.388306,1197.777466 
	C379.251984,1199.046387 376.775635,1200.350098 374.391968,1200.482666 
	C366.898407,1200.899048 362.019958,1204.266968 359.921906,1211.259888 
	C357.990845,1217.696167 360.657349,1224.165649 366.323425,1228.218384 
	C367.919983,1229.360474 369.091644,1231.649902 369.592346,1233.631958 
	C370.232147,1236.164429 370.067871,1238.917358 370.117462,1241.577759 
	C370.187927,1245.359741 369.530060,1248.536377 365.634338,1250.744995 
	C363.371948,1252.027466 361.449738,1254.661865 360.362152,1257.124146 
	C357.093445,1264.524414 360.438782,1272.560181 367.745239,1275.947632 
	C374.856262,1279.244507 383.011566,1276.581177 386.685516,1269.762329 
	C390.415375,1262.839478 387.619324,1254.244263 380.762939,1249.794800 
	C378.914764,1248.595459 377.693756,1245.902954 376.977631,1243.644653 
	C376.353485,1241.676147 377.022461,1239.335815 376.808319,1237.190918 
	C376.382629,1232.927856 377.718445,1230.126099 381.762146,1227.935669 
	C388.077148,1224.514526 391.164093,1217.270752 388.041840,1210.822510 
	C384.916321,1204.367676 387.901245,1201.318481 392.155762,1197.930908 
	C393.844513,1196.586182 395.320892,1194.972168 397.025452,1193.650391 
	C400.343719,1191.077148 401.519012,1187.798828 401.356720,1183.620117 
	C401.020752,1174.968140 401.093719,1166.301025 400.850464,1157.644287 
	C400.721832,1153.067261 401.961700,1149.438599 405.578369,1146.230957 
	C413.049744,1139.604370 420.122345,1132.528809 427.378662,1125.658813 
	C432.820038,1120.506958 438.244659,1115.335205 443.795258,1110.302979 
	C444.784821,1109.405884 446.353973,1109.147949 447.655548,1108.594971 
	C448.129700,1109.923828 448.950439,1111.236084 449.014587,1112.584473 
	C449.228241,1117.075073 449.637543,1121.640503 449.054901,1126.056152 
	C448.656067,1129.078979 447.411041,1132.550415 445.363647,1134.693115 
	C438.469177,1141.908447 430.879547,1148.457397 423.937347,1155.630737 
	C422.083557,1157.546265 420.684723,1160.759277 420.624237,1163.411865 
	C420.271179,1178.901245 420.306580,1194.401367 420.380402,1209.897095 
	C420.398743,1213.747070 419.294281,1216.350830 415.796295,1218.471069 
	C409.855896,1222.071655 407.263397,1229.463501 409.204926,1235.320679 
	C411.339417,1241.760010 416.847198,1245.844116 423.443939,1245.879517 
	C429.723328,1245.913208 435.067627,1242.280273 436.948669,1236.699097 
	C439.243011,1229.891602 436.739960,1223.174194 431.032654,1218.557617 
	C429.170929,1217.051636 427.586121,1214.067993 427.498474,1211.700073 
	C427.116608,1201.383179 427.334808,1191.043945 427.331451,1180.712891 
	C427.324799,1160.396973 427.317322,1160.389160 443.169220,1147.293823 
	C444.471558,1146.218140 445.941864,1145.345703 447.438599,1144.306152 
	C448.060974,1145.323486 448.516571,1145.724243 448.524994,1146.134277 
	C448.627625,1151.128540 448.489594,1156.134033 448.771759,1161.116333 
	C449.014343,1165.400024 448.312469,1168.485962 443.948456,1170.867065 
	C438.647125,1173.759521 436.893890,1181.409790 438.965271,1187.815186 
	C440.717285,1193.233032 446.947632,1197.448975 452.935638,1197.268433 
	C459.129852,1197.081909 464.544708,1192.914673 466.273010,1187.004028 
	C468.069733,1180.859375 465.965424,1173.860596 460.639526,1170.787354 
	C457.000183,1168.687134 456.315186,1166.003052 456.321320,1162.204102 
	C456.390717,1119.380127 456.397705,1076.555786 456.234253,1033.732178 
	C456.204834,1026.021606 455.326813,1018.314270 454.809448,1010.110901 
	C450.117279,1012.534485 449.141418,1015.702759 449.153961,1019.656982 
	C449.226868,1042.651489 449.056152,1065.647339 449.271088,1088.640015 
	C449.315582,1093.398315 447.872498,1096.756104 444.429291,1099.977539 
	C420.477997,1122.385864 396.662842,1144.939697 372.836426,1167.481201 
	C369.622742,1170.521606 366.655884,1169.729736 363.456024,1167.494385 
	C361.167419,1165.895630 358.678192,1164.584106 355.510223,1162.976929 
M1225.993286,1022.496765 
	C1218.614258,1001.894043 1204.078857,992.058838 1183.457764,993.962952 
	C1173.954956,994.840393 1166.442871,999.707336 1159.636230,1007.724182 
	C1159.636230,1003.040344 1159.636230,999.492249 1159.636230,995.973022 
	C1152.474365,995.973022 1145.769897,995.973022 1139.011230,995.973022 
	C1139.011230,1034.552246 1139.011230,1072.781860 1139.011230,1111.010254 
	C1146.439453,1111.010254 1153.629395,1111.010254 1160.931152,1111.010254 
	C1160.931152,1103.817871 1160.931152,1096.999634 1160.931152,1090.181396 
	C1160.931152,1083.544312 1160.931152,1076.907227 1160.931152,1068.863403 
	C1172.241333,1087.992798 1204.103271,1088.190186 1218.534668,1068.342896 
	C1228.594238,1054.508057 1230.321411,1039.434204 1225.993286,1022.496765 
M607.255615,1101.119995 
	C593.876892,1069.925415 580.450928,1038.750854 567.191589,1007.505676 
	C565.840759,1004.322449 564.387268,1002.618591 560.670776,1002.991577 
	C557.043396,1003.355774 553.316956,1003.403015 549.698059,1003.005737 
	C545.588013,1002.554626 543.893127,1004.434143 542.416809,1007.964539 
	C531.632507,1033.752686 520.642517,1059.454712 509.749786,1085.197632 
	C506.485718,1092.911499 503.324066,1100.668823 499.748047,1109.292480 
	C506.981049,1109.292480 513.134888,1109.463745 519.264832,1109.158081 
	C520.604431,1109.091309 522.458496,1107.592651 523.046082,1106.289307 
	C525.230530,1101.443481 527.240479,1096.483032 528.811890,1091.409424 
	C529.848511,1088.062378 531.690002,1087.053833 534.970947,1087.069946 
	C548.124817,1087.134766 561.281250,1086.914307 574.431763,1087.119263 
	C576.004761,1087.143799 578.254211,1088.782471 578.975464,1090.264282 
	C581.445435,1095.338989 583.279480,1100.719238 585.573730,1105.886230 
	C586.169495,1107.228149 587.519226,1109.171875 588.588989,1109.215576 
	C595.820007,1109.510742 603.068726,1109.369507 610.926575,1109.369507 
	C609.584290,1106.303955 608.595215,1104.045288 607.255615,1101.119995 
M478.714752,932.270935 
	C477.138611,934.664551 474.073608,937.188965 474.270172,939.426819 
	C474.822205,945.710083 476.718719,951.875305 478.319824,959.154785 
	C483.022430,953.959229 486.652466,949.402222 490.841370,945.435364 
	C499.386414,937.343201 507.627533,928.728455 517.121277,921.895447 
	C526.984436,914.796448 527.482666,915.712952 536.917908,923.067566 
	C546.266052,930.354187 555.984985,937.110413 567.966309,939.372009 
	C575.676575,940.827393 579.957397,936.553406 578.447876,928.839905 
	C577.784729,925.451477 576.723145,922.031860 575.208984,918.936279 
	C561.380127,890.663574 541.255981,867.379578 517.478882,847.113525 
	C513.654541,843.853943 508.969055,839.898987 503.596252,843.160889 
	C498.312286,846.368896 499.008636,852.342529 499.512146,857.659180 
	C500.516846,868.267883 504.347351,877.993286 509.485321,887.210083 
	C510.866882,889.688354 510.801971,891.481934 509.325134,893.976013 
	C501.032715,907.980042 490.480682,920.142212 478.714752,932.270935 
M912.801270,1035.500366 
	C918.169250,1022.371948 923.537231,1009.243530 929.109924,995.614258 
	C921.833984,995.614258 915.184204,995.460571 908.553772,995.750427 
	C907.303589,995.805115 905.567383,997.386230 905.020813,998.673035 
	C902.812561,1003.871521 901.007080,1009.239868 899.006836,1014.528076 
	C893.858093,1028.139771 888.684875,1041.742310 883.220581,1056.141113 
	C882.354675,1054.292358 881.758423,1053.185181 881.303284,1052.022949 
	C874.448608,1034.518677 867.649536,1016.992432 860.703674,999.524597 
	C860.129700,998.081055 858.640564,996.008362 857.490112,995.950562 
	C850.733704,995.611267 843.951599,995.783875 836.601440,995.783875 
	C837.438538,998.030457 838.003784,999.706970 838.679749,1001.337646 
	C849.312317,1026.986694 859.984497,1052.619385 870.588074,1078.280396 
	C874.021606,1086.589600 866.888000,1095.636108 857.926453,1094.164673 
	C854.610352,1093.620361 851.455933,1092.091553 848.069702,1090.958862 
	C846.023132,1096.577271 844.005249,1102.116943 842.032898,1107.531616 
	C859.823486,1119.744873 881.169617,1113.546021 889.532227,1093.651611 
	C897.522217,1074.643921 904.861206,1055.362305 912.801270,1035.500366 
M1116.713013,1042.500366 
	C1116.653198,1037.007324 1116.870483,1031.494629 1116.484009,1026.024658 
	C1115.065186,1005.944092 1106.163574,996.542664 1086.064941,994.548096 
	C1071.080200,993.060913 1057.230469,996.946655 1044.199219,1004.813660 
	C1046.999878,1010.257263 1049.540649,1015.195557 1052.103394,1020.176636 
	C1061.056030,1015.290833 1069.947144,1012.302307 1079.746704,1012.820312 
	C1090.425171,1013.384705 1095.203491,1018.632446 1094.935791,1030.047363 
	C1088.836304,1030.047363 1082.680542,1029.665894 1076.593384,1030.149292 
	C1069.834595,1030.686157 1062.977905,1031.405396 1056.451538,1033.132324 
	C1045.834961,1035.941528 1039.424561,1044.915405 1038.978760,1056.034180 
	C1038.531494,1067.186646 1044.129272,1076.932129 1054.248413,1080.560181 
	C1068.696777,1085.740112 1082.397583,1084.784058 1094.000488,1073.313599 
	C1094.499512,1072.820312 1095.175049,1072.505615 1095.984253,1071.962769 
	C1096.200806,1075.202148 1096.385132,1077.957397 1096.566772,1080.674072 
	C1103.446289,1080.674072 1109.854492,1080.674072 1116.151611,1080.674072 
	C1116.384399,1080.064819 1116.600708,1079.761719 1116.601807,1079.457886 
	C1116.644775,1067.471924 1116.668091,1055.486084 1116.713013,1042.500366 
M1654.859619,1066.491211 
	C1654.997192,1054.661621 1654.984863,1042.827881 1655.313477,1031.003540 
	C1655.663818,1018.390442 1668.199341,1009.955994 1680.140625,1014.072144 
	C1687.124023,1016.479370 1690.270386,1021.427307 1690.401855,1031.118774 
	C1690.603027,1045.948975 1690.556152,1060.782227 1690.637573,1075.614258 
	C1690.647339,1077.385864 1690.801147,1079.156738 1690.890137,1080.970093 
	C1698.442749,1080.970093 1705.486206,1080.970093 1712.414062,1080.970093 
	C1712.414062,1059.918457 1712.743286,1039.285645 1712.224487,1018.674133 
	C1712.057007,1012.023804 1708.987183,1005.759705 1703.574585,1001.191711 
	C1692.084595,991.494812 1673.286987,991.157471 1661.361694,1000.405090 
	C1659.503662,1001.845825 1657.622803,1003.257080 1654.857788,1005.363586 
	C1654.659302,1002.353516 1654.783203,1000.526184 1654.345703,998.845032 
	C1654.032837,997.642639 1653.004883,995.719238 1652.231079,995.687195 
	C1645.990723,995.428589 1639.734863,995.542297 1633.273682,995.542297 
	C1633.273682,1024.575317 1633.273682,1052.805664 1633.273682,1081.421753 
	C1639.090698,1081.421753 1644.416870,1081.179565 1649.709473,1081.497559 
	C1654.034058,1081.757202 1655.285034,1079.995483 1654.889282,1075.979492 
	C1654.612793,1073.174316 1654.849121,1070.318726 1654.859619,1066.491211 
M1475.813965,1013.898010 
	C1481.250732,1013.606079 1486.782715,1012.542847 1492.102661,1013.198608 
	C1500.615845,1014.248108 1505.267578,1021.666870 1503.418457,1030.030640 
	C1496.321411,1030.030640 1489.117188,1029.543823 1482.012085,1030.175049 
	C1475.620117,1030.742920 1469.082153,1031.818115 1463.063599,1033.952759 
	C1453.005493,1037.520142 1447.858276,1045.746094 1448.017822,1056.377686 
	C1448.180664,1067.216919 1452.183838,1076.080444 1462.833130,1080.200684 
	C1476.881836,1085.636475 1490.237549,1084.662720 1501.985718,1074.171875 
	C1502.903687,1073.352173 1503.923950,1072.647095 1505.311890,1071.565063 
	C1505.517212,1074.966187 1505.684814,1077.742920 1505.857422,1080.600586 
	C1512.707397,1080.600586 1519.265747,1080.600586 1525.982910,1080.600586 
	C1525.982910,1072.792603 1526.091675,1065.310425 1525.957886,1057.832642 
	C1525.743652,1045.851685 1525.993774,1033.816528 1524.904297,1021.908752 
	C1523.518433,1006.758606 1513.585571,997.282410 1498.513062,994.962158 
	C1487.401855,993.251587 1476.564453,994.440002 1466.049561,998.165100 
	C1461.631104,999.730408 1457.484863,1002.064148 1453.164062,1004.072266 
	C1456.011108,1009.760315 1458.445435,1014.623718 1460.824219,1019.376343 
	C1465.739990,1017.528809 1470.365601,1015.790344 1475.813965,1013.898010 
M942.323730,1066.490234 
	C942.323730,1071.258667 942.323730,1076.027100 942.323730,1080.863525 
	C949.852661,1080.863525 956.930359,1080.863525 964.123230,1080.863525 
	C964.123230,1065.633423 964.074890,1050.659424 964.164429,1035.686157 
	C964.182251,1032.713257 964.336487,1029.638062 965.102783,1026.791748 
	C967.672241,1017.246887 976.537659,1011.734253 986.633118,1013.082703 
	C995.591003,1014.279175 1000.062927,1020.145081 1000.175110,1030.947632 
	C1000.237427,1036.946899 1000.218567,1042.947144 1000.222168,1048.946899 
	C1000.228455,1059.580811 1000.223938,1070.214722 1000.223938,1080.858643 
	C1007.843140,1080.858643 1015.042664,1080.858643 1022.138733,1080.858643 
	C1022.138733,1061.086548 1022.423584,1041.752808 1022.041260,1022.432312 
	C1021.774475,1008.948792 1014.446106,999.024658 1002.830750,995.420959 
	C991.010010,991.753662 974.547485,993.174561 965.401184,1005.894348 
	C965.084778,1006.334473 964.497986,1006.580200 963.336548,1007.428101 
	C963.336548,1003.052246 963.336548,999.457581 963.336548,995.840942 
	C956.072327,995.840942 949.305420,995.840942 942.325378,995.840942 
	C942.325378,1019.227051 942.325378,1042.360107 942.323730,1066.490234 
M338.661194,965.697510 
	C339.510223,956.860229 343.928589,952.536987 352.601440,953.048096 
	C356.827515,953.297180 361.136292,954.439575 365.127960,955.927673 
	C376.066162,960.005493 384.952667,967.311951 393.730988,974.779724 
	C395.582428,976.354736 398.504669,978.296692 400.413818,977.849731 
	C404.783813,976.826599 408.832764,974.432068 413.514984,972.373291 
	C411.933716,970.442017 410.970520,969.117310 409.859436,967.931152 
	C397.274445,954.495544 381.830200,945.952698 363.870941,942.473572 
	C317.633026,933.516052 282.969513,963.220642 279.968597,1008.696289 
	C302.803772,1006.678345 325.560608,1004.667236 347.649811,1002.715210 
	C344.561279,990.312805 341.608307,978.454834 338.661194,965.697510 
M1389.089722,1018.562195 
	C1390.876831,1013.144165 1394.190308,1011.001587 1400.998291,1011.182983 
	C1409.671631,1011.414001 1417.449097,1014.561584 1424.876709,1019.333862 
	C1428.161499,1014.339111 1431.238892,1009.659546 1434.520264,1004.670044 
	C1428.200439,999.670837 1421.047241,997.082214 1413.575195,995.518188 
	C1401.196289,992.927002 1388.994385,992.807495 1378.145996,1000.711487 
	C1363.547485,1011.347412 1365.576416,1033.933472 1381.874268,1041.546265 
	C1386.060425,1043.501465 1390.646729,1044.616455 1395.078735,1046.024536 
	C1399.986328,1047.583862 1404.994873,1048.851562 1409.832275,1050.598267 
	C1413.315308,1051.855835 1415.950195,1054.352783 1415.665283,1058.414429 
	C1415.359985,1062.763306 1412.135620,1064.884277 1408.315674,1065.383789 
	C1404.411255,1065.894409 1400.121704,1066.406494 1396.473999,1065.323853 
	C1388.796631,1063.045044 1381.428833,1059.723145 1373.525146,1056.671631 
	C1370.879517,1060.504883 1367.706787,1065.101929 1364.434814,1069.842651 
	C1371.151123,1076.036621 1378.909302,1079.629395 1387.468140,1081.544189 
	C1399.414429,1084.216431 1411.331055,1084.765259 1422.550415,1078.857666 
	C1431.711304,1074.033936 1436.581299,1066.291870 1436.252197,1055.727051 
	C1435.936768,1045.599854 1431.087402,1038.315308 1421.854248,1034.196411 
	C1417.925049,1032.443481 1413.771973,1031.153198 1409.649780,1029.882568 
	C1405.045410,1028.463257 1400.128052,1027.816162 1395.796509,1025.844727 
	C1393.126709,1024.629639 1391.297729,1021.567566 1389.089722,1018.562195 
M1267.524414,1045.877075 
	C1273.240112,1047.604980 1279.187866,1048.828125 1284.562256,1051.298584 
	C1286.850464,1052.350464 1289.371338,1056.132935 1289.174194,1058.452393 
	C1288.973633,1060.812012 1285.896240,1064.190308 1283.477783,1064.821655 
	C1279.132324,1065.955811 1274.043579,1066.436646 1269.795654,1065.266113 
	C1262.283203,1063.195923 1255.168457,1059.683105 1247.528076,1056.630493 
	C1244.697876,1060.627319 1241.384644,1065.306519 1238.019775,1070.058472 
	C1245.246460,1076.672607 1253.627075,1080.184570 1262.708008,1081.979858 
	C1275.797119,1084.567261 1288.713135,1084.507446 1300.017456,1076.156738 
	C1314.791260,1065.242798 1312.957031,1042.980957 1296.571411,1034.785889 
	C1291.427246,1032.213135 1285.661865,1030.863525 1280.147217,1029.056519 
	C1275.737061,1027.611206 1271.056030,1026.771362 1266.935059,1024.761353 
	C1265.023315,1023.828979 1263.036743,1020.703003 1263.128296,1018.663391 
	C1263.222168,1016.578003 1265.425171,1013.573669 1267.409058,1012.816101 
	C1270.673584,1011.569580 1274.713745,1010.874023 1278.055908,1011.616333 
	C1285.232666,1013.210205 1292.172974,1015.868713 1299.769043,1018.267883 
	C1302.258057,1014.510559 1305.318237,1009.891174 1309.250610,1003.955017 
	C1301.825439,1000.961365 1295.195801,997.344116 1288.106323,995.636597 
	C1275.328979,992.559143 1262.537842,992.726929 1251.381592,1001.210815 
	C1237.291626,1011.925537 1239.263306,1033.568970 1255.051147,1041.423462 
	C1258.739746,1043.258423 1262.830688,1044.284424 1267.524414,1045.877075 
M829.445129,1059.911255 
	C830.664062,1048.074951 826.018250,1039.165283 815.397888,1034.340576 
	C810.288086,1032.019409 804.730957,1030.680298 799.370300,1028.914917 
	C795.431763,1027.617798 791.192749,1026.866821 787.650940,1024.871948 
	C785.606384,1023.720337 783.426208,1020.479919 783.599304,1018.367371 
	C783.776794,1016.200317 786.377014,1013.342651 788.587952,1012.450989 
	C791.503174,1011.275330 795.277588,1010.889282 798.319275,1011.638733 
	C805.293213,1013.357178 812.046997,1015.969666 819.166382,1018.309937 
	C821.887268,1014.154053 824.968567,1009.447815 828.396118,1004.212585 
	C812.896362,994.923706 796.808472,990.620056 779.343750,996.872681 
	C768.117859,1000.891785 762.396912,1010.125427 762.756775,1021.580200 
	C763.104553,1032.650269 768.978943,1039.861084 780.968567,1043.787842 
	C783.651550,1044.666626 786.436218,1045.229736 789.146362,1046.031860 
	C793.925232,1047.446167 798.758179,1048.728516 803.424316,1050.455811 
	C806.868896,1051.730835 809.458618,1054.095581 809.131958,1058.306030 
	C808.790405,1062.707886 805.790405,1064.917847 801.972778,1065.450439 
	C798.078735,1065.993652 793.768066,1066.487427 790.138306,1065.375488 
	C782.645142,1063.079956 775.483398,1059.702393 767.748169,1056.594116 
	C765.010620,1060.478027 761.713684,1065.155518 758.177734,1070.172119 
	C774.105896,1082.403931 791.270935,1086.443726 810.186340,1081.035522 
	C820.309082,1078.141479 827.261414,1071.589233 829.445129,1059.911255 
M430.368622,960.345276 
	C425.235992,972.411438 420.014313,984.440918 415.022858,996.565247 
	C413.444641,1000.398743 410.873566,1002.473389 406.873047,1002.874573 
	C383.120636,1005.256714 359.374268,1007.704346 335.609131,1009.952759 
	C315.827240,1011.824280 296.022339,1013.452454 276.227631,1015.188416 
	C292.221588,1016.739563 308.173950,1018.122925 324.156128,1018.863464 
	C346.247620,1019.887085 368.364624,1020.348511 390.464325,1021.214111 
	C398.586365,1021.532288 406.703766,1022.170776 414.798370,1022.929260 
	C422.291504,1023.631409 424.563690,1021.861511 427.096893,1015.233093 
	C433.709473,997.930664 440.755035,980.793030 447.740326,963.635437 
	C448.159760,962.605164 449.564331,961.976013 450.510468,961.160156 
	C451.312683,962.228638 452.553223,963.188965 452.847717,964.382690 
	C455.182831,973.847656 457.255219,983.377197 459.564697,992.848755 
	C465.330597,1016.495605 471.159119,1040.127197 477.012970,1063.752563 
	C478.052490,1067.947998 479.335266,1072.083008 480.505737,1076.245972 
	C480.992126,1076.235229 481.478546,1076.224487 481.964935,1076.213745 
	C484.639618,1068.282471 487.365784,1060.367920 489.976471,1052.415649 
	C493.528198,1041.596680 496.974365,1030.742920 500.497772,1019.914490 
	C503.988312,1009.186890 507.789886,998.549683 510.883820,987.709778 
	C511.963348,983.927490 513.807556,982.393738 517.322693,982.102722 
	C525.758972,981.404419 534.196228,980.718872 542.633240,980.029846 
	C558.838745,978.706421 575.034363,977.241577 591.252502,976.096680 
	C612.617493,974.588379 634.002869,973.371765 655.374023,971.947388 
	C664.103333,971.365479 672.818298,970.567871 681.539795,969.868408 
	C669.449341,968.355225 657.370483,967.618835 645.284363,967.030823 
	C636.651550,966.610718 628.007324,966.429077 619.371094,966.072754 
	C594.633362,965.052185 569.897644,963.983826 545.159729,962.966919 
	C540.668213,962.782288 536.165222,962.855286 531.676575,962.628845 
	C522.562317,962.169067 513.458130,961.401489 504.340363,961.210205 
	C502.531494,961.172302 499.561279,962.754639 499.028687,964.261902 
	C495.328522,974.733093 492.215515,985.410156 488.698059,995.949036 
	C488.015015,997.995483 486.383698,999.725464 485.189789,1001.601440 
	C483.871857,999.678406 482.540283,997.764343 481.252777,995.821106 
	C481.088287,995.572571 481.184998,995.164246 481.107941,994.842651 
	C477.363831,979.220093 473.608185,963.600281 469.866608,947.977112 
	C466.893250,935.561707 463.958282,923.137085 460.961487,910.727356 
	C459.760773,905.755127 458.440125,900.811768 457.174042,895.855286 
	C456.790710,895.959412 456.407379,896.063477 456.024048,896.167603 
	C447.570587,917.324402 439.117126,938.481140 430.368622,960.345276 
M1756.408325,1057.444580 
	C1756.161865,1040.139038 1755.841675,1022.834167 1755.691895,1005.527893 
	C1755.569458,991.377075 1755.719727,977.223633 1755.544678,963.073853 
	C1755.525024,961.491638 1754.245605,958.608398 1753.422607,958.561401 
	C1746.873901,958.187195 1740.294434,958.352722 1733.725708,958.352722 
	C1733.570557,960.252258 1733.417480,961.239746 1733.419922,962.226868 
	C1733.495728,993.693604 1733.541870,1025.160645 1733.731934,1056.626709 
	C1733.755859,1060.592773 1734.320190,1064.596313 1735.042358,1068.507080 
	C1735.995605,1073.669067 1738.731201,1077.883789 1743.558105,1080.177856 
	C1752.522217,1084.438110 1761.633301,1084.100586 1770.582275,1080.072266 
	C1771.906128,1079.476318 1773.714966,1077.787964 1773.664062,1076.680054 
	C1773.432129,1071.629883 1772.616333,1066.606689 1772.001587,1061.500610 
	C1765.868652,1062.264526 1759.842041,1066.102417 1756.408325,1057.444580 
M630.539307,1003.756287 
	C627.764038,1003.756287 624.988831,1003.756287 622.295532,1003.756287 
	C622.295532,1038.990845 622.295532,1073.842529 622.295532,1108.629761 
	C629.369080,1108.629761 635.971130,1108.629761 642.737427,1108.629761 
	C642.737427,1073.483765 642.737427,1038.637817 642.737427,1003.755859 
	C638.698547,1003.755859 635.063416,1003.755859 630.539307,1003.756287 
M455.745636,827.035400 
	C451.941589,820.321960 446.618134,817.565918 439.745728,818.751892 
	C433.206268,819.880432 428.835938,824.018555 427.522949,830.325195 
	C426.169769,836.824829 428.943726,842.108459 435.123474,846.315918 
	C436.804810,847.460632 438.344147,850.039124 438.456696,852.043335 
	C438.866791,859.346619 438.687073,866.685730 438.627014,874.010437 
	C438.614960,875.482788 438.153473,876.951477 437.727692,879.413757 
	C435.024323,877.184753 433.128540,875.865662 431.526794,874.254333 
	C427.071350,869.771973 422.543793,865.333557 418.456024,860.527954 
	C416.907593,858.707581 415.748260,855.952332 415.675781,853.584534 
	C415.354919,843.104919 415.601562,832.609253 415.410400,822.123657 
	C415.339386,818.229309 416.060974,815.511536 419.664948,812.962891 
	C427.899017,807.140137 428.175873,795.141296 420.794189,789.285889 
	C414.462952,784.263794 405.107391,785.296082 400.260315,791.551880 
	C395.007782,798.330750 396.156952,808.202576 403.424438,812.548279 
	C407.670898,815.087585 408.794250,818.011230 408.669525,822.618225 
	C408.376678,833.431946 408.785339,844.264832 408.478088,855.077759 
	C408.348175,859.649414 409.787659,862.936584 413.041473,866.029175 
	C420.400635,873.023438 427.401459,880.394531 434.752411,887.397827 
	C437.480621,889.996948 438.878418,892.645935 438.710175,896.520508 
	C438.418610,903.235535 438.629242,909.972351 438.629242,916.700073 
	C443.059631,910.479736 445.900696,904.205811 445.724182,896.651733 
	C445.385956,882.175903 445.528870,867.683105 445.820496,853.204346 
	C445.865204,850.983704 447.184113,847.997009 448.913422,846.740540 
	C455.974548,841.610291 458.144897,836.519165 455.745636,827.035400 
M403.772705,887.734924 
	C398.792114,882.825256 393.804688,877.922546 388.832825,873.004089 
	C383.691345,867.917603 383.994720,862.504700 389.651917,858.048096 
	C396.471497,852.675781 397.175354,841.789185 391.121460,835.319763 
	C385.535889,829.350891 375.807434,829.554321 369.845673,835.917664 
	C368.635712,837.209167 367.988159,839.027527 366.996185,840.750977 
	C360.059479,834.344849 354.708557,829.117554 349.036224,824.266052 
	C345.300293,821.070679 344.046112,818.402344 346.651581,813.386353 
	C350.683044,805.625244 345.969574,796.452209 337.612549,793.842041 
	C329.959564,791.451782 321.469177,796.061768 319.497650,803.677795 
	C317.255676,812.338623 322.378113,821.563660 330.798309,821.987610 
	C336.686615,822.284119 340.506927,824.728638 343.815094,828.806946 
	C351.805634,838.657532 364.502258,843.880127 370.329498,855.895447 
	C370.979340,857.235352 372.720001,858.299500 374.194641,858.935486 
	C377.691223,860.443665 378.800446,863.038208 378.271759,866.542908 
	C377.605713,870.957886 379.607574,873.948914 382.707886,876.938538 
	C394.333038,888.148682 405.818604,899.510193 417.083893,911.080383 
	C418.929321,912.975830 420.201477,916.159485 420.360565,918.829712 
	C420.835236,926.797424 420.565857,934.807007 420.705750,942.798096 
	C420.779327,947.002441 421.100494,951.202393 421.368805,956.586609 
	C425.379730,951.190857 427.730988,946.708740 427.563538,941.017639 
	C427.318787,932.698486 427.306580,924.363586 427.522003,916.043823 
	C427.624878,912.068970 426.485565,909.144470 423.476135,906.442871 
	C416.914764,900.552612 410.658752,894.322205 403.772705,887.734924 
M1327.221924,998.850464 
	C1327.221924,1026.138062 1327.221924,1053.425659 1327.221924,1080.953369 
	C1334.521484,1080.953369 1341.608398,1080.953369 1348.613281,1080.953369 
	C1348.613281,1052.338623 1348.613281,1023.954163 1348.613281,995.368469 
	C1342.086548,995.368469 1335.957275,995.263916 1329.839722,995.482544 
	C1328.935425,995.514832 1328.085815,997.075134 1327.221924,998.850464 
M1568.991211,1025.500000 
	C1568.991211,1015.572937 1568.991211,1005.645874 1568.991211,995.614136 
	C1561.421387,995.614136 1554.541016,995.614136 1547.717041,995.614136 
	C1547.717041,1024.201050 1547.717041,1052.455078 1547.717041,1080.702881 
	C1554.974609,1080.702881 1561.880249,1080.702881 1568.991699,1080.702881 
	C1568.991699,1062.418945 1568.991699,1044.459473 1568.991211,1025.500000 
M327.912567,880.586548 
	C334.310120,890.124390 343.193848,893.659119 354.436462,891.697693 
	C356.053833,891.415649 357.844482,891.330872 359.408051,891.730103 
	C361.539154,892.274231 364.024841,892.864990 365.500977,894.311096 
	C377.163574,905.736328 388.697784,917.296509 400.053040,929.026611 
	C401.570526,930.594116 402.463104,933.306702 402.611481,935.557190 
	C403.038300,942.029480 402.999634,948.536560 403.009735,955.030273 
	C403.013916,957.730103 403.897125,958.913757 406.816040,958.813110 
	C409.760986,958.711670 410.469788,957.313477 410.438904,954.724792 
	C410.361450,948.227783 410.172089,941.716553 410.504517,935.235413 
	C410.746399,930.519653 409.230377,927.139343 405.811249,923.834839 
	C394.312012,912.721069 382.928589,901.469666 371.938324,889.856812 
	C368.139801,885.843323 364.305908,883.649780 358.925568,884.614990 
	C346.962738,886.760986 337.943634,882.605957 330.463531,873.038696 
	C326.860931,868.430786 323.558258,865.319092 325.850708,858.447205 
	C328.483856,850.554016 321.139557,842.389954 312.349457,841.609558 
	C304.304077,840.895264 297.552246,846.973083 297.089691,855.345886 
	C296.593292,864.332031 302.807648,871.430420 311.502869,870.582703 
	C317.097504,870.037231 320.747070,871.543213 323.628540,876.114563 
	C324.583954,877.630310 326.140015,878.767456 327.912567,880.586548 
M392.782593,997.989868 
	C396.593903,997.621887 400.425323,997.388062 404.206543,996.819946 
	C405.720551,996.592529 407.879456,996.020142 408.442535,994.931274 
	C410.508453,990.936646 412.027283,986.659058 414.075684,981.705200 
	C411.228943,982.701050 409.256836,983.135315 407.530334,984.038818 
	C399.930756,988.015930 394.174866,986.348999 387.537415,980.626343 
	C379.211914,973.448486 369.630524,967.409302 359.828278,962.359680 
	C351.528839,958.084351 346.296753,962.027893 348.059479,971.189453 
	C349.920319,980.860657 353.826141,990.155823 357.162262,999.499756 
	C357.509308,1000.471802 360.101837,1001.244934 361.566559,1001.118103 
	C371.681183,1000.242004 381.772980,999.102234 392.782593,997.989868 
M396.800049,1027.947144 
	C388.626770,1027.575317 380.453491,1027.203491 372.280212,1026.831665 
	C372.037018,1027.252441 371.793793,1027.673218 371.550568,1028.094116 
	C377.411957,1035.881714 382.923920,1043.968750 389.251465,1051.357056 
	C393.854462,1056.731812 399.103790,1061.784912 404.841278,1065.898682 
	C412.478241,1071.374268 418.410858,1068.776367 418.756134,1059.436890 
	C419.101135,1050.104614 417.514008,1040.683594 416.436707,1031.340332 
	C416.315979,1030.293335 414.067719,1028.845825 412.691681,1028.705444 
	C407.737061,1028.200195 402.733459,1028.175415 396.800049,1027.947144 
M1592.773682,1057.244751 
	C1591.636108,1058.473999 1589.628174,1059.628906 1589.515747,1060.945679 
	C1589.093262,1065.886719 1588.992432,1070.901611 1589.342041,1075.848511 
	C1589.657959,1080.319214 1593.137329,1082.109497 1597.090942,1082.024170 
	C1602.982422,1081.896973 1609.710693,1084.133911 1613.796875,1077.389526 
	C1614.114868,1076.864868 1614.141846,1076.104248 1614.138306,1075.454224 
	C1614.116089,1071.296021 1614.145020,1067.133911 1613.966309,1062.981323 
	C1613.793945,1058.973145 1611.442139,1056.946411 1607.521851,1056.901489 
	C1602.867310,1056.848022 1598.210693,1056.982544 1592.773682,1057.244751 
M1569.775635,963.836914 
	C1569.704224,962.581909 1569.632812,961.326965 1569.561279,960.070312 
	C1561.730103,960.070312 1554.288452,960.070312 1546.829102,960.070312 
	C1546.829102,967.200012 1546.829102,974.074402 1546.829102,980.941528 
	C1554.612305,980.941528 1562.067627,980.941528 1569.776001,980.941528 
	C1569.776001,975.396606 1569.776001,970.081482 1569.775635,963.836914 
M1349.893311,973.410339 
	C1349.893311,968.992859 1349.893311,964.575378 1349.893311,960.142578 
	C1341.805420,960.142578 1334.228760,960.142578 1326.640381,960.142578 
	C1326.640381,967.265503 1326.640381,974.132141 1326.640381,981.058838 
	C1334.507202,981.058838 1342.080688,981.058838 1349.897827,981.058838 
	C1349.897827,978.654236 1349.897827,976.511841 1349.893311,973.410339 
M447.179169,987.660339 
	C452.334930,982.032227 452.591705,980.467896 448.671692,973.656311 
	C446.555420,979.912048 444.704437,985.383484 442.853455,990.854980 
	C443.196869,991.036072 443.540283,991.217102 443.883698,991.398193 
	C444.828491,990.329102 445.773315,989.260071 447.179169,987.660339 
z"/>
<path fill="#7FC254" opacity="1.000000" stroke="none" 
	d="
M646.484741,857.258423 
	C645.274841,868.546143 644.253601,879.441101 643.100952,890.322083 
	C641.191467,908.347778 636.436890,925.322937 623.418701,938.759521 
	C607.167419,955.533142 587.026550,961.059692 564.266113,958.188660 
	C546.268433,955.918396 529.908630,949.534424 515.527161,938.325684 
	C514.095703,937.210083 512.517029,936.283386 511.006653,935.269043 
	C511.164337,934.632812 511.322021,933.996643 511.479675,933.360413 
	C515.707825,930.928955 519.731567,927.911621 524.257202,926.333008 
	C526.277100,925.628479 529.737366,927.240784 531.803467,928.789551 
	C541.716980,936.220520 552.017090,942.969360 564.167725,945.915100 
	C570.309326,947.403992 576.936035,948.949951 582.678894,944.169189 
	C588.008362,939.732483 588.131897,933.712341 585.946045,928.177307 
	C582.010193,918.211182 577.942810,908.133545 572.478516,898.967957 
	C560.656494,879.138062 545.588318,861.788086 528.199097,846.603760 
	C523.248596,842.281128 517.569092,838.548279 511.701538,835.576294 
	C501.944580,830.634155 493.808685,836.100098 493.049255,847.028076 
	C492.039917,861.552429 495.735718,874.948303 501.499512,888.053284 
	C502.313446,889.903992 501.971832,892.933716 500.975708,894.773865 
	C498.713196,898.953430 495.710266,902.732178 492.037384,908.090332 
	C488.688477,900.442322 484.889313,894.256470 483.300568,887.547241 
	C480.986572,877.775146 479.201324,867.638306 479.087921,857.635498 
	C478.865692,838.029846 485.660919,820.763611 500.481720,807.397705 
	C516.817261,792.665649 536.295410,788.123596 557.851624,790.240356 
	C567.184326,791.156860 576.785950,792.375427 585.956604,791.148376 
	C598.063904,789.528503 606.928650,781.252808 613.596802,771.421692 
	C624.945007,754.690552 630.094604,735.978394 631.137573,715.714722 
	C632.268066,693.749878 627.233093,673.294434 619.288635,653.296692 
	C644.267395,695.518982 651.761597,739.018677 627.785645,784.794189 
	C628.203491,785.181946 628.621277,785.569702 629.039124,785.957520 
	C632.398376,784.356445 635.818665,782.870911 639.106506,781.134583 
	C654.664856,772.918152 671.088928,768.150818 688.724121,766.629761 
	C712.579773,764.572083 734.938110,769.616333 756.351135,779.363159 
	C766.206909,783.849243 775.742798,789.268188 784.547058,798.130310 
	C775.561401,794.431702 768.034363,790.843872 760.191589,788.188477 
	C722.448425,775.409668 686.700928,778.651184 653.670898,802.173645 
	C653.535706,802.270020 653.329651,802.309570 653.250061,802.434875 
	C652.346802,803.857666 651.461731,805.291992 650.571777,806.723267 
	C652.215088,806.715576 653.957336,807.064270 655.485046,806.640198 
	C663.287354,804.474182 670.905090,801.398438 678.826782,799.956360 
	C696.942688,796.658569 714.594360,799.715149 731.670227,806.014282 
	C748.488281,812.218201 763.570190,821.360291 777.573303,834.611267 
	C767.367432,829.998169 758.563782,825.405273 749.330383,821.966003 
	C726.152100,813.332642 702.432922,810.300964 678.877380,819.951050 
	C662.321045,826.733948 651.337341,839.283386 646.484741,857.258423 
z"/>
<path fill="#33B4D8" opacity="1.000000" stroke="none" 
	d="
M239.350479,1248.444580 
	C232.265945,1229.706909 230.004776,1210.446411 230.528854,1190.829590 
	C231.225266,1164.762695 238.440781,1140.406616 252.604813,1118.630249 
	C259.997009,1107.265137 269.622162,1097.351562 278.249573,1086.791382 
	C279.320984,1085.479980 280.459167,1084.223267 280.831482,1082.033447 
	C280.149689,1082.280518 279.373688,1082.392822 278.799561,1082.794067 
	C250.629944,1102.485107 220.512833,1103.694824 189.436813,1091.411743 
	C162.240128,1080.661987 142.294357,1061.263306 127.279358,1036.504761 
	C127.139023,1036.273315 127.261978,1035.882080 127.261978,1034.355225 
	C129.003769,1035.807617 130.373642,1036.655518 131.368073,1037.823120 
	C148.020676,1057.376709 168.189423,1071.569092 193.424866,1077.526245 
	C214.293167,1082.452393 234.450851,1080.831787 253.031052,1068.956177 
	C268.358002,1059.159912 274.480438,1044.132324 276.992004,1027.027710 
	C277.136169,1026.046143 277.261444,1025.061523 277.474091,1023.502075 
	C279.596619,1023.502075 281.688873,1023.435669 283.775909,1023.512146 
	C307.747986,1024.391113 331.716888,1025.368774 355.693146,1026.109741 
	C359.618683,1026.230957 361.858643,1027.534424 364.000275,1030.970459 
	C373.454041,1046.137939 383.735962,1060.710693 398.451019,1071.412476 
	C404.442841,1075.770142 410.848083,1080.456055 418.572174,1076.582397 
	C426.158356,1072.777954 427.025269,1064.900879 426.979889,1057.503052 
	C426.930115,1049.390259 425.747620,1041.289917 425.352264,1033.169678 
	C425.259766,1031.269897 425.964813,1029.076904 426.972504,1027.428101 
	C429.450623,1023.373413 432.318268,1019.556885 435.412567,1015.091492 
	C440.014587,1029.080933 441.255157,1042.758545 439.977600,1056.836548 
	C437.416840,1085.054443 420.874481,1106.505981 395.488708,1114.491577 
	C380.163666,1119.312500 364.964905,1118.454590 349.676270,1114.574707 
	C341.936554,1112.610352 334.238983,1110.250610 326.372437,1109.060669 
	C306.519714,1106.057495 289.673279,1112.847290 275.173370,1126.188599 
	C255.958954,1143.867676 246.564438,1166.732788 241.011337,1191.536499 
	C236.776047,1210.454102 236.987289,1229.537476 239.350479,1248.444580 
z"/>
<path fill="#42B2CE" opacity="1.000000" stroke="none" 
	d="
M355.894348,1163.060669 
	C358.678192,1164.584106 361.167419,1165.895630 363.456024,1167.494385 
	C366.655884,1169.729736 369.622742,1170.521606 372.836426,1167.481201 
	C396.662842,1144.939697 420.477997,1122.385864 444.429291,1099.977539 
	C447.872498,1096.756104 449.315582,1093.398315 449.271088,1088.640015 
	C449.056152,1065.647339 449.226868,1042.651489 449.153961,1019.656982 
	C449.141418,1015.702759 450.117279,1012.534485 454.809448,1010.110901 
	C455.326813,1018.314270 456.204834,1026.021606 456.234253,1033.732178 
	C456.397705,1076.555786 456.390717,1119.380127 456.321320,1162.204102 
	C456.315186,1166.003052 457.000183,1168.687134 460.639526,1170.787354 
	C465.965424,1173.860596 468.069733,1180.859375 466.273010,1187.004028 
	C464.544708,1192.914673 459.129852,1197.081909 452.935638,1197.268433 
	C446.947632,1197.448975 440.717285,1193.233032 438.965271,1187.815186 
	C436.893890,1181.409790 438.647125,1173.759521 443.948456,1170.867065 
	C448.312469,1168.485962 449.014343,1165.400024 448.771759,1161.116333 
	C448.489594,1156.134033 448.627625,1151.128540 448.524994,1146.134277 
	C448.516571,1145.724243 448.060974,1145.323486 447.438599,1144.306152 
	C445.941864,1145.345703 444.471558,1146.218140 443.169220,1147.293823 
	C427.317322,1160.389160 427.324799,1160.396973 427.331451,1180.712891 
	C427.334808,1191.043945 427.116608,1201.383179 427.498474,1211.700073 
	C427.586121,1214.067993 429.170929,1217.051636 431.032654,1218.557617 
	C436.739960,1223.174194 439.243011,1229.891602 436.948669,1236.699097 
	C435.067627,1242.280273 429.723328,1245.913208 423.443939,1245.879517 
	C416.847198,1245.844116 411.339417,1241.760010 409.204926,1235.320679 
	C407.263397,1229.463501 409.855896,1222.071655 415.796295,1218.471069 
	C419.294281,1216.350830 420.398743,1213.747070 420.380402,1209.897095 
	C420.306580,1194.401367 420.271179,1178.901245 420.624237,1163.411865 
	C420.684723,1160.759277 422.083557,1157.546265 423.937347,1155.630737 
	C430.879547,1148.457397 438.469177,1141.908447 445.363647,1134.693115 
	C447.411041,1132.550415 448.656067,1129.078979 449.054901,1126.056152 
	C449.637543,1121.640503 449.228241,1117.075073 449.014587,1112.584473 
	C448.950439,1111.236084 448.129700,1109.923828 447.655548,1108.594971 
	C446.353973,1109.147949 444.784821,1109.405884 443.795258,1110.302979 
	C438.244659,1115.335205 432.820038,1120.506958 427.378662,1125.658813 
	C420.122345,1132.528809 413.049744,1139.604370 405.578369,1146.230957 
	C401.961700,1149.438599 400.721832,1153.067261 400.850464,1157.644287 
	C401.093719,1166.301025 401.020752,1174.968140 401.356720,1183.620117 
	C401.519012,1187.798828 400.343719,1191.077148 397.025452,1193.650391 
	C395.320892,1194.972168 393.844513,1196.586182 392.155762,1197.930908 
	C387.901245,1201.318481 384.916321,1204.367676 388.041840,1210.822510 
	C391.164093,1217.270752 388.077148,1224.514526 381.762146,1227.935669 
	C377.718445,1230.126099 376.382629,1232.927856 376.808319,1237.190918 
	C377.022461,1239.335815 376.353485,1241.676147 376.977631,1243.644653 
	C377.693756,1245.902954 378.914764,1248.595459 380.762939,1249.794800 
	C387.619324,1254.244263 390.415375,1262.839478 386.685516,1269.762329 
	C383.011566,1276.581177 374.856262,1279.244507 367.745239,1275.947632 
	C360.438782,1272.560181 357.093445,1264.524414 360.362152,1257.124146 
	C361.449738,1254.661865 363.371948,1252.027466 365.634338,1250.744995 
	C369.530060,1248.536377 370.187927,1245.359741 370.117462,1241.577759 
	C370.067871,1238.917358 370.232147,1236.164429 369.592346,1233.631958 
	C369.091644,1231.649902 367.919983,1229.360474 366.323425,1228.218384 
	C360.657349,1224.165649 357.990845,1217.696167 359.921906,1211.259888 
	C362.019958,1204.266968 366.898407,1200.899048 374.391968,1200.482666 
	C376.775635,1200.350098 379.251984,1199.046387 381.388306,1197.777466 
	C392.437256,1191.215088 395.744659,1181.283081 393.744110,1169.003540 
	C393.312164,1166.352051 393.681030,1163.570190 393.681030,1160.848389 
	C393.153290,1160.616943 392.625549,1160.385620 392.097839,1160.154297 
	C390.331451,1161.440918 388.413208,1162.565552 386.830414,1164.048218 
	C383.549164,1167.122192 380.488831,1170.430664 377.245422,1173.546753 
	C376.192780,1174.558105 374.795044,1176.065308 373.653564,1175.982788 
	C368.400940,1175.603516 366.763458,1178.453979 365.278259,1182.940918 
	C362.978790,1189.887817 355.372589,1193.051392 348.058472,1190.983032 
	C341.430542,1189.108521 336.880463,1182.112183 337.779572,1175.177734 
	C338.778992,1167.470093 344.442139,1162.446655 352.043060,1162.580078 
	C353.200745,1162.600586 354.354584,1162.839233 355.894348,1163.060669 
M378.944519,1209.322388 
	C373.839722,1206.914917 369.569794,1207.741089 367.315796,1211.728394 
	C365.194061,1215.481689 366.233521,1218.972046 369.307465,1221.457764 
	C372.432129,1223.984375 376.084625,1223.927124 379.270294,1221.214844 
	C382.687012,1218.305786 382.713226,1214.112061 378.944519,1209.322388 
M424.852386,1223.724121 
	C420.270935,1223.125854 417.044617,1224.803467 416.024200,1229.472290 
	C415.103058,1233.686768 417.665955,1238.052979 421.451202,1238.768921 
	C425.479675,1239.530884 428.639282,1238.068359 430.322174,1234.182617 
	C432.183014,1229.886108 430.528595,1226.415771 424.852386,1223.724121 
M352.471344,1184.698853 
	C353.424225,1184.446167 354.441498,1184.330200 355.318817,1183.917114 
	C359.233246,1182.074097 360.930115,1178.284302 359.622620,1174.510986 
	C358.425507,1171.056396 353.819275,1168.543823 350.403717,1169.482300 
	C346.564545,1170.537109 344.468201,1174.030151 344.999268,1178.346191 
	C345.492004,1182.350708 348.337463,1183.764771 352.471344,1184.698853 
M449.357849,1189.622192 
	C453.188843,1190.722900 457.116821,1190.606079 458.807465,1186.657715 
	C459.818329,1184.296997 459.854370,1180.417969 458.515564,1178.462891 
	C457.187775,1176.523926 453.503510,1175.169922 451.007050,1175.381226 
	C448.961731,1175.554443 446.318176,1178.048340 445.409912,1180.149170 
	C443.899200,1183.643433 445.421600,1186.942993 449.357849,1189.622192 
M366.357910,1260.221802 
	C365.771606,1267.068848 370.123749,1271.916748 375.401764,1270.240723 
	C378.896301,1269.131104 380.934418,1266.864258 381.098541,1263.009644 
	C381.265839,1259.079468 379.220154,1256.623291 375.818390,1255.524048 
	C371.834198,1254.236816 368.719788,1255.854614 366.357910,1260.221802 
z"/>
<path fill="#0C2C54" opacity="1.000000" stroke="none" 
	d="
M1226.084961,1022.887695 
	C1230.321411,1039.434204 1228.594238,1054.508057 1218.534668,1068.342896 
	C1204.103271,1088.190186 1172.241333,1087.992798 1160.931152,1068.863403 
	C1160.931152,1076.907227 1160.931152,1083.544312 1160.931152,1090.181396 
	C1160.931152,1096.999634 1160.931152,1103.817871 1160.931152,1111.010254 
	C1153.629395,1111.010254 1146.439453,1111.010254 1139.011230,1111.010254 
	C1139.011230,1072.781860 1139.011230,1034.552246 1139.011230,995.973022 
	C1145.769897,995.973022 1152.474365,995.973022 1159.636230,995.973022 
	C1159.636230,999.492249 1159.636230,1003.040344 1159.636230,1007.724182 
	C1166.442871,999.707336 1173.954956,994.840393 1183.457764,993.962952 
	C1204.078857,992.058838 1218.614258,1001.894043 1226.084961,1022.887695 
M1197.151733,1058.721680 
	C1205.876587,1050.288330 1207.446655,1040.002563 1204.369385,1028.838501 
	C1201.305542,1017.723083 1192.120972,1011.758118 1180.522827,1012.766602 
	C1170.128296,1013.670471 1162.409790,1021.281433 1161.104004,1032.296509 
	C1160.676270,1035.906372 1160.664917,1039.635010 1161.022217,1043.254272 
	C1161.847046,1051.609985 1164.813599,1059.043335 1173.126709,1062.498779 
	C1181.387939,1065.932739 1189.419312,1064.895142 1197.151733,1058.721680 
z"/>
<path fill="#70BB51" opacity="1.000000" stroke="none" 
	d="
M607.430908,1101.453369 
	C608.595215,1104.045288 609.584290,1106.303955 610.926575,1109.369507 
	C603.068726,1109.369507 595.820007,1109.510742 588.588989,1109.215576 
	C587.519226,1109.171875 586.169495,1107.228149 585.573730,1105.886230 
	C583.279480,1100.719238 581.445435,1095.338989 578.975464,1090.264282 
	C578.254211,1088.782471 576.004761,1087.143799 574.431763,1087.119263 
	C561.281250,1086.914307 548.124817,1087.134766 534.970947,1087.069946 
	C531.690002,1087.053833 529.848511,1088.062378 528.811890,1091.409424 
	C527.240479,1096.483032 525.230530,1101.443481 523.046082,1106.289307 
	C522.458496,1107.592651 520.604431,1109.091309 519.264832,1109.158081 
	C513.134888,1109.463745 506.981049,1109.292480 499.748047,1109.292480 
	C503.324066,1100.668823 506.485718,1092.911499 509.749786,1085.197632 
	C520.642517,1059.454712 531.632507,1033.752686 542.416809,1007.964539 
	C543.893127,1004.434143 545.588013,1002.554626 549.698059,1003.005737 
	C553.316956,1003.403015 557.043396,1003.355774 560.670776,1002.991577 
	C564.387268,1002.618591 565.840759,1004.322449 567.191589,1007.505676 
	C580.450928,1038.750854 593.876892,1069.925415 607.430908,1101.453369 
M553.505615,1069.170776 
	C559.223511,1069.170776 564.941345,1069.170776 571.544556,1069.170776 
	C565.749390,1055.274902 560.407593,1042.466187 554.595764,1028.530518 
	C548.873291,1042.640259 543.626953,1055.575806 538.113403,1069.170532 
	C543.556580,1069.170532 548.033569,1069.170532 553.505615,1069.170776 
z"/>
<path fill="#09437C" opacity="1.000000" stroke="none" 
	d="
M478.968262,932.015381 
	C490.480682,920.142212 501.032715,907.980042 509.325134,893.976013 
	C510.801971,891.481934 510.866882,889.688354 509.485321,887.210083 
	C504.347351,877.993286 500.516846,868.267883 499.512146,857.659180 
	C499.008636,852.342529 498.312286,846.368896 503.596252,843.160889 
	C508.969055,839.898987 513.654541,843.853943 517.478882,847.113525 
	C541.255981,867.379578 561.380127,890.663574 575.208984,918.936279 
	C576.723145,922.031860 577.784729,925.451477 578.447876,928.839905 
	C579.957397,936.553406 575.676575,940.827393 567.966309,939.372009 
	C555.984985,937.110413 546.266052,930.354187 536.917908,923.067566 
	C527.482666,915.712952 526.984436,914.796448 517.121277,921.895447 
	C507.627533,928.728455 499.386414,937.343201 490.841370,945.435364 
	C486.652466,949.402222 483.022430,953.959229 478.319824,959.154785 
	C476.718719,951.875305 474.822205,945.710083 474.270172,939.426819 
	C474.073608,937.188965 477.138611,934.664551 478.968262,932.015381 
z"/>
<path fill="#0C2C54" opacity="1.000000" stroke="none" 
	d="
M912.643799,1035.850708 
	C904.861206,1055.362305 897.522217,1074.643921 889.532227,1093.651611 
	C881.169617,1113.546021 859.823486,1119.744873 842.032898,1107.531616 
	C844.005249,1102.116943 846.023132,1096.577271 848.069702,1090.958862 
	C851.455933,1092.091553 854.610352,1093.620361 857.926453,1094.164673 
	C866.888000,1095.636108 874.021606,1086.589600 870.588074,1078.280396 
	C859.984497,1052.619385 849.312317,1026.986694 838.679749,1001.337646 
	C838.003784,999.706970 837.438538,998.030457 836.601440,995.783875 
	C843.951599,995.783875 850.733704,995.611267 857.490112,995.950562 
	C858.640564,996.008362 860.129700,998.081055 860.703674,999.524597 
	C867.649536,1016.992432 874.448608,1034.518677 881.303284,1052.022949 
	C881.758423,1053.185181 882.354675,1054.292358 883.220581,1056.141113 
	C888.684875,1041.742310 893.858093,1028.139771 899.006836,1014.528076 
	C901.007080,1009.239868 902.812561,1003.871521 905.020813,998.673035 
	C905.567383,997.386230 907.303589,995.805115 908.553772,995.750427 
	C915.184204,995.460571 921.833984,995.614258 929.109924,995.614258 
	C923.537231,1009.243530 918.169250,1022.371948 912.643799,1035.850708 
z"/>
<path fill="#0C2C54" opacity="1.000000" stroke="none" 
	d="
M1116.703491,1043.000244 
	C1116.668091,1055.486084 1116.644775,1067.471924 1116.601807,1079.457886 
	C1116.600708,1079.761719 1116.384399,1080.064819 1116.151611,1080.674072 
	C1109.854492,1080.674072 1103.446289,1080.674072 1096.566772,1080.674072 
	C1096.385132,1077.957397 1096.200806,1075.202148 1095.984253,1071.962769 
	C1095.175049,1072.505615 1094.499512,1072.820312 1094.000488,1073.313599 
	C1082.397583,1084.784058 1068.696777,1085.740112 1054.248413,1080.560181 
	C1044.129272,1076.932129 1038.531494,1067.186646 1038.978760,1056.034180 
	C1039.424561,1044.915405 1045.834961,1035.941528 1056.451538,1033.132324 
	C1062.977905,1031.405396 1069.834595,1030.686157 1076.593384,1030.149292 
	C1082.680542,1029.665894 1088.836304,1030.047363 1094.935791,1030.047363 
	C1095.203491,1018.632446 1090.425171,1013.384705 1079.746704,1012.820312 
	C1069.947144,1012.302307 1061.056030,1015.290833 1052.103394,1020.176636 
	C1049.540649,1015.195557 1046.999878,1010.257263 1044.199219,1004.813660 
	C1057.230469,996.946655 1071.080200,993.060913 1086.064941,994.548096 
	C1106.163574,996.542664 1115.065186,1005.944092 1116.484009,1026.024658 
	C1116.870483,1031.494629 1116.653198,1037.007324 1116.703491,1043.000244 
M1070.175171,1066.904541 
	C1072.163818,1066.987061 1074.155029,1067.179688 1076.140869,1067.134521 
	C1090.496338,1066.808105 1097.147217,1058.623413 1094.518188,1043.714233 
	C1086.713501,1044.080688 1078.759521,1044.047119 1070.912964,1044.948853 
	C1064.395264,1045.698242 1060.947998,1049.725220 1060.601074,1055.227783 
	C1060.228638,1061.132690 1062.661987,1064.341187 1070.175171,1066.904541 
z"/>
<path fill="#F39A1B" opacity="1.000000" stroke="none" 
	d="
M1654.857910,1066.988403 
	C1654.849121,1070.318726 1654.612793,1073.174316 1654.889282,1075.979492 
	C1655.285034,1079.995483 1654.034058,1081.757202 1649.709473,1081.497559 
	C1644.416870,1081.179565 1639.090698,1081.421753 1633.273682,1081.421753 
	C1633.273682,1052.805664 1633.273682,1024.575317 1633.273682,995.542297 
	C1639.734863,995.542297 1645.990723,995.428589 1652.231079,995.687195 
	C1653.004883,995.719238 1654.032837,997.642639 1654.345703,998.845032 
	C1654.783203,1000.526184 1654.659302,1002.353516 1654.857788,1005.363586 
	C1657.622803,1003.257080 1659.503662,1001.845825 1661.361694,1000.405090 
	C1673.286987,991.157471 1692.084595,991.494812 1703.574585,1001.191711 
	C1708.987183,1005.759705 1712.057007,1012.023804 1712.224487,1018.674133 
	C1712.743286,1039.285645 1712.414062,1059.918457 1712.414062,1080.970093 
	C1705.486206,1080.970093 1698.442749,1080.970093 1690.890137,1080.970093 
	C1690.801147,1079.156738 1690.647339,1077.385864 1690.637573,1075.614258 
	C1690.556152,1060.782227 1690.603027,1045.948975 1690.401855,1031.118774 
	C1690.270386,1021.427307 1687.124023,1016.479370 1680.140625,1014.072144 
	C1668.199341,1009.955994 1655.663818,1018.390442 1655.313477,1031.003540 
	C1654.984863,1042.827881 1654.997192,1054.661621 1654.857910,1066.988403 
z"/>
<path fill="#0C2C54" opacity="1.000000" stroke="none" 
	d="
M1475.402588,1013.974915 
	C1470.365601,1015.790344 1465.739990,1017.528809 1460.824219,1019.376343 
	C1458.445435,1014.623718 1456.011108,1009.760315 1453.164062,1004.072266 
	C1457.484863,1002.064148 1461.631104,999.730408 1466.049561,998.165100 
	C1476.564453,994.440002 1487.401855,993.251587 1498.513062,994.962158 
	C1513.585571,997.282410 1523.518433,1006.758606 1524.904297,1021.908752 
	C1525.993774,1033.816528 1525.743652,1045.851685 1525.957886,1057.832642 
	C1526.091675,1065.310425 1525.982910,1072.792603 1525.982910,1080.600586 
	C1519.265747,1080.600586 1512.707397,1080.600586 1505.857422,1080.600586 
	C1505.684814,1077.742920 1505.517212,1074.966187 1505.311890,1071.565063 
	C1503.923950,1072.647095 1502.903687,1073.352173 1501.985718,1074.171875 
	C1490.237549,1084.662720 1476.881836,1085.636475 1462.833130,1080.200684 
	C1452.183838,1076.080444 1448.180664,1067.216919 1448.017822,1056.377686 
	C1447.858276,1045.746094 1453.005493,1037.520142 1463.063599,1033.952759 
	C1469.082153,1031.818115 1475.620117,1030.742920 1482.012085,1030.175049 
	C1489.117188,1029.543823 1496.321411,1030.030640 1503.418457,1030.030640 
	C1505.267578,1021.666870 1500.615845,1014.248108 1492.102661,1013.198608 
	C1486.782715,1012.542847 1481.250732,1013.606079 1475.402588,1013.974915 
M1488.561646,1043.903809 
	C1484.012207,1044.613281 1479.097412,1044.466431 1474.992432,1046.217529 
	C1467.393188,1049.459106 1466.696045,1060.632568 1473.742188,1064.471313 
	C1481.667725,1068.789307 1489.973999,1067.963013 1497.477417,1063.257080 
	C1504.568237,1058.809937 1504.335693,1051.504639 1503.871826,1043.905518 
	C1498.822876,1043.905518 1494.182373,1043.905518 1488.561646,1043.903809 
z"/>
<path fill="#0C2C54" opacity="1.000000" stroke="none" 
	d="
M942.324585,1065.991699 
	C942.325378,1042.360107 942.325378,1019.227051 942.325378,995.840942 
	C949.305420,995.840942 956.072327,995.840942 963.336548,995.840942 
	C963.336548,999.457581 963.336548,1003.052246 963.336548,1007.428101 
	C964.497986,1006.580200 965.084778,1006.334473 965.401184,1005.894348 
	C974.547485,993.174561 991.010010,991.753662 1002.830750,995.420959 
	C1014.446106,999.024658 1021.774475,1008.948792 1022.041260,1022.432312 
	C1022.423584,1041.752808 1022.138733,1061.086548 1022.138733,1080.858643 
	C1015.042664,1080.858643 1007.843140,1080.858643 1000.223938,1080.858643 
	C1000.223938,1070.214722 1000.228455,1059.580811 1000.222168,1048.946899 
	C1000.218567,1042.947144 1000.237427,1036.946899 1000.175110,1030.947632 
	C1000.062927,1020.145081 995.591003,1014.279175 986.633118,1013.082703 
	C976.537659,1011.734253 967.672241,1017.246887 965.102783,1026.791748 
	C964.336487,1029.638062 964.182251,1032.713257 964.164429,1035.686157 
	C964.074890,1050.659424 964.123230,1065.633423 964.123230,1080.863525 
	C956.930359,1080.863525 949.852661,1080.863525 942.323730,1080.863525 
	C942.323730,1076.027100 942.323730,1071.258667 942.324585,1065.991699 
z"/>
<path fill="#33B4D8" opacity="1.000000" stroke="none" 
	d="
M338.658264,966.147156 
	C341.608307,978.454834 344.561279,990.312805 347.649811,1002.715210 
	C325.560608,1004.667236 302.803772,1006.678345 279.968597,1008.696289 
	C282.969513,963.220642 317.633026,933.516052 363.870941,942.473572 
	C381.830200,945.952698 397.274445,954.495544 409.859436,967.931152 
	C410.970520,969.117310 411.933716,970.442017 413.514984,972.373291 
	C408.832764,974.432068 404.783813,976.826599 400.413818,977.849731 
	C398.504669,978.296692 395.582428,976.354736 393.730988,974.779724 
	C384.952667,967.311951 376.066162,960.005493 365.127960,955.927673 
	C361.136292,954.439575 356.827515,953.297180 352.601440,953.048096 
	C343.928589,952.536987 339.510223,956.860229 338.658264,966.147156 
z"/>
<path fill="#0C2C54" opacity="1.000000" stroke="none" 
	d="
M1389.090454,1018.948425 
	C1391.297729,1021.567566 1393.126709,1024.629639 1395.796509,1025.844727 
	C1400.128052,1027.816162 1405.045410,1028.463257 1409.649780,1029.882568 
	C1413.771973,1031.153198 1417.925049,1032.443481 1421.854248,1034.196411 
	C1431.087402,1038.315308 1435.936768,1045.599854 1436.252197,1055.727051 
	C1436.581299,1066.291870 1431.711304,1074.033936 1422.550415,1078.857666 
	C1411.331055,1084.765259 1399.414429,1084.216431 1387.468140,1081.544189 
	C1378.909302,1079.629395 1371.151123,1076.036621 1364.434814,1069.842651 
	C1367.706787,1065.101929 1370.879517,1060.504883 1373.525146,1056.671631 
	C1381.428833,1059.723145 1388.796631,1063.045044 1396.473999,1065.323853 
	C1400.121704,1066.406494 1404.411255,1065.894409 1408.315674,1065.383789 
	C1412.135620,1064.884277 1415.359985,1062.763306 1415.665283,1058.414429 
	C1415.950195,1054.352783 1413.315308,1051.855835 1409.832275,1050.598267 
	C1404.994873,1048.851562 1399.986328,1047.583862 1395.078735,1046.024536 
	C1390.646729,1044.616455 1386.060425,1043.501465 1381.874268,1041.546265 
	C1365.576416,1033.933472 1363.547485,1011.347412 1378.145996,1000.711487 
	C1388.994385,992.807495 1401.196289,992.927002 1413.575195,995.518188 
	C1421.047241,997.082214 1428.200439,999.670837 1434.520264,1004.670044 
	C1431.238892,1009.659546 1428.161499,1014.339111 1424.876709,1019.333862 
	C1417.449097,1014.561584 1409.671631,1011.414001 1400.998291,1011.182983 
	C1394.190308,1011.001587 1390.876831,1013.144165 1389.090454,1018.948425 
z"/>
<path fill="#0C2C54" opacity="1.000000" stroke="none" 
	d="
M1267.130493,1045.779785 
	C1262.830688,1044.284424 1258.739746,1043.258423 1255.051147,1041.423462 
	C1239.263306,1033.568970 1237.291626,1011.925537 1251.381592,1001.210815 
	C1262.537842,992.726929 1275.328979,992.559143 1288.106323,995.636597 
	C1295.195801,997.344116 1301.825439,1000.961365 1309.250610,1003.955017 
	C1305.318237,1009.891174 1302.258057,1014.510559 1299.769043,1018.267883 
	C1292.172974,1015.868713 1285.232666,1013.210205 1278.055908,1011.616333 
	C1274.713745,1010.874023 1270.673584,1011.569580 1267.409058,1012.816101 
	C1265.425171,1013.573669 1263.222168,1016.578003 1263.128296,1018.663391 
	C1263.036743,1020.703003 1265.023315,1023.828979 1266.935059,1024.761353 
	C1271.056030,1026.771362 1275.737061,1027.611206 1280.147217,1029.056519 
	C1285.661865,1030.863525 1291.427246,1032.213135 1296.571411,1034.785889 
	C1312.957031,1042.980957 1314.791260,1065.242798 1300.017456,1076.156738 
	C1288.713135,1084.507446 1275.797119,1084.567261 1262.708008,1081.979858 
	C1253.627075,1080.184570 1245.246460,1076.672607 1238.019775,1070.058472 
	C1241.384644,1065.306519 1244.697876,1060.627319 1247.528076,1056.630493 
	C1255.168457,1059.683105 1262.283203,1063.195923 1269.795654,1065.266113 
	C1274.043579,1066.436646 1279.132324,1065.955811 1283.477783,1064.821655 
	C1285.896240,1064.190308 1288.973633,1060.812012 1289.174194,1058.452393 
	C1289.371338,1056.132935 1286.850464,1052.350464 1284.562256,1051.298584 
	C1279.187866,1048.828125 1273.240112,1047.604980 1267.130493,1045.779785 
z"/>
<path fill="#0C2C54" opacity="1.000000" stroke="none" 
	d="
M829.362671,1060.323975 
	C827.261414,1071.589233 820.309082,1078.141479 810.186340,1081.035522 
	C791.270935,1086.443726 774.105896,1082.403931 758.177734,1070.172119 
	C761.713684,1065.155518 765.010620,1060.478027 767.748169,1056.594116 
	C775.483398,1059.702393 782.645142,1063.079956 790.138306,1065.375488 
	C793.768066,1066.487427 798.078735,1065.993652 801.972778,1065.450439 
	C805.790405,1064.917847 808.790405,1062.707886 809.131958,1058.306030 
	C809.458618,1054.095581 806.868896,1051.730835 803.424316,1050.455811 
	C798.758179,1048.728516 793.925232,1047.446167 789.146362,1046.031860 
	C786.436218,1045.229736 783.651550,1044.666626 780.968567,1043.787842 
	C768.978943,1039.861084 763.104553,1032.650269 762.756775,1021.580200 
	C762.396912,1010.125427 768.117859,1000.891785 779.343750,996.872681 
	C796.808472,990.620056 812.896362,994.923706 828.396118,1004.212585 
	C824.968567,1009.447815 821.887268,1014.154053 819.166382,1018.309937 
	C812.046997,1015.969666 805.293213,1013.357178 798.319275,1011.638733 
	C795.277588,1010.889282 791.503174,1011.275330 788.587952,1012.450989 
	C786.377014,1013.342651 783.776794,1016.200317 783.599304,1018.367371 
	C783.426208,1020.479919 785.606384,1023.720337 787.650940,1024.871948 
	C791.192749,1026.866821 795.431763,1027.617798 799.370300,1028.914917 
	C804.730957,1030.680298 810.288086,1032.019409 815.397888,1034.340576 
	C826.018250,1039.165283 830.664062,1048.074951 829.362671,1060.323975 
z"/>
<path fill="#7FC254" opacity="1.000000" stroke="none" 
	d="
M430.516113,959.991577 
	C439.117126,938.481140 447.570587,917.324402 456.024048,896.167603 
	C456.407379,896.063477 456.790710,895.959412 457.174042,895.855286 
	C458.440125,900.811768 459.760773,905.755127 460.961487,910.727356 
	C463.958282,923.137085 466.893250,935.561707 469.866608,947.977112 
	C473.608185,963.600281 477.363831,979.220093 481.107941,994.842651 
	C481.184998,995.164246 481.088287,995.572571 481.252777,995.821106 
	C482.540283,997.764343 483.871857,999.678406 485.189819,1001.601440 
	C486.383698,999.725464 488.015015,997.995483 488.698059,995.949036 
	C492.215515,985.410156 495.328522,974.733093 499.028687,964.261902 
	C499.561279,962.754639 502.531494,961.172302 504.340363,961.210205 
	C513.458130,961.401489 522.562317,962.169067 531.676575,962.628845 
	C536.165222,962.855286 540.668213,962.782288 545.159729,962.966919 
	C569.897644,963.983826 594.633362,965.052185 619.371094,966.072754 
	C628.007324,966.429077 636.651550,966.610718 645.284363,967.030823 
	C657.370483,967.618835 669.449341,968.355225 681.539795,969.868408 
	C672.818298,970.567871 664.103333,971.365479 655.374023,971.947388 
	C634.002869,973.371765 612.617493,974.588379 591.252502,976.096680 
	C575.034363,977.241577 558.838745,978.706421 542.633240,980.029846 
	C534.196228,980.718872 525.758972,981.404419 517.322693,982.102722 
	C513.807556,982.393738 511.963348,983.927490 510.883820,987.709778 
	C507.789886,998.549683 503.988312,1009.186890 500.497772,1019.914490 
	C496.974365,1030.742920 493.528198,1041.596680 489.976471,1052.415649 
	C487.365784,1060.367920 484.639618,1068.282471 481.964935,1076.213745 
	C481.478546,1076.224487 480.992126,1076.235229 480.505737,1076.245972 
	C479.335266,1072.083008 478.052490,1067.947998 477.012970,1063.752563 
	C471.159119,1040.127197 465.330597,1016.495605 459.564697,992.848755 
	C457.255219,983.377197 455.182831,973.847656 452.847717,964.382690 
	C452.553223,963.188965 451.312683,962.228638 450.510498,961.160156 
	C449.564331,961.976013 448.159760,962.605164 447.740326,963.635437 
	C440.755035,980.793030 433.709473,997.930664 427.096893,1015.233093 
	C424.563690,1021.861511 422.291504,1023.631409 414.798370,1022.929260 
	C406.703766,1022.170776 398.586365,1021.532288 390.464325,1021.214111 
	C368.364624,1020.348511 346.247620,1019.887085 324.156128,1018.863464 
	C308.173950,1018.122925 292.221588,1016.739563 276.227631,1015.188416 
	C296.022339,1013.452454 315.827240,1011.824280 335.609131,1009.952759 
	C359.374268,1007.704346 383.120636,1005.256714 406.873047,1002.874573 
	C410.873566,1002.473389 413.444641,1000.398743 415.022858,996.565247 
	C420.014313,984.440918 425.235992,972.411438 430.516113,959.991577 
M476.534149,1051.898804 
	C477.787201,1057.725586 479.040222,1063.552490 480.293243,1069.379272 
	C480.909698,1069.381226 481.526154,1069.383057 482.142609,1069.384888 
	C482.873627,1067.669067 483.739471,1065.997192 484.315369,1064.230835 
	C492.500305,1039.125977 500.629059,1014.002991 508.810272,988.897034 
	C511.651306,980.178650 510.231598,981.718079 519.428833,980.409546 
	C530.080261,978.894104 540.851318,978.153931 551.589844,977.329285 
	C574.906555,975.538696 598.238159,973.942444 621.557434,972.184326 
	C626.279541,971.828308 630.974304,971.108398 635.681641,970.556213 
	C635.029907,969.277893 634.460449,968.915527 633.874817,968.887146 
	C619.445984,968.187866 605.017273,967.479675 590.584534,966.868103 
	C579.294495,966.389709 567.998779,966.046387 556.706055,965.629944 
	C539.275879,964.987183 521.848572,964.211243 504.412659,963.870361 
	C502.646149,963.835876 499.807648,966.045349 499.205658,967.807556 
	C495.990143,977.220642 493.404572,986.846680 490.441162,996.349060 
	C488.969177,1001.069214 487.154358,1005.682434 485.494659,1010.343994 
	C484.803833,1010.280640 484.112976,1010.217285 483.422150,1010.153992 
	C474.656494,974.435242 465.890808,938.716553 457.125153,902.997864 
	C456.570526,902.989929 456.015930,902.982056 455.461304,902.974121 
	C454.615387,904.669006 453.630798,906.309937 452.946655,908.067749 
	C449.334900,917.347900 445.999390,926.740479 442.195190,935.939880 
	C433.881134,956.045227 425.271698,976.028320 416.931580,996.123047 
	C413.785950,1003.702148 412.711334,1004.426392 404.414062,1004.889343 
	C395.479553,1005.388000 386.560608,1006.256714 377.654877,1007.161316 
	C359.693909,1008.985596 341.744507,1010.924500 323.795197,1012.861328 
	C319.936340,1013.277649 316.098145,1013.885681 312.250427,1014.405396 
	C312.302002,1014.860107 312.353577,1015.314880 312.405151,1015.769653 
	C313.658417,1015.927185 314.907440,1016.157471 316.165649,1016.230835 
	C327.595154,1016.897644 339.019562,1017.715454 350.458344,1018.146851 
	C372.880341,1018.992676 395.312897,1019.557739 417.735443,1020.391174 
	C421.804962,1020.542419 423.705139,1018.662964 425.105530,1015.156189 
	C432.621796,996.333984 440.251862,977.556946 447.929810,958.799988 
	C448.666534,957.000183 450.003540,955.446167 451.709290,952.757629 
	C460.117767,986.464905 468.181335,1018.789490 476.534149,1051.898804 
z"/>
<path fill="#F39A1B" opacity="1.000000" stroke="none" 
	d="
M1756.479736,1057.866699 
	C1759.842041,1066.102417 1765.868652,1062.264526 1772.001587,1061.500610 
	C1772.616333,1066.606689 1773.432129,1071.629883 1773.664062,1076.680054 
	C1773.714966,1077.787964 1771.906128,1079.476318 1770.582275,1080.072266 
	C1761.633301,1084.100586 1752.522217,1084.438110 1743.558105,1080.177856 
	C1738.731201,1077.883789 1735.995605,1073.669067 1735.042358,1068.507080 
	C1734.320190,1064.596313 1733.755859,1060.592773 1733.731934,1056.626709 
	C1733.541870,1025.160645 1733.495728,993.693604 1733.419922,962.226868 
	C1733.417480,961.239746 1733.570557,960.252258 1733.725708,958.352722 
	C1740.294434,958.352722 1746.873901,958.187195 1753.422607,958.561401 
	C1754.245605,958.608398 1755.525024,961.491638 1755.544678,963.073853 
	C1755.719727,977.223633 1755.569458,991.377075 1755.691895,1005.527893 
	C1755.841675,1022.834167 1756.161865,1040.139038 1756.479736,1057.866699 
z"/>
<path fill="#70BB51" opacity="1.000000" stroke="none" 
	d="
M630.983765,1003.756104 
	C635.063416,1003.755859 638.698547,1003.755859 642.737427,1003.755859 
	C642.737427,1038.637817 642.737427,1073.483765 642.737427,1108.629761 
	C635.971130,1108.629761 629.369080,1108.629761 622.295532,1108.629761 
	C622.295532,1073.842529 622.295532,1038.990845 622.295532,1003.756287 
	C624.988831,1003.756287 627.764038,1003.756287 630.983765,1003.756104 
z"/>
<path fill="#42B2CE" opacity="1.000000" stroke="none" 
	d="
M455.888824,827.400635 
	C458.144897,836.519165 455.974548,841.610291 448.913422,846.740540 
	C447.184113,847.997009 445.865204,850.983704 445.820496,853.204346 
	C445.528870,867.683105 445.385956,882.175903 445.724182,896.651733 
	C445.900696,904.205811 443.059631,910.479736 438.629242,916.700073 
	C438.629242,909.972351 438.418610,903.235535 438.710175,896.520508 
	C438.878418,892.645935 437.480621,889.996948 434.752411,887.397827 
	C427.401459,880.394531 420.400635,873.023438 413.041473,866.029175 
	C409.787659,862.936584 408.348175,859.649414 408.478088,855.077759 
	C408.785339,844.264832 408.376678,833.431946 408.669525,822.618225 
	C408.794250,818.011230 407.670898,815.087585 403.424438,812.548279 
	C396.156952,808.202576 395.007782,798.330750 400.260315,791.551880 
	C405.107391,785.296082 414.462952,784.263794 420.794189,789.285889 
	C428.175873,795.141296 427.899017,807.140137 419.664948,812.962891 
	C416.060974,815.511536 415.339386,818.229309 415.410400,822.123657 
	C415.601562,832.609253 415.354919,843.104919 415.675781,853.584534 
	C415.748260,855.952332 416.907593,858.707581 418.456024,860.527954 
	C422.543793,865.333557 427.071350,869.771973 431.526794,874.254333 
	C433.128540,875.865662 435.024323,877.184753 437.727692,879.413757 
	C438.153473,876.951477 438.614960,875.482788 438.627014,874.010437 
	C438.687073,866.685730 438.866791,859.346619 438.456696,852.043335 
	C438.344147,850.039124 436.804810,847.460632 435.123474,846.315918 
	C428.943726,842.108459 426.169769,836.824829 427.522949,830.325195 
	C428.835938,824.018555 433.206268,819.880432 439.745728,818.751892 
	C446.618134,817.565918 451.941589,820.321960 455.888824,827.400635 
M448.749481,838.070374 
	C450.772491,834.542969 451.020081,830.715393 448.064453,827.993652 
	C446.290649,826.360229 442.550049,824.980957 440.682617,825.784973 
	C438.075623,826.907410 435.278381,829.923645 434.669952,832.607239 
	C434.190369,834.722473 436.291504,838.359070 438.323700,839.889893 
	C441.434875,842.233459 445.245911,841.672791 448.749481,838.070374 
M405.039337,805.152527 
	C407.758209,808.910095 411.315491,810.105042 415.451813,807.921509 
	C418.882782,806.110352 420.343719,803.031250 419.354065,799.106750 
	C418.144287,794.309265 414.136200,791.910645 409.491791,793.131897 
	C404.977356,794.319092 403.235687,798.413940 405.039337,805.152527 
z"/>
<path fill="#42B2CE" opacity="1.000000" stroke="none" 
	d="
M404.025330,887.982849 
	C410.658752,894.322205 416.914764,900.552612 423.476135,906.442871 
	C426.485565,909.144470 427.624878,912.068970 427.522003,916.043823 
	C427.306580,924.363586 427.318787,932.698486 427.563538,941.017639 
	C427.730988,946.708740 425.379730,951.190857 421.368805,956.586609 
	C421.100494,951.202393 420.779327,947.002441 420.705750,942.798096 
	C420.565857,934.807007 420.835236,926.797424 420.360565,918.829712 
	C420.201477,916.159485 418.929321,912.975830 417.083893,911.080383 
	C405.818604,899.510193 394.333038,888.148682 382.707886,876.938538 
	C379.607574,873.948914 377.605713,870.957886 378.271759,866.542908 
	C378.800446,863.038208 377.691223,860.443665 374.194641,858.935486 
	C372.720001,858.299500 370.979340,857.235352 370.329498,855.895447 
	C364.502258,843.880127 351.805634,838.657532 343.815094,828.806946 
	C340.506927,824.728638 336.686615,822.284119 330.798309,821.987610 
	C322.378113,821.563660 317.255676,812.338623 319.497650,803.677795 
	C321.469177,796.061768 329.959564,791.451782 337.612549,793.842041 
	C345.969574,796.452209 350.683044,805.625244 346.651581,813.386353 
	C344.046112,818.402344 345.300293,821.070679 349.036224,824.266052 
	C354.708557,829.117554 360.059479,834.344849 366.996185,840.750977 
	C367.988159,839.027527 368.635712,837.209167 369.845673,835.917664 
	C375.807434,829.554321 385.535889,829.350891 391.121460,835.319763 
	C397.175354,841.789185 396.471497,852.675781 389.651917,858.048096 
	C383.994720,862.504700 383.691345,867.917603 388.832825,873.004089 
	C393.804688,877.922546 398.792114,882.825256 404.025330,887.982849 
M388.764252,847.234619 
	C389.458252,841.580811 384.060852,837.311157 379.440460,838.125305 
	C374.913391,838.922974 371.587646,843.288757 373.330627,847.684875 
	C374.325348,850.193726 377.065979,852.964111 379.582855,853.703979 
	C383.938965,854.984619 387.233032,852.478699 388.764252,847.234619 
M341.073792,805.333801 
	C339.511597,800.676270 335.767700,798.899841 331.682770,800.415588 
	C329.293518,801.302124 326.841797,804.471191 326.195404,807.057617 
	C325.089783,811.481689 328.742981,815.320374 333.101776,815.584534 
	C338.026093,815.882935 341.179962,812.204590 341.073792,805.333801 
z"/>
<path fill="#0C2C54" opacity="1.000000" stroke="none" 
	d="
M1327.216309,998.389526 
	C1328.085815,997.075134 1328.935425,995.514832 1329.839722,995.482544 
	C1335.957275,995.263916 1342.086548,995.368469 1348.613281,995.368469 
	C1348.613281,1023.954163 1348.613281,1052.338623 1348.613281,1080.953369 
	C1341.608398,1080.953369 1334.521484,1080.953369 1327.221924,1080.953369 
	C1327.221924,1053.425659 1327.221924,1026.138062 1327.216309,998.389526 
z"/>
<path fill="#0C2C54" opacity="1.000000" stroke="none" 
	d="
M1568.991455,1026.000000 
	C1568.991699,1044.459473 1568.991699,1062.418945 1568.991699,1080.702881 
	C1561.880249,1080.702881 1554.974609,1080.702881 1547.717041,1080.702881 
	C1547.717041,1052.455078 1547.717041,1024.201050 1547.717041,995.614136 
	C1554.541016,995.614136 1561.421387,995.614136 1568.991211,995.614136 
	C1568.991211,1005.645874 1568.991211,1015.572937 1568.991455,1026.000000 
z"/>
<path fill="#42B2CE" opacity="1.000000" stroke="none" 
	d="
M327.666992,880.332153 
	C326.140015,878.767456 324.583954,877.630310 323.628540,876.114563 
	C320.747070,871.543213 317.097504,870.037231 311.502869,870.582703 
	C302.807648,871.430420 296.593292,864.332031 297.089691,855.345886 
	C297.552246,846.973083 304.304077,840.895264 312.349457,841.609558 
	C321.139557,842.389954 328.483856,850.554016 325.850708,858.447205 
	C323.558258,865.319092 326.860931,868.430786 330.463531,873.038696 
	C337.943634,882.605957 346.962738,886.760986 358.925568,884.614990 
	C364.305908,883.649780 368.139801,885.843323 371.938324,889.856812 
	C382.928589,901.469666 394.312012,912.721069 405.811249,923.834839 
	C409.230377,927.139343 410.746399,930.519653 410.504517,935.235413 
	C410.172089,941.716553 410.361450,948.227783 410.438904,954.724792 
	C410.469788,957.313477 409.760986,958.711670 406.816040,958.813110 
	C403.897125,958.913757 403.013916,957.730103 403.009735,955.030273 
	C402.999634,948.536560 403.038300,942.029480 402.611481,935.557190 
	C402.463104,933.306702 401.570526,930.594116 400.053040,929.026611 
	C388.697784,917.296509 377.163574,905.736328 365.500977,894.311096 
	C364.024841,892.864990 361.539154,892.274231 359.408051,891.730103 
	C357.844482,891.330872 356.053833,891.415649 354.436462,891.697693 
	C343.193848,893.659119 334.310120,890.124390 327.666992,880.332153 
M318.964600,855.651550 
	C317.658295,850.303101 314.775543,848.090698 309.897095,848.918579 
	C305.590729,849.649414 303.693512,852.485901 303.891296,856.693909 
	C304.096008,861.048889 306.845764,863.232666 310.866455,863.774597 
	C315.187042,864.356995 318.135620,861.550903 318.964600,855.651550 
z"/>
<path fill="#09437C" opacity="1.000000" stroke="none" 
	d="
M392.327332,998.018555 
	C381.772980,999.102234 371.681183,1000.242004 361.566559,1001.118103 
	C360.101837,1001.244934 357.509308,1000.471802 357.162262,999.499756 
	C353.826141,990.155823 349.920319,980.860657 348.059479,971.189453 
	C346.296753,962.027893 351.528839,958.084351 359.828278,962.359680 
	C369.630524,967.409302 379.211914,973.448486 387.537415,980.626343 
	C394.174866,986.348999 399.930756,988.015930 407.530334,984.038818 
	C409.256836,983.135315 411.228943,982.701050 414.075684,981.705200 
	C412.027283,986.659058 410.508453,990.936646 408.442535,994.931274 
	C407.879456,996.020142 405.720551,996.592529 404.206543,996.819946 
	C400.425323,997.388062 396.593903,997.621887 392.327332,998.018555 
z"/>
<path fill="#09437C" opacity="1.000000" stroke="none" 
	d="
M397.274200,1027.958252 
	C402.733459,1028.175415 407.737061,1028.200195 412.691681,1028.705444 
	C414.067719,1028.845825 416.315979,1030.293335 416.436707,1031.340332 
	C417.514008,1040.683594 419.101135,1050.104614 418.756134,1059.436890 
	C418.410858,1068.776367 412.478241,1071.374268 404.841278,1065.898682 
	C399.103790,1061.784912 393.854462,1056.731812 389.251465,1051.357056 
	C382.923920,1043.968750 377.411957,1035.881714 371.550568,1028.094116 
	C371.793793,1027.673218 372.037018,1027.252441 372.280212,1026.831665 
	C380.453491,1027.203491 388.626770,1027.575317 397.274200,1027.958252 
z"/>
<path fill="#F39A1B" opacity="1.000000" stroke="none" 
	d="
M1593.164307,1057.140137 
	C1598.210693,1056.982544 1602.867310,1056.848022 1607.521851,1056.901489 
	C1611.442139,1056.946411 1613.793945,1058.973145 1613.966309,1062.981323 
	C1614.145020,1067.133911 1614.116089,1071.296021 1614.138306,1075.454224 
	C1614.141846,1076.104248 1614.114868,1076.864868 1613.796875,1077.389526 
	C1609.710693,1084.133911 1602.982422,1081.896973 1597.090942,1082.024170 
	C1593.137329,1082.109497 1589.657959,1080.319214 1589.342041,1075.848511 
	C1588.992432,1070.901611 1589.093262,1065.886719 1589.515747,1060.945679 
	C1589.628174,1059.628906 1591.636108,1058.473999 1593.164307,1057.140137 
z"/>
<path fill="#0C2C54" opacity="1.000000" stroke="none" 
	d="
M1569.775879,964.301636 
	C1569.776001,970.081482 1569.776001,975.396606 1569.776001,980.941528 
	C1562.067627,980.941528 1554.612305,980.941528 1546.829102,980.941528 
	C1546.829102,974.074402 1546.829102,967.200012 1546.829102,960.070312 
	C1554.288452,960.070312 1561.730103,960.070312 1569.561279,960.070312 
	C1569.632812,961.326965 1569.704224,962.581909 1569.775879,964.301636 
z"/>
<path fill="#0C2C54" opacity="1.000000" stroke="none" 
	d="
M1349.895508,973.889893 
	C1349.897827,976.511841 1349.897827,978.654236 1349.897827,981.058838 
	C1342.080688,981.058838 1334.507202,981.058838 1326.640381,981.058838 
	C1326.640381,974.132141 1326.640381,967.265503 1326.640381,960.142578 
	C1334.228760,960.142578 1341.805420,960.142578 1349.893311,960.142578 
	C1349.893311,964.575378 1349.893311,968.992859 1349.895508,973.889893 
z"/>
<path fill="#42B2CE" opacity="1.000000" stroke="none" 
	d="
M446.948639,987.925659 
	C445.773315,989.260071 444.828491,990.329102 443.883698,991.398193 
	C443.540283,991.217102 443.196869,991.036072 442.853455,990.854980 
	C444.704437,985.383484 446.555420,979.912048 448.671692,973.656311 
	C452.591705,980.467896 452.334930,982.032227 446.948639,987.925659 
z"/>
<path fill="#7FC254" opacity="1.000000" stroke="none" 
	d="
M779.004944,835.993286 
	C779.004944,835.993286 779.136658,835.972351 779.074829,835.984863 
	C779.013000,835.997437 779.004944,835.993286 779.004944,835.993286 
z"/>
<path fill="#7FC254" opacity="1.000000" stroke="none" 
	d="
M779.015869,835.995483 
	C779.018677,835.993469 778.915527,835.843140 778.915527,835.843140 
	C778.915527,835.843140 778.882812,836.049622 778.943848,836.021484 
	C779.004944,835.993286 779.013000,835.997437 779.015869,835.995483 
z"/>
<path fill="#FFFFFF" opacity="1.000000" stroke="none" 
	d="
M379.242188,1209.586670 
	C382.713226,1214.112061 382.687012,1218.305786 379.270294,1221.214844 
	C376.084625,1223.927124 372.432129,1223.984375 369.307465,1221.457764 
	C366.233521,1218.972046 365.194061,1215.481689 367.315796,1211.728394 
	C369.569794,1207.741089 373.839722,1206.914917 379.242188,1209.586670 
z"/>
<path fill="#FFFFFF" opacity="1.000000" stroke="none" 
	d="
M425.214722,1223.814697 
	C430.528595,1226.415771 432.183014,1229.886108 430.322174,1234.182617 
	C428.639282,1238.068359 425.479675,1239.530884 421.451202,1238.768921 
	C417.665955,1238.052979 415.103058,1233.686768 416.024200,1229.472290 
	C417.044617,1224.803467 420.270935,1223.125854 425.214722,1223.814697 
z"/>
<path fill="#FFFFFF" opacity="1.000000" stroke="none" 
	d="
M352.099548,1184.664185 
	C348.337463,1183.764771 345.492004,1182.350708 344.999268,1178.346191 
	C344.468201,1174.030151 346.564545,1170.537109 350.403717,1169.482300 
	C353.819275,1168.543823 358.425507,1171.056396 359.622620,1174.510986 
	C360.930115,1178.284302 359.233246,1182.074097 355.318817,1183.917114 
	C354.441498,1184.330200 353.424225,1184.446167 352.099548,1184.664185 
z"/>
<path fill="#FFFFFF" opacity="1.000000" stroke="none" 
	d="
M449.019806,1189.401367 
	C445.421600,1186.942993 443.899200,1183.643433 445.409912,1180.149170 
	C446.318176,1178.048340 448.961731,1175.554443 451.007050,1175.381226 
	C453.503510,1175.169922 457.187775,1176.523926 458.515564,1178.462891 
	C459.854370,1180.417969 459.818329,1184.296997 458.807465,1186.657715 
	C457.116821,1190.606079 453.188843,1190.722900 449.019806,1189.401367 
z"/>
<path fill="#FFFFFF" opacity="1.000000" stroke="none" 
	d="
M366.525177,1259.866943 
	C368.719788,1255.854614 371.834198,1254.236816 375.818390,1255.524048 
	C379.220154,1256.623291 381.265839,1259.079468 381.098541,1263.009644 
	C380.934418,1266.864258 378.896301,1269.131104 375.401764,1270.240723 
	C370.123749,1271.916748 365.771606,1267.068848 366.525177,1259.866943 
z"/>
<path fill="#FFFFFF" opacity="1.000000" stroke="none" 
	d="
M1196.869873,1058.950928 
	C1189.419312,1064.895142 1181.387939,1065.932739 1173.126709,1062.498779 
	C1164.813599,1059.043335 1161.847046,1051.609985 1161.022217,1043.254272 
	C1160.664917,1039.635010 1160.676270,1035.906372 1161.104004,1032.296509 
	C1162.409790,1021.281433 1170.128296,1013.670471 1180.522827,1012.766602 
	C1192.120972,1011.758118 1201.305542,1017.723083 1204.369385,1028.838501 
	C1207.446655,1040.002563 1205.876587,1050.288330 1196.869873,1058.950928 
z"/>
<path fill="#FFFFFF" opacity="1.000000" stroke="none" 
	d="
M553.008057,1069.170654 
	C548.033569,1069.170532 543.556580,1069.170532 538.113403,1069.170532 
	C543.626953,1055.575806 548.873291,1042.640259 554.595764,1028.530518 
	C560.407593,1042.466187 565.749390,1055.274902 571.544556,1069.170776 
	C564.941345,1069.170776 559.223511,1069.170776 553.008057,1069.170654 
z"/>
<path fill="#FFFFFF" opacity="1.000000" stroke="none" 
	d="
M1069.755615,1066.824951 
	C1062.661987,1064.341187 1060.228638,1061.132690 1060.601074,1055.227783 
	C1060.947998,1049.725220 1064.395264,1045.698242 1070.912964,1044.948853 
	C1078.759521,1044.047119 1086.713501,1044.080688 1094.518188,1043.714233 
	C1097.147217,1058.623413 1090.496338,1066.808105 1076.140869,1067.134521 
	C1074.155029,1067.179688 1072.163818,1066.987061 1069.755615,1066.824951 
z"/>
<path fill="#FFFFFF" opacity="1.000000" stroke="none" 
	d="
M1489.051758,1043.904663 
	C1494.182373,1043.905518 1498.822876,1043.905518 1503.871826,1043.905518 
	C1504.335693,1051.504639 1504.568237,1058.809937 1497.477417,1063.257080 
	C1489.973999,1067.963013 1481.667725,1068.789307 1473.742188,1064.471313 
	C1466.696045,1060.632568 1467.393188,1049.459106 1474.992432,1046.217529 
	C1479.097412,1044.466431 1484.012207,1044.613281 1489.051758,1043.904663 
z"/>
<path fill="#F39A1B" opacity="1.000000" stroke="none" 
	d="
M476.389526,1051.506470 
	C468.181335,1018.789490 460.117767,986.464905 451.709290,952.757629 
	C450.003540,955.446167 448.666534,957.000183 447.929810,958.799988 
	C440.251862,977.556946 432.621796,996.333984 425.105530,1015.156189 
	C423.705139,1018.662964 421.804962,1020.542419 417.735443,1020.391174 
	C395.312897,1019.557739 372.880341,1018.992676 350.458344,1018.146851 
	C339.019562,1017.715454 327.595154,1016.897644 316.165649,1016.230835 
	C314.907440,1016.157471 313.658417,1015.927185 312.405151,1015.769653 
	C312.353577,1015.314880 312.302002,1014.860107 312.250427,1014.405396 
	C316.098145,1013.885681 319.936340,1013.277649 323.795197,1012.861328 
	C341.744507,1010.924500 359.693909,1008.985596 377.654877,1007.161316 
	C386.560608,1006.256714 395.479553,1005.388000 404.414062,1004.889343 
	C412.711334,1004.426392 413.785950,1003.702148 416.931580,996.123047 
	C425.271698,976.028320 433.881134,956.045227 442.195190,935.939880 
	C445.999390,926.740479 449.334900,917.347900 452.946655,908.067749 
	C453.630798,906.309937 454.615387,904.669006 455.461304,902.974121 
	C456.015930,902.982056 456.570526,902.989929 457.125153,902.997864 
	C465.890808,938.716553 474.656494,974.435242 483.422150,1010.153992 
	C484.112976,1010.217285 484.803833,1010.280640 485.494659,1010.343994 
	C487.154358,1005.682434 488.969177,1001.069214 490.441162,996.349060 
	C493.404572,986.846680 495.990143,977.220642 499.205658,967.807556 
	C499.807648,966.045349 502.646149,963.835876 504.412659,963.870361 
	C521.848572,964.211243 539.275879,964.987183 556.706055,965.629944 
	C567.998779,966.046387 579.294495,966.389709 590.584534,966.868103 
	C605.017273,967.479675 619.445984,968.187866 633.874817,968.887146 
	C634.460449,968.915527 635.029907,969.277893 635.681641,970.556213 
	C630.974304,971.108398 626.279541,971.828308 621.557434,972.184326 
	C598.238159,973.942444 574.906555,975.538696 551.589844,977.329285 
	C540.851318,978.153931 530.080261,978.894104 519.428833,980.409546 
	C510.231598,981.718079 511.651306,980.178650 508.810272,988.897034 
	C500.629059,1014.002991 492.500305,1039.125977 484.315369,1064.230835 
	C483.739471,1065.997192 482.873627,1067.669067 482.142609,1069.384888 
	C481.526154,1069.383057 480.909698,1069.381226 480.293243,1069.379272 
	C479.040222,1063.552490 477.787201,1057.725586 476.389526,1051.506470 
z"/>
<path fill="#FFFFFF" opacity="1.000000" stroke="none" 
	d="
M448.507812,838.388855 
	C445.245911,841.672791 441.434875,842.233459 438.323700,839.889893 
	C436.291504,838.359070 434.190369,834.722473 434.669952,832.607239 
	C435.278381,829.923645 438.075623,826.907410 440.682617,825.784973 
	C442.550049,824.980957 446.290649,826.360229 448.064453,827.993652 
	C451.020081,830.715393 450.772491,834.542969 448.507812,838.388855 
z"/>
<path fill="#FFFFFF" opacity="1.000000" stroke="none" 
	d="
M404.861877,804.793640 
	C403.235687,798.413940 404.977356,794.319092 409.491791,793.131897 
	C414.136200,791.910645 418.144287,794.309265 419.354065,799.106750 
	C420.343719,803.031250 418.882782,806.110352 415.451813,807.921509 
	C411.315491,810.105042 407.758209,808.910095 404.861877,804.793640 
z"/>
<path fill="#FFFFFF" opacity="1.000000" stroke="none" 
	d="
M388.704224,847.612183 
	C387.233032,852.478699 383.938965,854.984619 379.582855,853.703979 
	C377.065979,852.964111 374.325348,850.193726 373.330627,847.684875 
	C371.587646,843.288757 374.913391,838.922974 379.440460,838.125305 
	C384.060852,837.311157 389.458252,841.580811 388.704224,847.612183 
z"/>
<path fill="#FFFFFF" opacity="1.000000" stroke="none" 
	d="
M341.177429,805.689331 
	C341.179962,812.204590 338.026093,815.882935 333.101776,815.584534 
	C328.742981,815.320374 325.089783,811.481689 326.195404,807.057617 
	C326.841797,804.471191 329.293518,801.302124 331.682770,800.415588 
	C335.767700,798.899841 339.511597,800.676270 341.177429,805.689331 
z"/>
<path fill="#FFFFFF" opacity="1.000000" stroke="none" 
	d="
M318.967896,856.051453 
	C318.135620,861.550903 315.187042,864.356995 310.866455,863.774597 
	C306.845764,863.232666 304.096008,861.048889 303.891296,856.693909 
	C303.693512,852.485901 305.590729,849.649414 309.897095,848.918579 
	C314.775543,848.090698 317.658295,850.303101 318.967896,856.051453 
z"/>
</svg>