yłMMĮ%!G$„ś◊ä¶Ŕu-‘kě‚ŌĎź]ū&Šź(<?xml version="1.0" encoding="UTF-8" standalone="no"?>
<svg
   version="1.1"
   id="Layer_1"
   x="0px"
   y="0px"
   width="100%"
   viewBox="0 0 2048 2048"
   enable-background="new 0 0 2048 2048"
   xml:space="preserve"
   sodipodi:docname="logo lichter.svg"
   inkscape:export-filename="../849db7f5/test2.png"
   inkscape:export-xdpi="96"
   inkscape:export-ydpi="96"
   inkscape:version="1.4.2 (2aeb623e1d, 2025-05-12)"
   xmlns:inkscape="http://www.inkscape.org/namespaces/inkscape"
   xmlns:sodipodi="http://sodipodi.sourceforge.net/DTD/sodipodi-0.dtd"
   xmlns="http://www.w3.org/2000/svg"
   xmlns:svg="http://www.w3.org/2000/svg"><defs
   id="defs47" /><sodipodi:namedview
   id="namedview47"
   pagecolor="#ffffff"
   bordercolor="#000000"
   borderopacity="0.25"
   inkscape:showpageshadow="2"
   inkscape:pageopacity="0.0"
   inkscape:pagecheckerboard="0"
   inkscape:deskcolor="#d1d1d1"
   inkscape:zoom="0.55449878"
   inkscape:cx="794.41113"
   inkscape:cy="543.73429"
   inkscape:window-width="1920"
   inkscape:window-height="1011"
   inkscape:window-x="0"
   inkscape:window-y="0"
   inkscape:window-maximized="1"
   inkscape:current-layer="Layer_1" />
<path
   fill="#ffffff"
   opacity="1"
   stroke="none"
   d="m 1035.4809,1302.3798 c -307.82778,0 -615.24799,0 -922.66821,0 0,-224.5953 0,-449.19066 0,-673.78599 556.42655,0 1112.85311,0 1669.27961,0 0,224.59533 0,449.19069 0,673.78599 -248.7346,0 -497.4693,0 -746.6114,0 M 746.8478,903.32268 c 0,0 0.0266,-0.0679 0.0266,-0.0679 0,0 0.0841,0.0495 0.18024,0.0425 0,0 -0.10736,0.007 -0.20691,0.0254 m -107.80908,6.84633 c 3.84959,-5.78243 12.80217,-9.91116 26.29687,-12.14271 19.1996,-3.17485 38.53258,-2.17744 57.42468,0.66291 7.52594,1.13151 14.7016,2.64256 23.02018,4.16026 -11.41362,-4.35954 -23.70656,-7.36726 -37.41458,-9.40833 -13.91816,-2.07239 -28.30565,-3.078 -43.07153,-1.99304 -6.45679,0.47444 -12.66585,1.48635 -19.02533,2.19897 -1.2452,0.13952 -2.66527,0.0248 -4.0047,0.0273 0.72539,-0.47089 1.44679,-0.94278 2.18301,-1.41087 0.0649,-0.0412 0.23283,-0.0542 0.34302,-0.086 26.92205,-7.73882 56.05904,-8.80527 86.82267,-4.60107 6.39246,0.87361 12.52759,2.054 19.8516,3.27083 -7.17616,-2.91561 -14.94866,-4.69843 -22.98188,-6.17434 -17.45328,-3.20668 -35.67707,-4.86622 -55.12128,-4.18925 -14.37406,0.50042 -27.76095,2.06886 -40.44223,4.77204 -2.67984,0.57125 -5.46764,1.05999 -8.2057,1.58674 -0.34057,-0.1276 -0.68111,-0.25516 -1.02167,-0.38274 19.54227,-15.06001 13.4339,-29.37128 -6.92574,-43.26229 6.47535,6.5792 10.57925,13.30899 9.65781,20.53535 -0.8501,6.66669 -5.04742,12.82294 -14.2971,18.32743 -5.43505,3.23441 -12.66052,5.95709 -22.52891,6.49003 -7.47479,0.40369 -15.30086,0.003 -22.90775,-0.29874 -17.56999,-0.69641 -33.4462,0.79791 -46.76094,5.64471 -12.08011,4.39735 -17.61875,10.07789 -17.43762,16.52809 0.0924,3.2909 1.54756,6.62588 3.43364,9.84087 1.29495,2.20732 4.39157,4.24245 7.12119,6.75862 2.99369,-1.76282 5.44131,-3.00601 7.28543,-4.38108 0.81191,-0.6054 1.09036,-1.60217 0.42694,-2.21105 -4.69794,-4.3115 -7.7103,-8.7187 -6.88761,-13.49717 0.61899,-3.59527 7.25037,-5.39355 15.20306,-3.7676 4.7825,0.97777 9.41176,2.20587 13.4468,3.628 14.17357,4.9956 26.45529,10.70369 36.09118,17.22767 4.45382,3.01545 7.76905,6.33096 10.97708,9.60979 1.78163,1.821 1.68094,3.80162 -2.66299,5.26128 -4.68087,1.57286 -10.08215,1.06424 -15.08804,0.5744 -9.90372,-0.96914 -18.29911,-3.18949 -26.3794,-5.63426 -1.68403,-0.50954 -4.50442,-1.03998 -6.15079,-0.80819 -3.68874,0.51936 -6.96841,1.51205 -10.41469,2.31199 -0.12849,0.20932 -0.25701,0.41862 -0.38554,0.62794 1.23108,0.33371 2.51782,0.6386 3.68457,1.00562 11.72201,3.68765 25.05652,5.78796 39.72604,6.53486 18.55153,0.94457 34.96791,-0.87365 48.21397,-6.39213 10.61084,-4.42059 14.48619,-10.00537 16.04257,-15.93577 0.9395,-3.57981 1.77189,-7.16422 2.86371,-11.00915 M 307.21852,1039.0694 c -2.0578,-6.2905 -2.22998,-12.5689 1.22211,-18.7927 4.52621,-8.1603 12.18347,-15.6829 27.84472,-21.49925 11.81856,-4.38925 25.54971,-6.62307 41.73123,-5.63503 6.41185,0.39147 12.68597,1.16784 18.99444,1.81409 12.46143,1.27648 24.84961,1.55872 37.34071,-0.0273 20.69138,-2.62724 34.17469,-9.68475 36.26191,-18.96836 1.04131,-4.63162 0.0302,-9.13151 -3.72086,-13.73398 -2.52209,1.4691 -4.85945,2.72472 -6.87931,4.0587 -0.82135,0.54245 -1.396,1.26394 -1.32062,1.88897 0.32225,2.67152 1.28607,5.33653 1.32665,8.00562 0.037,2.43385 -0.66961,5.0254 -6.85295,6.27704 -6.29573,1.27443 -11.5165,-0.26725 -16.4003,-1.70089 -11.99393,-3.52086 -20.3745,-8.31527 -28.08005,-13.3053 -1.74559,-1.13046 -3.57134,-1.55928 -6.77095,-1.59918 -19.54252,-0.24376 -39.07904,-0.56542 -58.61815,-0.85461 -1.70111,-0.025 -3.40645,-0.003 -5.13648,-0.003 -0.17333,0.51304 -0.27543,0.83697 -0.39294,1.15991 -2.04712,5.62737 -7.03739,10.57141 -19.53005,13.79436 -15.1443,3.90703 -31.57438,4.44021 -48.58368,2.81951 -20.56885,-1.95988 -37.00795,-6.62913 -50.58112,-13.06221 -0.81054,-0.38414 -1.92709,-0.66309 -3.34678,-1.14093 0,0.50235 -0.10023,0.63105 0.0141,0.70721 12.23839,8.14548 28.49575,14.52759 50.66316,18.06421 25.32938,4.0411 49.87717,3.64312 72.8376,-2.83516 0.46797,-0.13203 1.10046,-0.16898 1.65618,-0.25027 -0.30346,0.72047 -1.23118,1.13392 -2.10446,1.56537 -7.03202,3.47427 -14.87726,6.73578 -20.90248,10.47487 -11.54479,7.16441 -17.42599,15.17751 -17.99363,23.75341 -0.42715,6.4539 1.41587,12.7905 7.32194,19.0253 m 94.54762,-28.1889 c -0.94194,-0.045 -1.88241,-0.1238 -2.82601,-0.1305 -6.19534,-0.044 -10.81125,1.6088 -11.62585,4.1446 -0.73284,2.2814 2.97582,4.5831 8.3781,5.1999 5.96158,0.6804 12.16123,-0.3604 14.03547,-2.6459 1.21055,-1.4762 2.54523,-2.414 6.82652,-2.2892 0.9304,0.027 2.06967,-0.4687 2.92765,-0.8014 2.64363,-1.0252 5.13804,-2.1137 7.81252,-3.125 1.2901,-0.4878 2.85361,-0.8578 4.29336,-1.2811 0.43013,0.076 0.86027,0.1522 1.29042,0.2284 0,0.8953 -0.30065,1.8106 0.0515,2.6829 1.6306,4.0399 -1.06519,7.3075 -10.07094,9.4665 -1.74127,0.4176 -3.75968,0.8465 -5.70256,0.89 -6.10784,0.137 -10.08415,1.2452 -11.79423,3.5458 -1.57397,2.1175 0.59944,4.2458 5.21773,5.5793 1.30132,0.3757 2.25631,1.1289 2.66444,1.781 0.52148,0.8332 0.38758,1.7389 0.428,2.6142 0.0574,1.2442 -0.47877,2.2893 -3.65409,3.016 -1.84403,0.4219 -3.41078,1.2886 -4.29725,2.0987 -2.66425,2.4347 0.0624,5.0784 6.01779,6.1929 5.79604,1.0846 12.44325,0.2084 15.43781,-2.035 3.04012,-2.2776 0.76111,-5.1054 -4.82736,-6.5692 -1.50642,-0.3946 -2.50163,-1.2804 -3.08533,-2.0234 -0.50873,-0.6477 0.0365,-1.4176 -0.138,-2.1233 -0.34697,-1.4025 0.74182,-2.3243 4.03776,-3.0449 5.14722,-1.1256 7.66331,-3.5087 5.11844,-5.6302 -2.54754,-2.1236 -0.1146,-3.1269 3.35316,-4.2414 1.37646,-0.4424 2.57983,-0.9734 3.96918,-1.4083 2.70464,-0.8466 3.6626,-1.9251 3.53032,-3.2999 -0.27384,-2.8465 -0.21436,-5.698 -0.41264,-8.546 -0.10484,-1.5058 0.90575,-2.6996 3.85361,-3.7549 6.08975,-2.1802 11.85447,-4.508 17.76894,-6.76817 4.43514,-1.69492 8.85663,-3.39643 13.38081,-5.05201 0.80656,-0.29515 2.08555,-0.38002 3.14643,-0.56193 0.38648,0.43717 1.05544,0.86891 1.10773,1.31254 0.17414,1.47739 0.50776,2.97939 0.0328,4.43215 -0.32508,0.99449 -1.33988,2.13652 -3.00866,2.84142 -5.61953,2.3739 -11.80567,4.5285 -17.46411,6.8884 -1.51098,0.6303 -2.65114,1.6873 -2.70044,2.56 -0.28777,5.096 -0.25892,10.1955 -0.19875,15.2935 0.0149,1.2667 -0.88527,2.1233 -3.73641,2.8209 -4.84187,1.1845 -6.95496,3.6164 -5.37246,5.5434 1.73977,2.1185 6.22904,3.4622 11.6059,3.4738 5.11819,0.011 9.47421,-1.1841 11.00741,-3.0203 1.87006,-2.2396 -0.17012,-4.4496 -4.82202,-5.9685 -1.51745,-0.4955 -2.80919,-1.4771 -2.88064,-2.2561 -0.31124,-3.3942 -0.13339,-6.7958 -0.13613,-10.1947 -0.006,-6.6839 -0.0115,-6.6864 12.90902,-10.9948 1.06151,-0.3539 2.25992,-0.6409 3.47988,-0.9829 0.50728,0.3347 0.87863,0.4665 0.88549,0.6015 0.0836,1.643 -0.0289,3.2898 0.20113,4.929 0.19773,1.4093 -0.37435,2.4246 -3.93136,3.208 -4.321,0.9516 -5.75002,3.4685 -4.06169,5.5759 1.42803,1.7824 6.50624,3.1694 11.38694,3.11 5.04876,-0.061 9.4623,-1.4323 10.871,-3.3769 1.46446,-2.0216 -0.25071,-4.3242 -4.59173,-5.3352 -2.96636,-0.691 -3.52467,-1.5741 -3.51967,-2.8239 0.0566,-14.08894 0.0622,-28.17801 -0.071,-42.26685 -0.024,-2.53676 -0.73963,-5.07245 -1.16133,-7.77134 -3.82448,0.79736 -4.61988,1.83972 -4.60966,3.14064 0.0594,7.56512 -0.0797,15.13067 0.0955,22.6952 0.0363,1.56547 -1.13996,2.67018 -3.94644,3.73001 -19.52217,7.3723 -38.93338,14.79234 -58.35377,22.20844 -2.6194,1.0003 -5.03762,0.7398 -7.64576,0 -1.86538,-0.526 -3.8943,-0.9575 -6.47644,-1.4863 m 709.51149,-46.21746 c -6.0144,-6.77827 -17.862,-10.01401 -34.6697,-9.38756 -7.7456,0.28868 -13.8685,1.88989 -19.4165,4.52741 0,-1.54098 0,-2.70828 0,-3.8661 -5.8375,0 -11.3021,0 -16.811,0 0,12.69244 0,25.2699 0,37.84693 6.0546,0 11.915,0 17.8665,0 0,-2.36628 0,-4.60948 0,-6.85265 0,-2.18358 0,-4.36717 0,-7.01356 9.2187,6.29352 35.1886,6.35846 46.9513,-0.17124 8.1993,-4.55161 9.6071,-9.51088 6.0794,-15.08323 m -504.31938,25.86683 c -10.9047,-10.26293 -21.84791,-20.51925 -32.6553,-30.79883 -1.10104,-1.04729 -2.28574,-1.60784 -5.31497,-1.48513 -2.9566,0.11983 -5.99394,0.13535 -8.94362,0.005 -3.35002,-0.14841 -4.73147,0.46994 -5.93479,1.63144 -8.79004,8.48423 -17.74774,16.94012 -26.62616,25.40946 -2.66048,2.53785 -5.23747,5.08998 -8.15221,7.92715 5.89547,0 10.91132,0.0563 15.9077,-0.0442 1.09188,-0.0221 2.60309,-0.51501 3.08201,-0.94383 1.7805,-1.59425 3.41877,-3.22624 4.69959,-4.89544 0.84493,-1.10115 2.34589,-1.43298 5.02011,-1.42768 10.72143,0.0214 21.44495,-0.0512 32.16364,0.0161 1.28212,0.008 3.1156,0.54719 3.70347,1.03469 2.01322,1.66957 3.50811,3.43964 5.3781,5.13956 0.48559,0.44148 1.58573,1.08099 2.45768,1.09537 5.89384,0.0971 11.80211,0.0506 18.20687,0.0506 -1.09407,-1.00854 -1.90024,-1.75164 -2.99212,-2.71406 M 502.18744,934.97921 c -1.28468,0.78749 -3.7829,1.61802 -3.62268,2.35426 0.44994,2.06718 1.99576,4.09552 3.30078,6.49044 3.83299,-1.70931 6.79176,-3.20856 10.20604,-4.51365 6.96488,-2.66229 13.68202,-5.49652 21.42017,-7.74455 8.03925,-2.33555 8.44534,-2.03403 16.1358,0.38562 7.61946,2.39728 15.54116,4.62005 25.30687,5.36411 6.28446,0.47882 9.77367,-0.92731 8.54329,-3.46503 -0.54052,-1.11478 -1.40578,-2.23983 -2.63996,-3.25826 -11.27159,-9.30164 -27.67434,-16.96201 -47.05452,-23.62948 -3.11714,-1.07239 -6.93617,-2.37356 -11.31543,-1.3004 -4.30684,1.05542 -3.73926,3.02073 -3.32886,4.76989 0.81891,3.49023 3.94107,6.68986 8.12892,9.72216 1.12607,0.81534 1.07316,1.40543 -0.13058,2.22597 -6.75897,4.60729 -15.35969,8.6086 -24.94984,12.59892 m 353.81434,33.96219 c 4.37532,-4.31924 8.75064,-8.63844 13.29282,-13.12242 -5.93046,0 -11.35055,-0.0506 -16.75486,0.0448 -1.019,0.018 -2.43415,0.53817 -2.87964,0.96153 -1.79989,1.71028 -3.2715,3.47647 -4.90186,5.21627 -4.19663,4.47821 -8.4132,8.95339 -12.86703,13.69056 -0.70578,-0.60822 -1.19177,-0.97249 -1.56274,-1.35488 -5.58709,-5.75883 -11.12887,-11.52493 -16.7903,-17.27179 -0.46782,-0.47492 -1.68159,-1.15683 -2.6193,-1.17585 -5.50699,-0.11162 -11.03494,-0.0548 -17.02589,-0.0548 0.6823,0.73912 1.14302,1.29069 1.69398,1.82717 8.66638,8.43847 17.36504,16.87156 26.00778,25.31395 2.7986,2.7337 -3.01586,5.70997 -10.32021,5.22589 -2.70288,-0.17908 -5.27399,-0.68205 -8.03402,-1.0547 -1.66812,1.84844 -3.31285,3.67095 -4.92047,5.45237 14.50072,4.01814 31.89948,1.97872 38.71566,-4.56648 6.51247,-6.25348 12.49431,-12.59707 18.96608,-19.13158 m 166.20392,2.30298 c -0.049,-1.80721 0.1284,-3.62087 -0.1866,-5.42045 -1.1565,-6.60646 -8.412,-9.69951 -24.794,-10.35571 -12.2137,-0.48928 -23.50223,0.78912 -34.12381,3.37735 2.2828,1.79093 4.35368,3.41562 6.44258,5.05435 7.29704,-1.60741 14.544,-2.59062 22.53145,-2.4202 8.70378,0.18569 12.59848,1.91216 12.38028,5.66766 -4.97158,0 -9.98902,-0.12551 -14.95051,0.0335 -5.50887,0.17664 -11.09766,0.41325 -16.41719,0.9814 -8.65329,0.92422 -13.87825,3.8766 -14.24156,7.53466 -0.36461,3.6691 4.19805,6.87534 12.44588,8.06897 11.77659,1.70418 22.94382,1.38966 32.40108,-2.3841 0.4067,-0.1623 0.9573,-0.26583 1.6169,-0.44441 0.1765,1.06572 0.3267,1.9722 0.4748,2.86599 5.6073,0 10.8305,0 15.9631,0 0.1898,-0.20046 0.3661,-0.30017 0.367,-0.40013 0.035,-3.94336 0.053,-7.88665 0.091,-12.15891 m 438.6314,7.89291 c 0.1122,-3.8919 0.1022,-7.78516 0.37,-11.67535 0.2855,-4.14967 10.5029,-6.92457 20.2361,-5.57038 5.6919,0.79199 8.2565,2.41984 8.3637,5.60831 0.1639,4.8791 0.1257,9.75918 0.1921,14.63889 0.01,0.58285 0.1332,1.16544 0.2058,1.76204 6.1559,0 11.897,0 17.5438,0 0,-6.92591 0.2683,-13.71407 -0.1546,-20.4952 -0.1365,-2.18793 -2.6386,-4.2488 -7.0503,-5.75165 -9.3652,-3.19025 -24.6868,-3.30124 -34.4068,-0.2588 -1.5144,0.47399 -3.0476,0.9383 -5.3012,1.63134 -0.1618,-0.99032 -0.061,-1.59149 -0.4174,-2.14459 -0.2551,-0.39559 -1.0928,-1.02838 -1.7236,-1.03893 -5.0864,-0.0851 -10.1853,-0.0477 -15.4518,-0.0477 0,9.55177 0,18.83949 0,28.2541 4.7413,0 9.0826,-0.0797 13.3965,0.025 3.5249,0.0854 4.5445,-0.49419 4.222,-1.81544 -0.2254,-0.9229 -0.033,-1.86239 -0.024,-3.12162 M 1314.902,961.83427 c 4.4313,-0.096 8.9403,-0.44585 13.2765,-0.2301 6.9389,0.34529 10.7304,2.78605 9.2233,5.53768 -5.7847,0 -11.6567,-0.16015 -17.4479,0.0475 -5.2099,0.18684 -10.5389,0.54058 -15.4445,1.24289 -8.1982,1.17363 -12.3935,3.87996 -12.2635,7.37772 0.1328,3.56607 3.3956,6.48213 12.0756,7.8377 11.4508,1.78836 22.3367,1.46798 31.9124,-1.98346 0.7483,-0.26968 1.5799,-0.50165 2.7111,-0.85763 0.1674,1.11895 0.304,2.03248 0.4447,2.97266 5.5833,0 10.9288,0 16.4039,0 0,-2.56881 0.089,-5.03044 -0.021,-7.49061 -0.1746,-3.94168 0.029,-7.90123 -0.8588,-11.81882 -1.1296,-4.98438 -9.2256,-8.10202 -21.5109,-8.86537 -9.0565,-0.56277 -17.8898,-0.17179 -26.4602,1.05376 -3.6015,0.51498 -6.9809,1.28275 -10.5027,1.94345 2.3205,1.87133 4.3046,3.47138 6.2436,5.03497 4.0067,-0.60782 7.7769,-1.17978 12.2178,-1.80234 M 880.065,979.13694 c 0,1.56883 0,3.13761 0,4.72878 6.13668,0 11.90548,0 17.76826,0 0,-5.01066 -0.0397,-9.93706 0.0336,-14.8632 0.0147,-0.97808 0.14019,-1.98981 0.76481,-2.92627 2.09433,-3.14021 9.32034,-4.95384 17.54885,-4.51021 7.30144,0.39364 10.94634,2.3235 11.03782,5.8775 0.0509,1.97375 0.0353,3.94779 0.0379,5.92171 0.009,3.49852 0,6.99705 0,10.49886 6.21023,0 12.07852,0 17.86233,0 0,-6.50497 0.23217,-12.8657 -0.0793,-19.22209 -0.21752,-4.43603 -6.19074,-7.70104 -15.65816,-8.88665 -9.63476,-1.20653 -23.05305,-0.73906 -30.50796,3.4457 -0.25795,0.14482 -0.73619,0.22566 -1.68283,0.50462 0,-1.43966 0,-2.62228 0,-3.81215 -5.92097,0 -11.43647,0 -17.12579,0 0,7.69398 0,15.30467 0,23.2434 M 388.03288,945.97645 c 0.69202,-2.90743 4.29334,-4.32977 11.36238,-4.16161 3.44458,0.0819 6.95658,0.45778 10.2101,0.94737 8.91548,1.34159 16.15868,3.74539 23.31369,6.20227 1.50907,0.51817 3.89092,1.15707 5.44703,1.01002 3.56188,-0.33661 6.86209,-1.1244 10.67847,-1.80173 -1.28885,-0.63539 -2.07394,-1.07121 -2.97956,-1.46146 -10.25775,-4.42027 -22.84601,-7.23084 -37.48421,-8.37546 -37.6875,-2.947 -65.94097,6.82572 -68.38694,21.78708 18.61244,-0.66391 37.16104,-1.32556 55.16546,-1.96776 -2.51739,-4.08035 -4.92429,-7.98159 -7.32642,-12.17872 m 856.18112,17.39233 c 1.4566,-1.7825 4.1573,-2.48741 9.7064,-2.42773 7.0694,0.076 13.4087,1.11155 19.4628,2.68162 2.6773,-1.64328 5.1856,-3.18285 7.8603,-4.82438 -5.1513,-1.64471 -10.9817,-2.49636 -17.0719,-3.01092 -10.0898,-0.85249 -20.0353,-0.89181 -28.8776,1.70859 -11.8989,3.49918 -10.2452,10.92993 3.0388,13.43452 3.4121,0.64326 7.1503,1.01009 10.7627,1.47332 4.0001,0.51304 8.0824,0.9301 12.0253,1.50476 2.8389,0.41372 4.9866,1.23522 4.7544,2.57148 -0.2489,1.43077 -2.877,2.12858 -5.9906,2.29291 -3.1823,0.16799 -6.6787,0.33647 -9.6519,-0.0197 -6.2576,-0.74975 -12.263,-1.84264 -18.7051,-2.84658 -2.1564,1.26114 -4.7424,2.77354 -7.4093,4.33325 5.4743,2.03778 11.7978,3.2198 18.7739,3.84976 9.7372,0.87915 19.4502,1.05974 28.5949,-0.88385 7.4668,-1.58702 11.4362,-4.13411 11.168,-7.6099 -0.2571,-3.33182 -4.2097,-5.72843 -11.7355,-7.08353 -3.2026,-0.5767 -6.5877,-1.00121 -9.9475,-1.41923 -3.753,-0.46695 -7.761,-0.67984 -11.2916,-1.32846 -2.1761,-0.39976 -3.6669,-1.40715 -5.4665,-2.39592 m -99.0852,8.98652 c 4.6587,0.56848 9.5066,0.97087 13.8872,1.78366 1.865,0.34607 3.9197,1.59047 3.7591,2.35358 -0.1636,0.7763 -2.6719,1.88775 -4.643,2.09548 -3.542,0.37311 -7.6896,0.5313 -11.152,0.14621 -6.1233,-0.68109 -11.9223,-1.8368 -18.1499,-2.84109 -2.3068,1.31493 -5.0074,2.85438 -7.75,4.41777 5.8904,2.17602 12.7212,3.33146 20.1228,3.9221 10.6687,0.85125 21.1963,0.83155 30.4102,-1.91581 12.0418,-3.59064 10.5467,-10.91471 -2.8089,-13.61087 -4.1929,-0.84644 -8.8921,-1.29046 -13.387,-1.88496 -3.5945,-0.4755 -7.41,-0.75179 -10.7689,-1.41307 -1.5582,-0.30676 -3.1774,-1.3352 -3.1028,-2.00623 0.077,-0.68609 1.8722,-1.67449 3.4892,-1.92374 2.6608,-0.41009 5.9538,-0.63894 8.678,-0.39473 5.8496,0.52439 11.5065,1.39903 17.6978,2.18835 2.0289,-1.23613 4.5231,-2.7559 7.7283,-4.7089 -6.0521,-0.98488 -11.4558,-2.17496 -17.2343,-2.73673 -10.4144,-1.01247 -20.8403,-0.95727 -29.9335,1.8339 -11.4844,3.5251 -9.8773,10.64575 2.991,13.22986 3.0065,0.60368 6.3409,0.94123 10.1667,1.46522 m -357.06877,4.61721 c 0.99352,-3.8941 -2.79317,-6.82537 -11.4496,-8.41268 -4.16488,-0.76367 -8.69438,-1.20423 -13.06373,-1.78504 -3.21022,-0.42674 -6.66534,-0.67382 -9.55219,-1.33014 -1.66648,-0.37887 -3.44348,-1.44495 -3.3024,-2.13996 0.14467,-0.71297 2.26405,-1.65311 4.06614,-1.94647 2.37613,-0.38681 5.45257,-0.5138 7.93178,-0.26725 5.68431,0.56538 11.18917,1.42489 16.99202,2.1948 2.21774,-1.36724 4.72924,-2.9156 7.52296,-4.63797 -12.63352,-3.05601 -25.7464,-4.4719 -39.98151,-2.41481 -9.14998,1.32228 -13.813,4.36011 -13.51968,8.1287 0.28347,3.64204 5.07155,6.01436 14.84404,7.30624 2.18684,0.28912 4.45655,0.47438 6.66553,0.7383 3.89515,0.4653 7.83438,0.88718 11.63765,1.45545 2.8076,0.41947 4.91843,1.19748 4.65218,2.58269 -0.27841,1.44822 -2.72364,2.17526 -5.83529,2.35049 -3.17395,0.17874 -6.68749,0.34117 -9.64602,-0.0247 -6.10752,-0.75521 -11.9449,-1.86643 -18.24971,-2.88905 -2.23131,1.27779 -4.91858,2.81667 -7.80066,4.46712 12.98271,4.02423 26.97355,5.35331 42.39108,3.57403 8.25082,-0.95212 13.91751,-3.10781 15.69741,-6.9498 M 462.78157,944.21558 c -4.18348,3.96974 -8.43956,7.9274 -12.50799,11.91627 -1.28636,1.26119 -3.38199,1.94376 -6.64272,2.07576 -19.36007,0.7837 -38.71522,1.58896 -58.08565,2.3287 -16.12378,0.61572 -32.26632,1.1514 -48.40055,1.7225 13.03633,0.51034 26.03874,0.96545 39.06546,1.2091 18.00629,0.33676 36.03337,0.48856 54.04634,0.77334 6.6201,0.10468 13.23642,0.31475 19.83415,0.56429 6.10748,0.231 7.9595,-0.3513 10.02425,-2.53202 5.38977,-5.69246 11.13246,-11.33068 16.82602,-16.97548 0.34186,-0.33896 1.48669,-0.54595 2.25787,-0.81436 0.65387,0.35153 1.665,0.66747 1.90504,1.0602 1.9033,3.11395 3.59246,6.24914 5.47486,9.36525 4.69967,7.77975 9.45036,15.55448 14.22171,23.32716 0.84728,1.38028 1.89285,2.74068 2.84688,4.11029 0.39644,-0.004 0.79291,-0.007 1.18936,-0.0105 2.18007,-2.60934 4.4021,-5.21322 6.53002,-7.8295 2.89493,-3.55939 5.70382,-7.13026 8.57568,-10.69277 2.84506,-3.52935 5.94364,-7.02897 8.46544,-10.59526 0.8799,-1.24436 2.38308,-1.74896 5.24818,-1.8447 6.87623,-0.22974 13.75325,-0.45529 20.63007,-0.68197 13.20875,-0.43541 26.40944,-0.91734 39.62848,-1.29401 17.41414,-0.49622 34.84489,-0.89649 52.26404,-1.3651 7.11506,-0.19145 14.21845,-0.45386 21.32715,-0.68398 -9.85467,-0.49783 -19.69988,-0.7401 -29.551,-0.93356 -7.03642,-0.13821 -14.08215,-0.19797 -21.12134,-0.3152 -20.16318,-0.33576 -40.32472,-0.68725 -60.48805,-1.02181 -3.66094,-0.0607 -7.33122,-0.0367 -10.98982,-0.11122 -7.42883,-0.15127 -14.84945,-0.4038 -22.28114,-0.46673 -1.47437,-0.0125 -3.89532,0.50811 -4.32942,1.004 -3.01593,3.44499 -5.55328,6.95771 -8.42027,10.42498 -0.55674,0.67326 -1.88639,1.24242 -2.85951,1.8596 -1.07422,-0.63266 -2.15956,-1.26238 -3.20898,-1.9017 -0.13407,-0.0818 -0.0553,-0.2161 -0.11805,-0.32191 -3.05175,-5.13977 -6.11289,-10.27864 -9.16256,-15.41862 -2.42353,-4.08463 -4.81576,-8.1723 -7.25838,-12.25506 -0.97867,-1.63585 -2.0551,-3.2622 -3.08706,-4.89286 -0.31244,0.0343 -0.62489,0.0685 -0.93733,0.10274 -6.89023,6.96053 -13.78046,13.92103 -20.91118,21.11427 M 1543.6072,976.1611 c -0.2008,-5.69349 -0.4618,-11.38672 -0.5838,-17.08044 -0.1,-4.65558 0.022,-9.31202 -0.12,-13.96726 -0.016,-0.52054 -1.0589,-1.46912 -1.7297,-1.48458 -5.3377,-0.12311 -10.7005,-0.0687 -16.0546,-0.0687 -0.1264,0.62495 -0.2511,0.94983 -0.2492,1.27459 0.062,10.35246 0.1,20.70501 0.2543,31.05727 0.02,1.30483 0.4796,2.62197 1.0681,3.90861 0.777,1.69829 3.0067,3.08491 6.941,3.83966 7.3065,1.4016 14.7327,1.29056 22.0269,-0.0347 1.0789,-0.19608 2.5534,-0.75152 2.5118,-1.11602 -0.189,-1.6615 -0.8539,-3.31412 -1.355,-4.99401 -4.9988,0.25132 -9.911,1.51398 -12.7098,-1.33441 M 625.93629,958.49768 c -2.26206,0 -4.52408,0 -6.71933,0 0,11.59205 0,23.05816 0,34.50308 5.7655,0 11.14668,0 16.66175,0 0,-11.56293 0,-23.02717 0,-34.50321 -3.29201,0 -6.25492,0 -9.94242,1.3e-4 M 483.46583,900.35703 c -3.1006,-2.2087 -7.43963,-3.11543 -13.04118,-2.72525 -5.33017,0.37128 -8.89233,1.73272 -9.96251,3.80758 -1.10296,2.13836 1.15804,3.87666 6.19501,5.2609 1.37042,0.37661 2.6251,1.22492 2.71684,1.8843 0.33426,2.40276 0.18777,4.81731 0.13882,7.22712 -0.01,0.4844 -0.38598,0.96759 -0.73302,1.77767 -2.20346,-0.73333 -3.74867,-1.16731 -5.05422,-1.69743 -3.63153,-1.47469 -7.32184,-2.93491 -10.6537,-4.51594 -1.26209,-0.5989 -2.20703,-1.50536 -2.2661,-2.28437 -0.26153,-3.44776 -0.0605,-6.9008 -0.21631,-10.35053 -0.0578,-1.28123 0.53027,-2.17537 3.46779,-3.01386 6.71141,-1.91567 6.93706,-5.86325 0.92042,-7.78967 -5.16046,-1.65225 -12.78596,-1.31263 -16.73671,0.74551 -4.28122,2.23022 -3.34456,5.47803 2.57901,6.90775 3.4612,0.83542 4.37681,1.79729 4.27516,3.31298 -0.2387,3.55768 0.0944,7.12167 -0.15604,10.67909 -0.10589,1.50406 1.0674,2.58553 3.71951,3.60299 5.9983,2.30109 11.70451,4.72615 17.69611,7.03022 2.2237,0.8551 3.36301,1.72661 3.22588,3.00133 -0.23764,2.20923 -0.0659,4.42562 -0.0659,6.63902 3.6111,-2.04647 5.9268,-4.11057 5.78292,-6.59584 -0.27567,-4.76251 -0.15919,-9.5306 0.0785,-14.29407 0.0365,-0.73058 1.11144,-1.7132 2.52097,-2.12657 5.75537,-1.68784 7.52438,-3.3628 5.56879,-6.48293 m -42.36199,19.96996 c -4.05957,-1.61526 -8.12471,-3.22824 -12.17717,-4.8464 -4.19071,-1.67344 -3.94343,-3.45427 0.66762,-4.92048 5.5585,-1.76747 6.13219,-5.34913 1.1978,-7.47755 -4.55268,-1.96374 -12.48213,-1.89682 -17.34143,0.19671 -0.98621,0.4249 -1.51401,1.02313 -2.32254,1.59014 -5.65397,-2.1076 -10.01539,-3.82736 -14.63878,-5.42349 -3.04507,-1.05127 -4.06733,-1.92914 -1.94367,-3.57939 3.28595,-2.55338 -0.55589,-5.57128 -7.36751,-6.43002 -6.23779,-0.78639 -13.15811,0.73029 -14.76506,3.23593 -1.82738,2.84939 2.3478,5.8844 9.21092,6.02388 4.79943,0.0975 7.91329,0.90179 10.60969,2.24354 6.51291,3.24081 16.86166,4.95904 21.61131,8.91204 0.52967,0.44082 1.94844,0.79092 3.15039,1.00016 2.84999,0.49619 3.75409,1.34979 3.32317,2.50282 -0.54288,1.45252 1.08879,2.43655 3.61579,3.42013 9.4754,3.68811 18.83703,7.42601 28.01912,11.23257 1.50417,0.6236 2.54108,1.67101 2.67074,2.54951 0.38691,2.62135 0.16734,5.25648 0.28136,7.88553 0.06,1.38321 0.32175,2.76498 0.54044,4.53638 3.26922,-1.77519 5.18568,-3.24979 5.04919,-5.12215 -0.19949,-2.73697 -0.20944,-5.47913 -0.0338,-8.21632 0.0839,-1.30771 -0.84479,-2.26986 -3.29771,-3.15868 -5.34802,-1.93788 -10.44716,-3.98766 -16.05983,-6.15486 m 752.68318,36.55669 c 0,8.97755 0,17.95509 0,27.01162 5.9497,0 11.7261,0 17.4356,0 0,-9.41418 0,-18.75256 0,-28.15719 -5.3198,0 -10.3156,-0.0344 -15.3019,0.0375 -0.7371,0.0106 -1.4295,0.52396 -2.1337,1.10804 m 197.0607,8.76762 c 0,-3.26599 0,-6.53194 0,-9.83236 -6.1699,0 -11.778,0 -17.3401,0 0,9.40499 0,18.70051 0,27.99395 5.9155,0 11.5441,0 17.3406,0 0,-6.01538 0,-11.92397 -5e-4,-18.16159 M 379.27191,917.9752 c 5.2145,3.13792 12.45543,4.30083 21.61904,3.65553 1.31828,-0.0928 2.7778,-0.12068 4.05223,0.0107 1.73701,0.17902 3.76304,0.37338 4.96621,0.84914 9.50592,3.75887 18.90721,7.56214 28.16262,11.4213 1.23688,0.51571 1.9644,1.40814 2.08533,2.14855 0.34789,2.12936 0.31637,4.27017 0.32461,6.40658 0.003,0.88824 0.7233,1.27766 3.10244,1.24455 2.40036,-0.0334 2.97809,-0.49338 2.95291,-1.34505 -0.0631,-2.1375 -0.21747,-4.27967 0.0535,-6.41195 0.19714,-1.55147 -1.03853,-2.66358 -3.82539,-3.75075 -9.37278,-3.6564 -18.65115,-7.35808 -27.60907,-11.17868 -3.0961,-1.32042 -6.22101,-2.04209 -10.60641,-1.72454 -9.75064,0.70603 -17.10192,-0.66096 -23.19878,-3.80857 -2.9364,-1.51598 -5.62833,-2.53972 -3.75981,-4.80055 2.14622,-2.59684 -3.83995,-5.28279 -11.00457,-5.53954 -6.55761,-0.235 -12.06088,1.76458 -12.4379,4.51921 -0.40461,2.95642 4.66058,5.29177 11.74786,5.01287 4.56006,-0.17946 7.53475,0.316 9.88337,1.81996 0.77873,0.49868 2.04704,0.8728 3.49182,1.47127 m 52.87412,38.62535 c 3.10651,-0.12106 6.22942,-0.19799 9.31141,-0.3849 1.23403,-0.0748 2.99371,-0.26313 3.45267,-0.62137 1.68387,-1.31421 2.92184,-2.72153 4.59145,-4.35134 -2.32032,0.32763 -3.92774,0.47051 -5.33497,0.76776 -6.19425,1.30846 -10.88575,0.76004 -16.29579,-1.1227 -6.78593,-2.36149 -14.59551,-4.34837 -22.5851,-6.00967 -6.76469,-1.40658 -11.02925,-0.10916 -9.59249,2.90496 1.51673,3.1818 4.70027,6.23988 7.41947,9.31402 0.28288,0.31979 2.39599,0.57414 3.58986,0.53243 8.2442,-0.28824 16.46979,-0.66322 25.44349,-1.02919 m 3.27454,9.85585 c -6.66186,-0.12233 -13.32372,-0.24464 -19.98558,-0.36697 -0.19822,0.13841 -0.39647,0.27685 -0.59471,0.41533 4.77749,2.5621 9.27017,5.22273 14.4276,7.65346 3.7518,1.76826 8.03042,3.43071 12.70692,4.78414 6.22472,1.80146 11.06026,0.94675 11.34169,-2.12591 0.2812,-3.0703 -1.01242,-6.16978 -1.89051,-9.2437 -0.0984,-0.34446 -1.93091,-0.82068 -3.05249,-0.86688 -4.0384,-0.1662 -8.11672,-0.17436 -12.95292,-0.24947 m 974.81172,9.63884 c -0.9272,0.40441 -2.5638,0.78436 -2.6555,1.21759 -0.3443,1.62558 -0.4265,3.27546 -0.1416,4.90297 0.2576,1.47085 3.0935,2.05986 6.3159,2.03179 4.8021,-0.0418 10.2862,0.69409 13.6168,-1.5248 0.2591,-0.17259 0.281,-0.42286 0.2782,-0.63671 -0.018,-1.36803 0.01,-2.73735 -0.1402,-4.10354 -0.1405,-1.31869 -2.0574,-1.98547 -5.2526,-2.00024 -3.7939,-0.0175 -7.5894,0.0267 -12.021,0.11294 m -18.7452,-30.73092 c -0.058,-0.41289 -0.1164,-0.82576 -0.1747,-1.2392 -6.3831,0 -12.4485,0 -18.5286,0 0,2.34565 0,4.6073 0,6.86657 6.344,0 12.4207,0 18.7036,0 0,-1.82426 0,-3.57293 -3e-4,-5.62737 m -179.2212,3.14963 c 0,-1.45334 0,-2.90668 0,-4.36506 -6.5923,0 -12.7678,0 -18.953,0 0,2.34343 0,4.60253 0,6.88139 6.4121,0 12.5851,0 18.9566,0 0,-0.7911 0,-1.49594 0,-2.51633 m -735.78234,4.68821 c 4.20235,-1.85163 4.41163,-2.36629 1.21651,-4.60729 -1.72492,2.05812 -3.23361,3.85821 -4.74231,5.65831 0.27992,0.0596 0.55982,0.11914 0.83973,0.17872 0.77008,-0.35173 1.54019,-0.70344 2.68607,-1.22974 z"
   id="path1"
   style="display:inline;opacity:0;stroke-width:0.51784" />
<path
   fill="#7FC254"
   opacity="1.000000"
   stroke="none"
   d=" M646.484741,857.258423   C645.274841,868.546143 644.253601,879.441101 643.100952,890.322083   C641.191467,908.347778 636.436890,925.322937 623.418701,938.759521   C607.167419,955.533142 587.026550,961.059692 564.266113,958.188660   C546.268433,955.918396 529.908630,949.534424 515.527161,938.325684   C514.095703,937.210083 512.517029,936.283386 511.006653,935.269043   C511.164337,934.632812 511.322021,933.996643 511.479675,933.360413   C515.707825,930.928955 519.731567,927.911621 524.257202,926.333008   C526.277100,925.628479 529.737366,927.240784 531.803467,928.789551   C541.716980,936.220520 552.017090,942.969360 564.167725,945.915100   C570.309326,947.403992 576.936035,948.949951 582.678894,944.169189   C588.008362,939.732483 588.131897,933.712341 585.946045,928.177307   C582.010193,918.211182 577.942810,908.133545 572.478516,898.967957   C560.656494,879.138062 545.588318,861.788086 528.199097,846.603760   C523.248596,842.281128 517.569092,838.548279 511.701538,835.576294   C501.944580,830.634155 493.808685,836.100098 493.049255,847.028076   C492.039917,861.552429 495.735718,874.948303 501.499512,888.053284   C502.313446,889.903992 501.971832,892.933716 500.975708,894.773865   C498.713196,898.953430 495.710266,902.732178 492.037384,908.090332   C488.688477,900.442322 484.889313,894.256470 483.300568,887.547241   C480.986572,877.775146 479.201324,867.638306 479.087921,857.635498   C478.865692,838.029846 485.660919,820.763611 500.481720,807.397705   C516.817261,792.665649 536.295410,788.123596 557.851624,790.240356   C567.184326,791.156860 576.785950,792.375427 585.956604,791.148376   C598.063904,789.528503 606.928650,781.252808 613.596802,771.421692   C624.945007,754.690552 630.094604,735.978394 631.137573,715.714722   C632.268066,693.749878 627.233093,673.294434 619.288635,653.296692   C644.267395,695.518982 651.761597,739.018677 627.785645,784.794189   C628.203491,785.181946 628.621277,785.569702 629.039124,785.957520   C632.398376,784.356445 635.818665,782.870911 639.106506,781.134583   C654.664856,772.918152 671.088928,768.150818 688.724121,766.629761   C712.579773,764.572083 734.938110,769.616333 756.351135,779.363159   C766.206909,783.849243 775.742798,789.268188 784.547058,798.130310   C775.561401,794.431702 768.034363,790.843872 760.191589,788.188477   C722.448425,775.409668 686.700928,778.651184 653.670898,802.173645   C653.535706,802.270020 653.329651,802.309570 653.250061,802.434875   C652.346802,803.857666 651.461731,805.291992 650.571777,806.723267   C652.215088,806.715576 653.957336,807.064270 655.485046,806.640198   C663.287354,804.474182 670.905090,801.398438 678.826782,799.956360   C696.942688,796.658569 714.594360,799.715149 731.670227,806.014282   C748.488281,812.218201 763.570190,821.360291 777.573303,834.611267   C767.367432,829.998169 758.563782,825.405273 749.330383,821.966003   C726.152100,813.332642 702.432922,810.300964 678.877380,819.951050   C662.321045,826.733948 651.337341,839.283386 646.484741,857.258423  z"
   id="path2" />
<path
   fill="#33B4D8"
   opacity="1.000000"
   stroke="none"
   d=" M239.350479,1248.444580   C232.265945,1229.706909 230.004776,1210.446411 230.528854,1190.829590   C231.225266,1164.762695 238.440781,1140.406616 252.604813,1118.630249   C259.997009,1107.265137 269.622162,1097.351562 278.249573,1086.791382   C279.320984,1085.479980 280.459167,1084.223267 280.831482,1082.033447   C280.149689,1082.280518 279.373688,1082.392822 278.799561,1082.794067   C250.629944,1102.485107 220.512833,1103.694824 189.436813,1091.411743   C162.240128,1080.661987 142.294357,1061.263306 127.279358,1036.504761   C127.139023,1036.273315 127.261978,1035.882080 127.261978,1034.355225   C129.003769,1035.807617 130.373642,1036.655518 131.368073,1037.823120   C148.020676,1057.376709 168.189423,1071.569092 193.424866,1077.526245   C214.293167,1082.452393 234.450851,1080.831787 253.031052,1068.956177   C268.358002,1059.159912 274.480438,1044.132324 276.992004,1027.027710   C277.136169,1026.046143 277.261444,1025.061523 277.474091,1023.502075   C279.596619,1023.502075 281.688873,1023.435669 283.775909,1023.512146   C307.747986,1024.391113 331.716888,1025.368774 355.693146,1026.109741   C359.618683,1026.230957 361.858643,1027.534424 364.000275,1030.970459   C373.454041,1046.137939 383.735962,1060.710693 398.451019,1071.412476   C404.442841,1075.770142 410.848083,1080.456055 418.572174,1076.582397   C426.158356,1072.777954 427.025269,1064.900879 426.979889,1057.503052   C426.930115,1049.390259 425.747620,1041.289917 425.352264,1033.169678   C425.259766,1031.269897 425.964813,1029.076904 426.972504,1027.428101   C429.450623,1023.373413 432.318268,1019.556885 435.412567,1015.091492   C440.014587,1029.080933 441.255157,1042.758545 439.977600,1056.836548   C437.416840,1085.054443 420.874481,1106.505981 395.488708,1114.491577   C380.163666,1119.312500 364.964905,1118.454590 349.676270,1114.574707   C341.936554,1112.610352 334.238983,1110.250610 326.372437,1109.060669   C306.519714,1106.057495 289.673279,1112.847290 275.173370,1126.188599   C255.958954,1143.867676 246.564438,1166.732788 241.011337,1191.536499   C236.776047,1210.454102 236.987289,1229.537476 239.350479,1248.444580  z"
   id="path3" />
<path
   fill="#42B2CE"
   opacity="1.000000"
   stroke="none"
   d=" M355.894348,1163.060669   C358.678192,1164.584106 361.167419,1165.895630 363.456024,1167.494385   C366.655884,1169.729736 369.622742,1170.521606 372.836426,1167.481201   C396.662842,1144.939697 420.477997,1122.385864 444.429291,1099.977539   C447.872498,1096.756104 449.315582,1093.398315 449.271088,1088.640015   C449.056152,1065.647339 449.226868,1042.651489 449.153961,1019.656982   C449.141418,1015.702759 450.117279,1012.534485 454.809448,1010.110901   C455.326813,1018.314270 456.204834,1026.021606 456.234253,1033.732178   C456.397705,1076.555786 456.390717,1119.380127 456.321320,1162.204102   C456.315186,1166.003052 457.000183,1168.687134 460.639526,1170.787354   C465.965424,1173.860596 468.069733,1180.859375 466.273010,1187.004028   C464.544708,1192.914673 459.129852,1197.081909 452.935638,1197.268433   C446.947632,1197.448975 440.717285,1193.233032 438.965271,1187.815186   C436.893890,1181.409790 438.647125,1173.759521 443.948456,1170.867065   C448.312469,1168.485962 449.014343,1165.400024 448.771759,1161.116333   C448.489594,1156.134033 448.627625,1151.128540 448.524994,1146.134277   C448.516571,1145.724243 448.060974,1145.323486 447.438599,1144.306152   C445.941864,1145.345703 444.471558,1146.218140 443.169220,1147.293823   C427.317322,1160.389160 427.324799,1160.396973 427.331451,1180.712891   C427.334808,1191.043945 427.116608,1201.383179 427.498474,1211.700073   C427.586121,1214.067993 429.170929,1217.051636 431.032654,1218.557617   C436.739960,1223.174194 439.243011,1229.891602 436.948669,1236.699097   C435.067627,1242.280273 429.723328,1245.913208 423.443939,1245.879517   C416.847198,1245.844116 411.339417,1241.760010 409.204926,1235.320679   C407.263397,1229.463501 409.855896,1222.071655 415.796295,1218.471069   C419.294281,1216.350830 420.398743,1213.747070 420.380402,1209.897095   C420.306580,1194.401367 420.271179,1178.901245 420.624237,1163.411865   C420.684723,1160.759277 422.083557,1157.546265 423.937347,1155.630737   C430.879547,1148.457397 438.469177,1141.908447 445.363647,1134.693115   C447.411041,1132.550415 448.656067,1129.078979 449.054901,1126.056152   C449.637543,1121.640503 449.228241,1117.075073 449.014587,1112.584473   C448.950439,1111.236084 448.129700,1109.923828 447.655548,1108.594971   C446.353973,1109.147949 444.784821,1109.405884 443.795258,1110.302979   C438.244659,1115.335205 432.820038,1120.506958 427.378662,1125.658813   C420.122345,1132.528809 413.049744,1139.604370 405.578369,1146.230957   C401.961700,1149.438599 400.721832,1153.067261 400.850464,1157.644287   C401.093719,1166.301025 401.020752,1174.968140 401.356720,1183.620117   C401.519012,1187.798828 400.343719,1191.077148 397.025452,1193.650391   C395.320892,1194.972168 393.844513,1196.586182 392.155762,1197.930908   C387.901245,1201.318481 384.916321,1204.367676 388.041840,1210.822510   C391.164093,1217.270752 388.077148,1224.514526 381.762146,1227.935669   C377.718445,1230.126099 376.382629,1232.927856 376.808319,1237.190918   C377.022461,1239.335815 376.353485,1241.676147 376.977631,1243.644653   C377.693756,1245.902954 378.914764,1248.595459 380.762939,1249.794800   C387.619324,1254.244263 390.415375,1262.839478 386.685516,1269.762329   C383.011566,1276.581177 374.856262,1279.244507 367.745239,1275.947632   C360.438782,1272.560181 357.093445,1264.524414 360.362152,1257.124146   C361.449738,1254.661865 363.371948,1252.027466 365.634338,1250.744995   C369.530060,1248.536377 370.187927,1245.359741 370.117462,1241.577759   C370.067871,1238.917358 370.232147,1236.164429 369.592346,1233.631958   C369.091644,1231.649902 367.919983,1229.360474 366.323425,1228.218384   C360.657349,1224.165649 357.990845,1217.696167 359.921906,1211.259888   C362.019958,1204.266968 366.898407,1200.899048 374.391968,1200.482666   C376.775635,1200.350098 379.251984,1199.046387 381.388306,1197.777466   C392.437256,1191.215088 395.744659,1181.283081 393.744110,1169.003540   C393.312164,1166.352051 393.681030,1163.570190 393.681030,1160.848389   C393.153290,1160.616943 392.625549,1160.385620 392.097839,1160.154297   C390.331451,1161.440918 388.413208,1162.565552 386.830414,1164.048218   C383.549164,1167.122192 380.488831,1170.430664 377.245422,1173.546753   C376.192780,1174.558105 374.795044,1176.065308 373.653564,1175.982788   C368.400940,1175.603516 366.763458,1178.453979 365.278259,1182.940918   C362.978790,1189.887817 355.372589,1193.051392 348.058472,1190.983032   C341.430542,1189.108521 336.880463,1182.112183 337.779572,1175.177734   C338.778992,1167.470093 344.442139,1162.446655 352.043060,1162.580078   C353.200745,1162.600586 354.354584,1162.839233 355.894348,1163.060669  M378.944519,1209.322388   C373.839722,1206.914917 369.569794,1207.741089 367.315796,1211.728394   C365.194061,1215.481689 366.233521,1218.972046 369.307465,1221.457764   C372.432129,1223.984375 376.084625,1223.927124 379.270294,1221.214844   C382.687012,1218.305786 382.713226,1214.112061 378.944519,1209.322388  M424.852386,1223.724121   C420.270935,1223.125854 417.044617,1224.803467 416.024200,1229.472290   C415.103058,1233.686768 417.665955,1238.052979 421.451202,1238.768921   C425.479675,1239.530884 428.639282,1238.068359 430.322174,1234.182617   C432.183014,1229.886108 430.528595,1226.415771 424.852386,1223.724121  M352.471344,1184.698853   C353.424225,1184.446167 354.441498,1184.330200 355.318817,1183.917114   C359.233246,1182.074097 360.930115,1178.284302 359.622620,1174.510986   C358.425507,1171.056396 353.819275,1168.543823 350.403717,1169.482300   C346.564545,1170.537109 344.468201,1174.030151 344.999268,1178.346191   C345.492004,1182.350708 348.337463,1183.764771 352.471344,1184.698853  M449.357849,1189.622192   C453.188843,1190.722900 457.116821,1190.606079 458.807465,1186.657715   C459.818329,1184.296997 459.854370,1180.417969 458.515564,1178.462891   C457.187775,1176.523926 453.503510,1175.169922 451.007050,1175.381226   C448.961731,1175.554443 446.318176,1178.048340 445.409912,1180.149170   C443.899200,1183.643433 445.421600,1186.942993 449.357849,1189.622192  M366.357910,1260.221802   C365.771606,1267.068848 370.123749,1271.916748 375.401764,1270.240723   C378.896301,1269.131104 380.934418,1266.864258 381.098541,1263.009644   C381.265839,1259.079468 379.220154,1256.623291 375.818390,1255.524048   C371.834198,1254.236816 368.719788,1255.854614 366.357910,1260.221802  z"
   id="path4" />
<path
   fill="#0C2C54"
   opacity="1.000000"
   stroke="none"
   d=" M1226.084961,1022.887695   C1230.321411,1039.434204 1228.594238,1054.508057 1218.534668,1068.342896   C1204.103271,1088.190186 1172.241333,1087.992798 1160.931152,1068.863403   C1160.931152,1076.907227 1160.931152,1083.544312 1160.931152,1090.181396   C1160.931152,1096.999634 1160.931152,1103.817871 1160.931152,1111.010254   C1153.629395,1111.010254 1146.439453,1111.010254 1139.011230,1111.010254   C1139.011230,1072.781860 1139.011230,1034.552246 1139.011230,995.973022   C1145.769897,995.973022 1152.474365,995.973022 1159.636230,995.973022   C1159.636230,999.492249 1159.636230,1003.040344 1159.636230,1007.724182   C1166.442871,999.707336 1173.954956,994.840393 1183.457764,993.962952   C1204.078857,992.058838 1218.614258,1001.894043 1226.084961,1022.887695  M1197.151733,1058.721680   C1205.876587,1050.288330 1207.446655,1040.002563 1204.369385,1028.838501   C1201.305542,1017.723083 1192.120972,1011.758118 1180.522827,1012.766602   C1170.128296,1013.670471 1162.409790,1021.281433 1161.104004,1032.296509   C1160.676270,1035.906372 1160.664917,1039.635010 1161.022217,1043.254272   C1161.847046,1051.609985 1164.813599,1059.043335 1173.126709,1062.498779   C1181.387939,1065.932739 1189.419312,1064.895142 1197.151733,1058.721680  z"
   id="path5"
   style="fill:#33b4d8;fill-opacity:1" />
<path
   fill="#70BB51"
   opacity="1.000000"
   stroke="none"
   d=" M607.430908,1101.453369   C608.595215,1104.045288 609.584290,1106.303955 610.926575,1109.369507   C603.068726,1109.369507 595.820007,1109.510742 588.588989,1109.215576   C587.519226,1109.171875 586.169495,1107.228149 585.573730,1105.886230   C583.279480,1100.719238 581.445435,1095.338989 578.975464,1090.264282   C578.254211,1088.782471 576.004761,1087.143799 574.431763,1087.119263   C561.281250,1086.914307 548.124817,1087.134766 534.970947,1087.069946   C531.690002,1087.053833 529.848511,1088.062378 528.811890,1091.409424   C527.240479,1096.483032 525.230530,1101.443481 523.046082,1106.289307   C522.458496,1107.592651 520.604431,1109.091309 519.264832,1109.158081   C513.134888,1109.463745 506.981049,1109.292480 499.748047,1109.292480   C503.324066,1100.668823 506.485718,1092.911499 509.749786,1085.197632   C520.642517,1059.454712 531.632507,1033.752686 542.416809,1007.964539   C543.893127,1004.434143 545.588013,1002.554626 549.698059,1003.005737   C553.316956,1003.403015 557.043396,1003.355774 560.670776,1002.991577   C564.387268,1002.618591 565.840759,1004.322449 567.191589,1007.505676   C580.450928,1038.750854 593.876892,1069.925415 607.430908,1101.453369  M553.505615,1069.170776   C559.223511,1069.170776 564.941345,1069.170776 571.544556,1069.170776   C565.749390,1055.274902 560.407593,1042.466187 554.595764,1028.530518   C548.873291,1042.640259 543.626953,1055.575806 538.113403,1069.170532   C543.556580,1069.170532 548.033569,1069.170532 553.505615,1069.170776  z"
   id="path6" />
<path
   fill="#09437C"
   opacity="1.000000"
   stroke="none"
   d=" M478.968262,932.015381   C490.480682,920.142212 501.032715,907.980042 509.325134,893.976013   C510.801971,891.481934 510.866882,889.688354 509.485321,887.210083   C504.347351,877.993286 500.516846,868.267883 499.512146,857.659180   C499.008636,852.342529 498.312286,846.368896 503.596252,843.160889   C508.969055,839.898987 513.654541,843.853943 517.478882,847.113525   C541.255981,867.379578 561.380127,890.663574 575.208984,918.936279   C576.723145,922.031860 577.784729,925.451477 578.447876,928.839905   C579.957397,936.553406 575.676575,940.827393 567.966309,939.372009   C555.984985,937.110413 546.266052,930.354187 536.917908,923.067566   C527.482666,915.712952 526.984436,914.796448 517.121277,921.895447   C507.627533,928.728455 499.386414,937.343201 490.841370,945.435364   C486.652466,949.402222 483.022430,953.959229 478.319824,959.154785   C476.718719,951.875305 474.822205,945.710083 474.270172,939.426819   C474.073608,937.188965 477.138611,934.664551 478.968262,932.015381  z"
   id="path7" />
<path
   fill="#0C2C54"
   opacity="1.000000"
   stroke="none"
   d=" M912.643799,1035.850708   C904.861206,1055.362305 897.522217,1074.643921 889.532227,1093.651611   C881.169617,1113.546021 859.823486,1119.744873 842.032898,1107.531616   C844.005249,1102.116943 846.023132,1096.577271 848.069702,1090.958862   C851.455933,1092.091553 854.610352,1093.620361 857.926453,1094.164673   C866.888000,1095.636108 874.021606,1086.589600 870.588074,1078.280396   C859.984497,1052.619385 849.312317,1026.986694 838.679749,1001.337646   C838.003784,999.706970 837.438538,998.030457 836.601440,995.783875   C843.951599,995.783875 850.733704,995.611267 857.490112,995.950562   C858.640564,996.008362 860.129700,998.081055 860.703674,999.524597   C867.649536,1016.992432 874.448608,1034.518677 881.303284,1052.022949   C881.758423,1053.185181 882.354675,1054.292358 883.220581,1056.141113   C888.684875,1041.742310 893.858093,1028.139771 899.006836,1014.528076   C901.007080,1009.239868 902.812561,1003.871521 905.020813,998.673035   C905.567383,997.386230 907.303589,995.805115 908.553772,995.750427   C915.184204,995.460571 921.833984,995.614258 929.109924,995.614258   C923.537231,1009.243530 918.169250,1022.371948 912.643799,1035.850708  z"
   id="path8"
   style="fill:#33b4d8;fill-opacity:1" />
<path
   fill="#0C2C54"
   opacity="1.000000"
   stroke="none"
   d=" M1116.703491,1043.000244   C1116.668091,1055.486084 1116.644775,1067.471924 1116.601807,1079.457886   C1116.600708,1079.761719 1116.384399,1080.064819 1116.151611,1080.674072   C1109.854492,1080.674072 1103.446289,1080.674072 1096.566772,1080.674072   C1096.385132,1077.957397 1096.200806,1075.202148 1095.984253,1071.962769   C1095.175049,1072.505615 1094.499512,1072.820312 1094.000488,1073.313599   C1082.397583,1084.784058 1068.696777,1085.740112 1054.248413,1080.560181   C1044.129272,1076.932129 1038.531494,1067.186646 1038.978760,1056.034180   C1039.424561,1044.915405 1045.834961,1035.941528 1056.451538,1033.132324   C1062.977905,1031.405396 1069.834595,1030.686157 1076.593384,1030.149292   C1082.680542,1029.665894 1088.836304,1030.047363 1094.935791,1030.047363   C1095.203491,1018.632446 1090.425171,1013.384705 1079.746704,1012.820312   C1069.947144,1012.302307 1061.056030,1015.290833 1052.103394,1020.176636   C1049.540649,1015.195557 1046.999878,1010.257263 1044.199219,1004.813660   C1057.230469,996.946655 1071.080200,993.060913 1086.064941,994.548096   C1106.163574,996.542664 1115.065186,1005.944092 1116.484009,1026.024658   C1116.870483,1031.494629 1116.653198,1037.007324 1116.703491,1043.000244  M1070.175171,1066.904541   C1072.163818,1066.987061 1074.155029,1067.179688 1076.140869,1067.134521   C1090.496338,1066.808105 1097.147217,1058.623413 1094.518188,1043.714233   C1086.713501,1044.080688 1078.759521,1044.047119 1070.912964,1044.948853   C1064.395264,1045.698242 1060.947998,1049.725220 1060.601074,1055.227783   C1060.228638,1061.132690 1062.661987,1064.341187 1070.175171,1066.904541  z"
   id="path9"
   style="fill:#33b4d8;fill-opacity:1" />
<path
   fill="#F39A1B"
   opacity="1.000000"
   stroke="none"
   d=" M1654.857910,1066.988403   C1654.849121,1070.318726 1654.612793,1073.174316 1654.889282,1075.979492   C1655.285034,1079.995483 1654.034058,1081.757202 1649.709473,1081.497559   C1644.416870,1081.179565 1639.090698,1081.421753 1633.273682,1081.421753   C1633.273682,1052.805664 1633.273682,1024.575317 1633.273682,995.542297   C1639.734863,995.542297 1645.990723,995.428589 1652.231079,995.687195   C1653.004883,995.719238 1654.032837,997.642639 1654.345703,998.845032   C1654.783203,1000.526184 1654.659302,1002.353516 1654.857788,1005.363586   C1657.622803,1003.257080 1659.503662,1001.845825 1661.361694,1000.405090   C1673.286987,991.157471 1692.084595,991.494812 1703.574585,1001.191711   C1708.987183,1005.759705 1712.057007,1012.023804 1712.224487,1018.674133   C1712.743286,1039.285645 1712.414062,1059.918457 1712.414062,1080.970093   C1705.486206,1080.970093 1698.442749,1080.970093 1690.890137,1080.970093   C1690.801147,1079.156738 1690.647339,1077.385864 1690.637573,1075.614258   C1690.556152,1060.782227 1690.603027,1045.948975 1690.401855,1031.118774   C1690.270386,1021.427307 1687.124023,1016.479370 1680.140625,1014.072144   C1668.199341,1009.955994 1655.663818,1018.390442 1655.313477,1031.003540   C1654.984863,1042.827881 1654.997192,1054.661621 1654.857910,1066.988403  z"
   id="path10" />
<path
   fill="#0C2C54"
   opacity="1.000000"
   stroke="none"
   d=" M1475.402588,1013.974915   C1470.365601,1015.790344 1465.739990,1017.528809 1460.824219,1019.376343   C1458.445435,1014.623718 1456.011108,1009.760315 1453.164062,1004.072266   C1457.484863,1002.064148 1461.631104,999.730408 1466.049561,998.165100   C1476.564453,994.440002 1487.401855,993.251587 1498.513062,994.962158   C1513.585571,997.282410 1523.518433,1006.758606 1524.904297,1021.908752   C1525.993774,1033.816528 1525.743652,1045.851685 1525.957886,1057.832642   C1526.091675,1065.310425 1525.982910,1072.792603 1525.982910,1080.600586   C1519.265747,1080.600586 1512.707397,1080.600586 1505.857422,1080.600586   C1505.684814,1077.742920 1505.517212,1074.966187 1505.311890,1071.565063   C1503.923950,1072.647095 1502.903687,1073.352173 1501.985718,1074.171875   C1490.237549,1084.662720 1476.881836,1085.636475 1462.833130,1080.200684   C1452.183838,1076.080444 1448.180664,1067.216919 1448.017822,1056.377686   C1447.858276,1045.746094 1453.005493,1037.520142 1463.063599,1033.952759   C1469.082153,1031.818115 1475.620117,1030.742920 1482.012085,1030.175049   C1489.117188,1029.543823 1496.321411,1030.030640 1503.418457,1030.030640   C1505.267578,1021.666870 1500.615845,1014.248108 1492.102661,1013.198608   C1486.782715,1012.542847 1481.250732,1013.606079 1475.402588,1013.974915  M1488.561646,1043.903809   C1484.012207,1044.613281 1479.097412,1044.466431 1474.992432,1046.217529   C1467.393188,1049.459106 1466.696045,1060.632568 1473.742188,1064.471313   C1481.667725,1068.789307 1489.973999,1067.963013 1497.477417,1063.257080   C1504.568237,1058.809937 1504.335693,1051.504639 1503.871826,1043.905518   C1498.822876,1043.905518 1494.182373,1043.905518 1488.561646,1043.903809  z"
   id="path11"
   style="fill:#33b4d8;fill-opacity:1" />
<path
   fill="#0C2C54"
   opacity="1.000000"
   stroke="none"
   d=" M942.324585,1065.991699   C942.325378,1042.360107 942.325378,1019.227051 942.325378,995.840942   C949.305420,995.840942 956.072327,995.840942 963.336548,995.840942   C963.336548,999.457581 963.336548,1003.052246 963.336548,1007.428101   C964.497986,1006.580200 965.084778,1006.334473 965.401184,1005.894348   C974.547485,993.174561 991.010010,991.753662 1002.830750,995.420959   C1014.446106,999.024658 1021.774475,1008.948792 1022.041260,1022.432312   C1022.423584,1041.752808 1022.138733,1061.086548 1022.138733,1080.858643   C1015.042664,1080.858643 1007.843140,1080.858643 1000.223938,1080.858643   C1000.223938,1070.214722 1000.228455,1059.580811 1000.222168,1048.946899   C1000.218567,1042.947144 1000.237427,1036.946899 1000.175110,1030.947632   C1000.062927,1020.145081 995.591003,1014.279175 986.633118,1013.082703   C976.537659,1011.734253 967.672241,1017.246887 965.102783,1026.791748   C964.336487,1029.638062 964.182251,1032.713257 964.164429,1035.686157   C964.074890,1050.659424 964.123230,1065.633423 964.123230,1080.863525   C956.930359,1080.863525 949.852661,1080.863525 942.323730,1080.863525   C942.323730,1076.027100 942.323730,1071.258667 942.324585,1065.991699  z"
   id="path12"
   style="fill:#33b4d8;fill-opacity:1" />
<path
   fill="#33B4D8"
   opacity="1.000000"
   stroke="none"
   d=" M338.658264,966.147156   C341.608307,978.454834 344.561279,990.312805 347.649811,1002.715210   C325.560608,1004.667236 302.803772,1006.678345 279.968597,1008.696289   C282.969513,963.220642 317.633026,933.516052 363.870941,942.473572   C381.830200,945.952698 397.274445,954.495544 409.859436,967.931152   C410.970520,969.117310 411.933716,970.442017 413.514984,972.373291   C408.832764,974.432068 404.783813,976.826599 400.413818,977.849731   C398.504669,978.296692 395.582428,976.354736 393.730988,974.779724   C384.952667,967.311951 376.066162,960.005493 365.127960,955.927673   C361.136292,954.439575 356.827515,953.297180 352.601440,953.048096   C343.928589,952.536987 339.510223,956.860229 338.658264,966.147156  z"
   id="path13" />
<path
   fill="#0C2C54"
   opacity="1.000000"
   stroke="none"
   d=" M1389.090454,1018.948425   C1391.297729,1021.567566 1393.126709,1024.629639 1395.796509,1025.844727   C1400.128052,1027.816162 1405.045410,1028.463257 1409.649780,1029.882568   C1413.771973,1031.153198 1417.925049,1032.443481 1421.854248,1034.196411   C1431.087402,1038.315308 1435.936768,1045.599854 1436.252197,1055.727051   C1436.581299,1066.291870 1431.711304,1074.033936 1422.550415,1078.857666   C1411.331055,1084.765259 1399.414429,1084.216431 1387.468140,1081.544189   C1378.909302,1079.629395 1371.151123,1076.036621 1364.434814,1069.842651   C1367.706787,1065.101929 1370.879517,1060.504883 1373.525146,1056.671631   C1381.428833,1059.723145 1388.796631,1063.045044 1396.473999,1065.323853   C1400.121704,1066.406494 1404.411255,1065.894409 1408.315674,1065.383789   C1412.135620,1064.884277 1415.359985,1062.763306 1415.665283,1058.414429   C1415.950195,1054.352783 1413.315308,1051.855835 1409.832275,1050.598267   C1404.994873,1048.851562 1399.986328,1047.583862 1395.078735,1046.024536   C1390.646729,1044.616455 1386.060425,1043.501465 1381.874268,1041.546265   C1365.576416,1033.933472 1363.547485,1011.347412 1378.145996,1000.711487   C1388.994385,992.807495 1401.196289,992.927002 1413.575195,995.518188   C1421.047241,997.082214 1428.200439,999.670837 1434.520264,1004.670044   C1431.238892,1009.659546 1428.161499,1014.339111 1424.876709,1019.333862   C1417.449097,1014.561584 1409.671631,1011.414001 1400.998291,1011.182983   C1394.190308,1011.001587 1390.876831,1013.144165 1389.090454,1018.948425  z"
   id="path14"
   style="fill:#33b4d8;fill-opacity:1" />
<path
   fill="#0C2C54"
   opacity="1.000000"
   stroke="none"
   d=" M1267.130493,1045.779785   C1262.830688,1044.284424 1258.739746,1043.258423 1255.051147,1041.423462   C1239.263306,1033.568970 1237.291626,1011.925537 1251.381592,1001.210815   C1262.537842,992.726929 1275.328979,992.559143 1288.106323,995.636597   C1295.195801,997.344116 1301.825439,1000.961365 1309.250610,1003.955017   C1305.318237,1009.891174 1302.258057,1014.510559 1299.769043,1018.267883   C1292.172974,1015.868713 1285.232666,1013.210205 1278.055908,1011.616333   C1274.713745,1010.874023 1270.673584,1011.569580 1267.409058,1012.816101   C1265.425171,1013.573669 1263.222168,1016.578003 1263.128296,1018.663391   C1263.036743,1020.703003 1265.023315,1023.828979 1266.935059,1024.761353   C1271.056030,1026.771362 1275.737061,1027.611206 1280.147217,1029.056519   C1285.661865,1030.863525 1291.427246,1032.213135 1296.571411,1034.785889   C1312.957031,1042.980957 1314.791260,1065.242798 1300.017456,1076.156738   C1288.713135,1084.507446 1275.797119,1084.567261 1262.708008,1081.979858   C1253.627075,1080.184570 1245.246460,1076.672607 1238.019775,1070.058472   C1241.384644,1065.306519 1244.697876,1060.627319 1247.528076,1056.630493   C1255.168457,1059.683105 1262.283203,1063.195923 1269.795654,1065.266113   C1274.043579,1066.436646 1279.132324,1065.955811 1283.477783,1064.821655   C1285.896240,1064.190308 1288.973633,1060.812012 1289.174194,1058.452393   C1289.371338,1056.132935 1286.850464,1052.350464 1284.562256,1051.298584   C1279.187866,1048.828125 1273.240112,1047.604980 1267.130493,1045.779785  z"
   id="path15"
   style="fill:#33b4d8;fill-opacity:1" />
<path
   fill="#0C2C54"
   opacity="1.000000"
   stroke="none"
   d=" M829.362671,1060.323975   C827.261414,1071.589233 820.309082,1078.141479 810.186340,1081.035522   C791.270935,1086.443726 774.105896,1082.403931 758.177734,1070.172119   C761.713684,1065.155518 765.010620,1060.478027 767.748169,1056.594116   C775.483398,1059.702393 782.645142,1063.079956 790.138306,1065.375488   C793.768066,1066.487427 798.078735,1065.993652 801.972778,1065.450439   C805.790405,1064.917847 808.790405,1062.707886 809.131958,1058.306030   C809.458618,1054.095581 806.868896,1051.730835 803.424316,1050.455811   C798.758179,1048.728516 793.925232,1047.446167 789.146362,1046.031860   C786.436218,1045.229736 783.651550,1044.666626 780.968567,1043.787842   C768.978943,1039.861084 763.104553,1032.650269 762.756775,1021.580200   C762.396912,1010.125427 768.117859,1000.891785 779.343750,996.872681   C796.808472,990.620056 812.896362,994.923706 828.396118,1004.212585   C824.968567,1009.447815 821.887268,1014.154053 819.166382,1018.309937   C812.046997,1015.969666 805.293213,1013.357178 798.319275,1011.638733   C795.277588,1010.889282 791.503174,1011.275330 788.587952,1012.450989   C786.377014,1013.342651 783.776794,1016.200317 783.599304,1018.367371   C783.426208,1020.479919 785.606384,1023.720337 787.650940,1024.871948   C791.192749,1026.866821 795.431763,1027.617798 799.370300,1028.914917   C804.730957,1030.680298 810.288086,1032.019409 815.397888,1034.340576   C826.018250,1039.165283 830.664062,1048.074951 829.362671,1060.323975  z"
   id="path16"
   style="fill:#33b4d8;fill-opacity:1" />
<path
   fill="#7FC254"
   opacity="1.000000"
   stroke="none"
   d=" M430.516113,959.991577   C439.117126,938.481140 447.570587,917.324402 456.024048,896.167603   C456.407379,896.063477 456.790710,895.959412 457.174042,895.855286   C458.440125,900.811768 459.760773,905.755127 460.961487,910.727356   C463.958282,923.137085 466.893250,935.561707 469.866608,947.977112   C473.608185,963.600281 477.363831,979.220093 481.107941,994.842651   C481.184998,995.164246 481.088287,995.572571 481.252777,995.821106   C482.540283,997.764343 483.871857,999.678406 485.189819,1001.601440   C486.383698,999.725464 488.015015,997.995483 488.698059,995.949036   C492.215515,985.410156 495.328522,974.733093 499.028687,964.261902   C499.561279,962.754639 502.531494,961.172302 504.340363,961.210205   C513.458130,961.401489 522.562317,962.169067 531.676575,962.628845   C536.165222,962.855286 540.668213,962.782288 545.159729,962.966919   C569.897644,963.983826 594.633362,965.052185 619.371094,966.072754   C628.007324,966.429077 636.651550,966.610718 645.284363,967.030823   C657.370483,967.618835 669.449341,968.355225 681.539795,969.868408   C672.818298,970.567871 664.103333,971.365479 655.374023,971.947388   C634.002869,973.371765 612.617493,974.588379 591.252502,976.096680   C575.034363,977.241577 558.838745,978.706421 542.633240,980.029846   C534.196228,980.718872 525.758972,981.404419 517.322693,982.102722   C513.807556,982.393738 511.963348,983.927490 510.883820,987.709778   C507.789886,998.549683 503.988312,1009.186890 500.497772,1019.914490   C496.974365,1030.742920 493.528198,1041.596680 489.976471,1052.415649   C487.365784,1060.367920 484.639618,1068.282471 481.964935,1076.213745   C481.478546,1076.224487 480.992126,1076.235229 480.505737,1076.245972   C479.335266,1072.083008 478.052490,1067.947998 477.012970,1063.752563   C471.159119,1040.127197 465.330597,1016.495605 459.564697,992.848755   C457.255219,983.377197 455.182831,973.847656 452.847717,964.382690   C452.553223,963.188965 451.312683,962.228638 450.510498,961.160156   C449.564331,961.976013 448.159760,962.605164 447.740326,963.635437   C440.755035,980.793030 433.709473,997.930664 427.096893,1015.233093   C424.563690,1021.861511 422.291504,1023.631409 414.798370,1022.929260   C406.703766,1022.170776 398.586365,1021.532288 390.464325,1021.214111   C368.364624,1020.348511 346.247620,1019.887085 324.156128,1018.863464   C308.173950,1018.122925 292.221588,1016.739563 276.227631,1015.188416   C296.022339,1013.452454 315.827240,1011.824280 335.609131,1009.952759   C359.374268,1007.704346 383.120636,1005.256714 406.873047,1002.874573   C410.873566,1002.473389 413.444641,1000.398743 415.022858,996.565247   C420.014313,984.440918 425.235992,972.411438 430.516113,959.991577  M476.534149,1051.898804   C477.787201,1057.725586 479.040222,1063.552490 480.293243,1069.379272   C480.909698,1069.381226 481.526154,1069.383057 482.142609,1069.384888   C482.873627,1067.669067 483.739471,1065.997192 484.315369,1064.230835   C492.500305,1039.125977 500.629059,1014.002991 508.810272,988.897034   C511.651306,980.178650 510.231598,981.718079 519.428833,980.409546   C530.080261,978.894104 540.851318,978.153931 551.589844,977.329285   C574.906555,975.538696 598.238159,973.942444 621.557434,972.184326   C626.279541,971.828308 630.974304,971.108398 635.681641,970.556213   C635.029907,969.277893 634.460449,968.915527 633.874817,968.887146   C619.445984,968.187866 605.017273,967.479675 590.584534,966.868103   C579.294495,966.389709 567.998779,966.046387 556.706055,965.629944   C539.275879,964.987183 521.848572,964.211243 504.412659,963.870361   C502.646149,963.835876 499.807648,966.045349 499.205658,967.807556   C495.990143,977.220642 493.404572,986.846680 490.441162,996.349060   C488.969177,1001.069214 487.154358,1005.682434 485.494659,1010.343994   C484.803833,1010.280640 484.112976,1010.217285 483.422150,1010.153992   C474.656494,974.435242 465.890808,938.716553 457.125153,902.997864   C456.570526,902.989929 456.015930,902.982056 455.461304,902.974121   C454.615387,904.669006 453.630798,906.309937 452.946655,908.067749   C449.334900,917.347900 445.999390,926.740479 442.195190,935.939880   C433.881134,956.045227 425.271698,976.028320 416.931580,996.123047   C413.785950,1003.702148 412.711334,1004.426392 404.414062,1004.889343   C395.479553,1005.388000 386.560608,1006.256714 377.654877,1007.161316   C359.693909,1008.985596 341.744507,1010.924500 323.795197,1012.861328   C319.936340,1013.277649 316.098145,1013.885681 312.250427,1014.405396   C312.302002,1014.860107 312.353577,1015.314880 312.405151,1015.769653   C313.658417,1015.927185 314.907440,1016.157471 316.165649,1016.230835   C327.595154,1016.897644 339.019562,1017.715454 350.458344,1018.146851   C372.880341,1018.992676 395.312897,1019.557739 417.735443,1020.391174   C421.804962,1020.542419 423.705139,1018.662964 425.105530,1015.156189   C432.621796,996.333984 440.251862,977.556946 447.929810,958.799988   C448.666534,957.000183 450.003540,955.446167 451.709290,952.757629   C460.117767,986.464905 468.181335,1018.789490 476.534149,1051.898804  z"
   id="path17" />
<path
   fill="#F39A1B"
   opacity="1.000000"
   stroke="none"
   d=" M1756.479736,1057.866699   C1759.842041,1066.102417 1765.868652,1062.264526 1772.001587,1061.500610   C1772.616333,1066.606689 1773.432129,1071.629883 1773.664062,1076.680054   C1773.714966,1077.787964 1771.906128,1079.476318 1770.582275,1080.072266   C1761.633301,1084.100586 1752.522217,1084.438110 1743.558105,1080.177856   C1738.731201,1077.883789 1735.995605,1073.669067 1735.042358,1068.507080   C1734.320190,1064.596313 1733.755859,1060.592773 1733.731934,1056.626709   C1733.541870,1025.160645 1733.495728,993.693604 1733.419922,962.226868   C1733.417480,961.239746 1733.570557,960.252258 1733.725708,958.352722   C1740.294434,958.352722 1746.873901,958.187195 1753.422607,958.561401   C1754.245605,958.608398 1755.525024,961.491638 1755.544678,963.073853   C1755.719727,977.223633 1755.569458,991.377075 1755.691895,1005.527893   C1755.841675,1022.834167 1756.161865,1040.139038 1756.479736,1057.866699  z"
   id="path18" />
<path
   fill="#70BB51"
   opacity="1.000000"
   stroke="none"
   d=" M630.983765,1003.756104   C635.063416,1003.755859 638.698547,1003.755859 642.737427,1003.755859   C642.737427,1038.637817 642.737427,1073.483765 642.737427,1108.629761   C635.971130,1108.629761 629.369080,1108.629761 622.295532,1108.629761   C622.295532,1073.842529 622.295532,1038.990845 622.295532,1003.756287   C624.988831,1003.756287 627.764038,1003.756287 630.983765,1003.756104  z"
   id="path19" />
<path
   fill="#42B2CE"
   opacity="1.000000"
   stroke="none"
   d=" M455.888824,827.400635   C458.144897,836.519165 455.974548,841.610291 448.913422,846.740540   C447.184113,847.997009 445.865204,850.983704 445.820496,853.204346   C445.528870,867.683105 445.385956,882.175903 445.724182,896.651733   C445.900696,904.205811 443.059631,910.479736 438.629242,916.700073   C438.629242,909.972351 438.418610,903.235535 438.710175,896.520508   C438.878418,892.645935 437.480621,889.996948 434.752411,887.397827   C427.401459,880.394531 420.400635,873.023438 413.041473,866.029175   C409.787659,862.936584 408.348175,859.649414 408.478088,855.077759   C408.785339,844.264832 408.376678,833.431946 408.669525,822.618225   C408.794250,818.011230 407.670898,815.087585 403.424438,812.548279   C396.156952,808.202576 395.007782,798.330750 400.260315,791.551880   C405.107391,785.296082 414.462952,784.263794 420.794189,789.285889   C428.175873,795.141296 427.899017,807.140137 419.664948,812.962891   C416.060974,815.511536 415.339386,818.229309 415.410400,822.123657   C415.601562,832.609253 415.354919,843.104919 415.675781,853.584534   C415.748260,855.952332 416.907593,858.707581 418.456024,860.527954   C422.543793,865.333557 427.071350,869.771973 431.526794,874.254333   C433.128540,875.865662 435.024323,877.184753 437.727692,879.413757   C438.153473,876.951477 438.614960,875.482788 438.627014,874.010437   C438.687073,866.685730 438.866791,859.346619 438.456696,852.043335   C438.344147,850.039124 436.804810,847.460632 435.123474,846.315918   C428.943726,842.108459 426.169769,836.824829 427.522949,830.325195   C428.835938,824.018555 433.206268,819.880432 439.745728,818.751892   C446.618134,817.565918 451.941589,820.321960 455.888824,827.400635  M448.749481,838.070374   C450.772491,834.542969 451.020081,830.715393 448.064453,827.993652   C446.290649,826.360229 442.550049,824.980957 440.682617,825.784973   C438.075623,826.907410 435.278381,829.923645 434.669952,832.607239   C434.190369,834.722473 436.291504,838.359070 438.323700,839.889893   C441.434875,842.233459 445.245911,841.672791 448.749481,838.070374  M405.039337,805.152527   C407.758209,808.910095 411.315491,810.105042 415.451813,807.921509   C418.882782,806.110352 420.343719,803.031250 419.354065,799.106750   C418.144287,794.309265 414.136200,791.910645 409.491791,793.131897   C404.977356,794.319092 403.235687,798.413940 405.039337,805.152527  z"
   id="path20" />
<path
   fill="#42B2CE"
   opacity="1.000000"
   stroke="none"
   d=" M404.025330,887.982849   C410.658752,894.322205 416.914764,900.552612 423.476135,906.442871   C426.485565,909.144470 427.624878,912.068970 427.522003,916.043823   C427.306580,924.363586 427.318787,932.698486 427.563538,941.017639   C427.730988,946.708740 425.379730,951.190857 421.368805,956.586609   C421.100494,951.202393 420.779327,947.002441 420.705750,942.798096   C420.565857,934.807007 420.835236,926.797424 420.360565,918.829712   C420.201477,916.159485 418.929321,912.975830 417.083893,911.080383   C405.818604,899.510193 394.333038,888.148682 382.707886,876.938538   C379.607574,873.948914 377.605713,870.957886 378.271759,866.542908   C378.800446,863.038208 377.691223,860.443665 374.194641,858.935486   C372.720001,858.299500 370.979340,857.235352 370.329498,855.895447   C364.502258,843.880127 351.805634,838.657532 343.815094,828.806946   C340.506927,824.728638 336.686615,822.284119 330.798309,821.987610   C322.378113,821.563660 317.255676,812.338623 319.497650,803.677795   C321.469177,796.061768 329.959564,791.451782 337.612549,793.842041   C345.969574,796.452209 350.683044,805.625244 346.651581,813.386353   C344.046112,818.402344 345.300293,821.070679 349.036224,824.266052   C354.708557,829.117554 360.059479,834.344849 366.996185,840.750977   C367.988159,839.027527 368.635712,837.209167 369.845673,835.917664   C375.807434,829.554321 385.535889,829.350891 391.121460,835.319763   C397.175354,841.789185 396.471497,852.675781 389.651917,858.048096   C383.994720,862.504700 383.691345,867.917603 388.832825,873.004089   C393.804688,877.922546 398.792114,882.825256 404.025330,887.982849  M388.764252,847.234619   C389.458252,841.580811 384.060852,837.311157 379.440460,838.125305   C374.913391,838.922974 371.587646,843.288757 373.330627,847.684875   C374.325348,850.193726 377.065979,852.964111 379.582855,853.703979   C383.938965,854.984619 387.233032,852.478699 388.764252,847.234619  M341.073792,805.333801   C339.511597,800.676270 335.767700,798.899841 331.682770,800.415588   C329.293518,801.302124 326.841797,804.471191 326.195404,807.057617   C325.089783,811.481689 328.742981,815.320374 333.101776,815.584534   C338.026093,815.882935 341.179962,812.204590 341.073792,805.333801  z"
   id="path21" />
<path
   fill="#0C2C54"
   opacity="1.000000"
   stroke="none"
   d=" M1327.216309,998.389526   C1328.085815,997.075134 1328.935425,995.514832 1329.839722,995.482544   C1335.957275,995.263916 1342.086548,995.368469 1348.613281,995.368469   C1348.613281,1023.954163 1348.613281,1052.338623 1348.613281,1080.953369   C1341.608398,1080.953369 1334.521484,1080.953369 1327.221924,1080.953369   C1327.221924,1053.425659 1327.221924,1026.138062 1327.216309,998.389526  z"
   id="path22"
   style="fill:#33b4d8;fill-opacity:1" />
<path
   fill="#0C2C54"
   opacity="1.000000"
   stroke="none"
   d=" M1568.991455,1026.000000   C1568.991699,1044.459473 1568.991699,1062.418945 1568.991699,1080.702881   C1561.880249,1080.702881 1554.974609,1080.702881 1547.717041,1080.702881   C1547.717041,1052.455078 1547.717041,1024.201050 1547.717041,995.614136   C1554.541016,995.614136 1561.421387,995.614136 1568.991211,995.614136   C1568.991211,1005.645874 1568.991211,1015.572937 1568.991455,1026.000000  z"
   id="path23"
   style="fill:#33b4d8;fill-opacity:1" />
<path
   fill="#42B2CE"
   opacity="1.000000"
   stroke="none"
   d=" M327.666992,880.332153   C326.140015,878.767456 324.583954,877.630310 323.628540,876.114563   C320.747070,871.543213 317.097504,870.037231 311.502869,870.582703   C302.807648,871.430420 296.593292,864.332031 297.089691,855.345886   C297.552246,846.973083 304.304077,840.895264 312.349457,841.609558   C321.139557,842.389954 328.483856,850.554016 325.850708,858.447205   C323.558258,865.319092 326.860931,868.430786 330.463531,873.038696   C337.943634,882.605957 346.962738,886.760986 358.925568,884.614990   C364.305908,883.649780 368.139801,885.843323 371.938324,889.856812   C382.928589,901.469666 394.312012,912.721069 405.811249,923.834839   C409.230377,927.139343 410.746399,930.519653 410.504517,935.235413   C410.172089,941.716553 410.361450,948.227783 410.438904,954.724792   C410.469788,957.313477 409.760986,958.711670 406.816040,958.813110   C403.897125,958.913757 403.013916,957.730103 403.009735,955.030273   C402.999634,948.536560 403.038300,942.029480 402.611481,935.557190   C402.463104,933.306702 401.570526,930.594116 400.053040,929.026611   C388.697784,917.296509 377.163574,905.736328 365.500977,894.311096   C364.024841,892.864990 361.539154,892.274231 359.408051,891.730103   C357.844482,891.330872 356.053833,891.415649 354.436462,891.697693   C343.193848,893.659119 334.310120,890.124390 327.666992,880.332153  M318.964600,855.651550   C317.658295,850.303101 314.775543,848.090698 309.897095,848.918579   C305.590729,849.649414 303.693512,852.485901 303.891296,856.693909   C304.096008,861.048889 306.845764,863.232666 310.866455,863.774597   C315.187042,864.356995 318.135620,861.550903 318.964600,855.651550  z"
   id="path24" />
<path
   fill="#09437C"
   opacity="1.000000"
   stroke="none"
   d=" M392.327332,998.018555   C381.772980,999.102234 371.681183,1000.242004 361.566559,1001.118103   C360.101837,1001.244934 357.509308,1000.471802 357.162262,999.499756   C353.826141,990.155823 349.920319,980.860657 348.059479,971.189453   C346.296753,962.027893 351.528839,958.084351 359.828278,962.359680   C369.630524,967.409302 379.211914,973.448486 387.537415,980.626343   C394.174866,986.348999 399.930756,988.015930 407.530334,984.038818   C409.256836,983.135315 411.228943,982.701050 414.075684,981.705200   C412.027283,986.659058 410.508453,990.936646 408.442535,994.931274   C407.879456,996.020142 405.720551,996.592529 404.206543,996.819946   C400.425323,997.388062 396.593903,997.621887 392.327332,998.018555  z"
   id="path25" />
<path
   fill="#09437C"
   opacity="1.000000"
   stroke="none"
   d=" M397.274200,1027.958252   C402.733459,1028.175415 407.737061,1028.200195 412.691681,1028.705444   C414.067719,1028.845825 416.315979,1030.293335 416.436707,1031.340332   C417.514008,1040.683594 419.101135,1050.104614 418.756134,1059.436890   C418.410858,1068.776367 412.478241,1071.374268 404.841278,1065.898682   C399.103790,1061.784912 393.854462,1056.731812 389.251465,1051.357056   C382.923920,1043.968750 377.411957,1035.881714 371.550568,1028.094116   C371.793793,1027.673218 372.037018,1027.252441 372.280212,1026.831665   C380.453491,1027.203491 388.626770,1027.575317 397.274200,1027.958252  z"
   id="path26" />
<path
   fill="#F39A1B"
   opacity="1.000000"
   stroke="none"
   d=" M1593.164307,1057.140137   C1598.210693,1056.982544 1602.867310,1056.848022 1607.521851,1056.901489   C1611.442139,1056.946411 1613.793945,1058.973145 1613.966309,1062.981323   C1614.145020,1067.133911 1614.116089,1071.296021 1614.138306,1075.454224   C1614.141846,1076.104248 1614.114868,1076.864868 1613.796875,1077.389526   C1609.710693,1084.133911 1602.982422,1081.896973 1597.090942,1082.024170   C1593.137329,1082.109497 1589.657959,1080.319214 1589.342041,1075.848511   C1588.992432,1070.901611 1589.093262,1065.886719 1589.515747,1060.945679   C1589.628174,1059.628906 1591.636108,1058.473999 1593.164307,1057.140137  z"
   id="path27" />
<path
   fill="#0C2C54"
   opacity="1.000000"
   stroke="none"
   d=" M1569.775879,964.301636   C1569.776001,970.081482 1569.776001,975.396606 1569.776001,980.941528   C1562.067627,980.941528 1554.612305,980.941528 1546.829102,980.941528   C1546.829102,974.074402 1546.829102,967.200012 1546.829102,960.070312   C1554.288452,960.070312 1561.730103,960.070312 1569.561279,960.070312   C1569.632812,961.326965 1569.704224,962.581909 1569.775879,964.301636  z"
   id="path28"
   style="fill:#33b4d8;fill-opacity:1" />
<path
   fill="#0C2C54"
   opacity="1.000000"
   stroke="none"
   d=" M1349.895508,973.889893   C1349.897827,976.511841 1349.897827,978.654236 1349.897827,981.058838   C1342.080688,981.058838 1334.507202,981.058838 1326.640381,981.058838   C1326.640381,974.132141 1326.640381,967.265503 1326.640381,960.142578   C1334.228760,960.142578 1341.805420,960.142578 1349.893311,960.142578   C1349.893311,964.575378 1349.893311,968.992859 1349.895508,973.889893  z"
   id="path29"
   style="fill:#33b4d8;fill-opacity:1" />
<path
   fill="#42B2CE"
   opacity="1.000000"
   stroke="none"
   d=" M446.948639,987.925659   C445.773315,989.260071 444.828491,990.329102 443.883698,991.398193   C443.540283,991.217102 443.196869,991.036072 442.853455,990.854980   C444.704437,985.383484 446.555420,979.912048 448.671692,973.656311   C452.591705,980.467896 452.334930,982.032227 446.948639,987.925659  z"
   id="path30" />
<path
   fill="#7FC254"
   opacity="1.000000"
   stroke="none"
   d=" M779.004944,835.993286   C779.004944,835.993286 779.136658,835.972351 779.074829,835.984863   C779.013000,835.997437 779.004944,835.993286 779.004944,835.993286  z"
   id="path31" />
<path
   fill="#7FC254"
   opacity="1.000000"
   stroke="none"
   d=" M779.015869,835.995483   C779.018677,835.993469 778.915527,835.843140 778.915527,835.843140   C778.915527,835.843140 778.882812,836.049622 778.943848,836.021484   C779.004944,835.993286 779.013000,835.997437 779.015869,835.995483  z"
   id="path32" />









<path
   fill="#F39A1B"
   opacity="1.000000"
   stroke="none"
   d=" M476.389526,1051.506470   C468.181335,1018.789490 460.117767,986.464905 451.709290,952.757629   C450.003540,955.446167 448.666534,957.000183 447.929810,958.799988   C440.251862,977.556946 432.621796,996.333984 425.105530,1015.156189   C423.705139,1018.662964 421.804962,1020.542419 417.735443,1020.391174   C395.312897,1019.557739 372.880341,1018.992676 350.458344,1018.146851   C339.019562,1017.715454 327.595154,1016.897644 316.165649,1016.230835   C314.907440,1016.157471 313.658417,1015.927185 312.405151,1015.769653   C312.353577,1015.314880 312.302002,1014.860107 312.250427,1014.405396   C316.098145,1013.885681 319.936340,1013.277649 323.795197,1012.861328   C341.744507,1010.924500 359.693909,1008.985596 377.654877,1007.161316   C386.560608,1006.256714 395.479553,1005.388000 404.414062,1004.889343   C412.711334,1004.426392 413.785950,1003.702148 416.931580,996.123047   C425.271698,976.028320 433.881134,956.045227 442.195190,935.939880   C445.999390,926.740479 449.334900,917.347900 452.946655,908.067749   C453.630798,906.309937 454.615387,904.669006 455.461304,902.974121   C456.015930,902.982056 456.570526,902.989929 457.125153,902.997864   C465.890808,938.716553 474.656494,974.435242 483.422150,1010.153992   C484.112976,1010.217285 484.803833,1010.280640 485.494659,1010.343994   C487.154358,1005.682434 488.969177,1001.069214 490.441162,996.349060   C493.404572,986.846680 495.990143,977.220642 499.205658,967.807556   C499.807648,966.045349 502.646149,963.835876 504.412659,963.870361   C521.848572,964.211243 539.275879,964.987183 556.706055,965.629944   C567.998779,966.046387 579.294495,966.389709 590.584534,966.868103   C605.017273,967.479675 619.445984,968.187866 633.874817,968.887146   C634.460449,968.915527 635.029907,969.277893 635.681641,970.556213   C630.974304,971.108398 626.279541,971.828308 621.557434,972.184326   C598.238159,973.942444 574.906555,975.538696 551.589844,977.329285   C540.851318,978.153931 530.080261,978.894104 519.428833,980.409546   C510.231598,981.718079 511.651306,980.178650 508.810272,988.897034   C500.629059,1014.002991 492.500305,1039.125977 484.315369,1064.230835   C483.739471,1065.997192 482.873627,1067.669067 482.142609,1069.384888   C481.526154,1069.383057 480.909698,1069.381226 480.293243,1069.379272   C479.040222,1063.552490 477.787201,1057.725586 476.389526,1051.506470  z"
   id="path42" />





</svg>
